<?xml version="1.0" encoding="utf-8"?>
<!-- Generator: Adobe Illustrator 25.4.1, SVG Export Plug-In . SVG Version: 6.00 Build 0)  -->
<svg version="1.1" xmlns="http://www.w3.org/2000/svg" xmlns:xlink="http://www.w3.org/1999/xlink" x="0px" y="0px"
	 viewBox="0 0 351.1 83.5" style="enable-background:new 0 0 351.1 83.5;" xml:space="preserve">
<style type="text/css">
	.st0{display:none;}
	.st1{display:inline;}
	.st2{fill:#00A9DC;}
	.st3{fill:#12100B;}
	.st4{fill:#787020;}
</style>
<g id="Capa_1" class="st0">
	<g class="st1">
		<g>
			<g>
				<path class="st2" d="M160.6,19.7L163.6,0h-6.8l-3.6,23.4c-0.1,1.2,0.7,3.1,2.9,3.1h21.8l0.9-5.9l-17.4,0
					C160.9,20.6,160.6,20.1,160.6,19.7L160.6,19.7z"/>
				<path class="st2" d="M283.2,19.8l2.4-16.5h-6.4L276,24c-0.1,1.3,1,2.5,2.5,2.5h18.9l0.9-5.9h-14.4
					C283.4,20.6,283.1,20.1,283.2,19.8L283.2,19.8z"/>
				<path class="st2" d="M307.7,19.8l2.4-16.5h-6.4L300.6,24c-0.1,1.3,1,2.5,2.5,2.5H322l0.9-5.9h-14.4
					C308,20.6,307.7,20.1,307.7,19.8L307.7,19.8z"/>
				<polygon class="st2" points="269.7,3.3 266.2,26.5 272.8,26.5 276.4,3.3 				"/>
				<path class="st2" d="M256.8,0c-1.1,0-1.4,0.8-1.5,0.9c0,0-5.1,13-5.1,13.1c0,0.1-0.1,0.2-0.2,0.2c-0.1,0-0.1-0.1-0.1-0.2
					s-1.4-12.9-1.4-12.9c0-0.2-0.3-1.1-1.3-1.1c-1,0-10.1,0-10.1,0L233,26.5h6.8l2.6-17.3l2.3,15.8c0.2,1.3,1.1,1.5,1.5,1.5
					c0.9,0,2.4,0,3.4,0c0.6,0,1.2-0.4,1.5-1.2l7.7-16.1l-2.6,17.3h7.1L267.6,0C267.6,0,257.4,0,256.8,0L256.8,0z"/>
				<path class="st2" d="M188.5,18.1c0-0.3,0.2-0.4,0.4-0.4h14.7c1.5,0,2.5-0.8,2.8-2.7l1.5-9.6c0.1-0.7-0.2-2.1-2-2.1h-18.8
					c-1.2,0-3,0.8-3.3,3.2l-2.7,17.3c-0.3,1.7,0.9,2.6,2.2,2.6h21.3l0.9-5.8h-17.1c-0.2,0-0.4-0.2-0.3-0.4L188.5,18.1L188.5,18.1z
					 M189.5,11.6l0.3-2.2c0-0.2,0.2-0.3,0.3-0.3h10.5c0.2,0,0.4,0.2,0.3,0.4l-0.3,2.2c0,0.2-0.2,0.3-0.4,0.3h-10.5
					C189.6,12,189.5,11.9,189.5,11.6L189.5,11.6z"/>
				<path class="st2" d="M216.4,9.4c0-0.2,0.2-0.3,0.3-0.3h16.1l0.9-5.8h-19.8c-2.2,0-3.2,1.5-3.4,2.6l-1.5,9.7
					c-0.2,1.2,0.9,2.1,1.9,2.1h13.8c0.2,0,0.4,0.2,0.3,0.4l-0.3,2.1c0,0.2-0.2,0.3-0.4,0.3h-16.1l-0.9,5.8h20.3
					c1.4,0,2.6-0.9,2.7-2.1l1.6-10.2c0.1-0.9-0.4-2.2-2-2.2h-13.6c-0.2,0-0.4-0.2-0.3-0.4L216.4,9.4L216.4,9.4z"/>
				<path class="st2" d="M333.8,9.4c0-0.2,0.2-0.3,0.3-0.3h16.1l1-5.8h-19.8c-2.2,0-3.2,1.5-3.3,2.6l-1.5,9.7
					c-0.2,1.2,0.9,2.1,1.9,2.1h13.8c0.2,0,0.4,0.2,0.4,0.4l-0.3,2.1c0,0.2-0.2,0.3-0.4,0.3h-16.1l-0.9,5.8h20.3
					c1.4,0,2.6-0.9,2.7-2.1l1.6-10.2c0.1-0.9-0.5-2.2-2-2.2h-13.6c-0.2,0-0.4-0.2-0.3-0.4L333.8,9.4L333.8,9.4z"/>
			</g>
			<path class="st2" d="M18,83.5c4.3,0,8-1.3,11-3.8c3.1-2.5,4.9-5.8,5.6-9.9c0.5-3.3,0.1-5.8-1.2-7.5s-3.6-2.8-6.9-3.3
				c6-0.5,9.5-3.7,10.4-9.7c0.6-4-0.2-7.3-2.5-9.8c-2.3-2.5-6.3-3.7-11.9-3.7h-15L0,83.5H18L18,83.5z M16,64h1
				c1.7,0,2.9,0.4,3.7,1.2c0.8,0.8,1.1,2,0.9,3.4c-0.2,1.5-0.9,2.6-2,3.5c-1.1,0.9-2.5,1.3-4.1,1.3c-0.1,0-0.3,0-0.5,0
				c-0.2,0-0.4,0-0.6-0.1L16,64L16,64z M18.9,45.8c0.3,0,0.6,0,0.8,0c0.2,0,0.4,0,0.5,0c3,0,4.3,1.4,3.9,4.1c-0.2,1.3-0.8,2.3-1.8,3
				c-1,0.7-2.3,1.1-3.8,1.1h-0.9L18.9,45.8L18.9,45.8z M70.9,42.3c-2.6-4.3-6.6-6.5-12.1-6.5c-4.5,0-8.6,1.6-12.4,4.8
				c-5.1,4.3-8.3,10.5-9.6,18.7c-1.3,8.5-0.2,14.9,3.3,19.2c2.8,3.4,6.6,5,11.3,5c5.3,0,9.9-2.2,13.9-6.6c4-4.4,6.6-10.1,7.7-17.1
				C74.1,52.5,73.4,46.6,70.9,42.3L70.9,42.3z M56.9,68.8c-1.2,2.1-2.5,3.2-4,3.2c-1.5,0-2.5-1.1-3-3.3c-0.5-2.2-0.4-5.2,0.2-9.2
				c0.6-4,1.6-7,2.8-9.1c1.3-2.2,2.7-3.3,4.2-3.3c3,0,3.9,4.2,2.6,12.7C59,63.7,58.1,66.7,56.9,68.8L56.9,68.8L56.9,68.8z
				 M84.2,83.5c6.7,0,11.9-1.8,15.9-5.5c4.6-4.3,7.6-10.4,8.8-18.3c1.3-8-0.1-14.3-4-18.8c-3-3.4-7.7-5.1-14.1-5.1H79.8l-7.6,47.7
				L84.2,83.5L84.2,83.5z M90.7,47.8h0.4c2,0,3.4,1.1,4.2,3.3c0.8,2.2,0.9,5.2,0.3,9c-1.2,7.7-4.2,11.7-8.8,11.9L90.7,47.8
				L90.7,47.8z M128.9,63.3l15.4-27.5H131l-3.5,7.1c-0.4,0.8-0.9,1.8-1.4,3.1c-0.6,1.3-1.2,2.8-1.9,4.5c-0.1-1.2-0.2-2.4-0.4-3.7
				c-0.2-1.3-0.3-2.6-0.6-4l-1.2-7.1h-13.4l7.5,27.5l-3.2,20.2h12.9L128.9,63.3L128.9,63.3z M155.8,72.1c-1.3,0-2.4-0.3-3.3-0.8
				s-1.6-1.3-2.2-2.4c-0.5-1-0.9-2.3-1-3.8c-0.1-1.5-0.1-3.2,0.3-5.2c0.6-4,1.9-7.1,3.7-9.3c1.8-2.2,4.1-3.3,6.7-3.3
				c2,0,3.8,1,5.4,2.9l2.1-13.2c-2-0.8-4.1-1.1-6.2-1.1c-6.4,0-11.9,2.2-16.4,6.6c-4.5,4.4-7.4,10.2-8.5,17.5
				c-1.2,7.8-0.1,13.8,3.3,18c3.1,3.8,7.2,5.7,12.6,5.7c2.3,0,4.9-0.5,7.9-1.6l2.8-12.9C160.4,71,158,72.1,155.8,72.1L155.8,72.1
				L155.8,72.1z M198.6,42.3c-2.6-4.3-6.6-6.5-12.1-6.5c-4.5,0-8.6,1.6-12.4,4.8c-5.1,4.3-8.3,10.5-9.6,18.7
				c-1.4,8.5-0.2,14.9,3.3,19.2c2.8,3.4,6.6,5,11.3,5c5.3,0,9.9-2.2,13.9-6.6c4-4.4,6.6-10.1,7.7-17.1
				C201.9,52.5,201.2,46.6,198.6,42.3L198.6,42.3z M184.6,68.8c-1.2,2.1-2.5,3.2-4,3.2c-1.5,0-2.5-1.1-3-3.3
				c-0.5-2.2-0.4-5.2,0.2-9.2c0.6-4,1.6-7,2.8-9.1c1.3-2.2,2.6-3.3,4.2-3.3c3.1,0,3.9,4.2,2.6,12.7
				C186.7,63.7,185.8,66.7,184.6,68.8L184.6,68.8L184.6,68.8z M249,35.8h-15.6l-5.9,17.3c-0.8,2.4-1.6,5.1-2.4,8.1
				c0.1-1.8,0.2-3.5,0.3-5s0.1-3,0.1-4.3l-0.1-16.1h-16l-13.1,47.7h13.7l4.6-21.6l1.7-8.8c-0.1,1.4-0.1,2.3-0.2,2.8
				c-0.1,3-0.2,5.1-0.2,6.4l0.1,21.3h10.7l7.6-21.3c0.5-1.4,1-2.9,1.4-4.4c0.4-1.5,0.9-3.1,1.3-4.8l-1,8.7L233,83.5h13L249,35.8
				L249,35.8z M266.5,83.5c4.3,0,8-1.3,11-3.8c3-2.5,4.9-5.8,5.5-9.9c0.5-3.3,0.1-5.8-1.2-7.5s-3.6-2.8-6.9-3.3
				c6-0.5,9.5-3.7,10.4-9.7c0.6-4-0.2-7.3-2.5-9.8c-2.3-2.5-6.3-3.7-11.9-3.7h-15l-7.6,47.7L266.5,83.5L266.5,83.5z M264.4,64h1
				c1.7,0,2.9,0.4,3.7,1.2c0.8,0.8,1.1,2,0.9,3.4c-0.2,1.5-0.9,2.6-2,3.5c-1.1,0.9-2.5,1.3-4,1.3c-0.1,0-0.3,0-0.5,0
				c-0.2,0-0.4,0-0.6-0.1L264.4,64L264.4,64z M267.3,45.8c0.3,0,0.6,0,0.8,0c0.2,0,0.4,0,0.5,0c3,0,4.3,1.4,3.9,4.1
				c-0.2,1.3-0.8,2.3-1.8,3c-1,0.7-2.3,1.1-3.8,1.1H266L267.3,45.8L267.3,45.8z M315.2,35.8h-15.8l-19,47.7h13.3l2-6.1h8.7v6.1h13.3
				L315.2,35.8L315.2,35.8z M299,67.4l2.5-7.5l1.8-5.8c0-0.1,0.1-0.4,0.3-0.9c0.1-0.5,0.4-1.4,0.7-2.7c0.2-0.6,0.4-1.2,0.5-1.8
				c0.2-0.5,0.3-1,0.4-1.5l-0.3,4.5c0,0.9-0.1,1.7-0.1,2.3c0,0.6-0.1,1.1-0.1,1.4c-0.1,3.1-0.2,4.9-0.2,5.4c0,0.5,0,0.8,0,0.8l0,5.6
				L299,67.4L299,67.4z M340,47.2h7.4l1.8-11.4h-27.4l-1.8,11.4h7.1l-5.8,36.3h12.9L340,47.2L340,47.2z"/>
		</g>
	</g>
</g>
<g id="Capa_2">
	<g>
		<path class="st3" d="M20.6,19.8l2.9-19.6h-6.7l-3.6,23.2c-0.1,1.2,0.7,3.1,2.8,3.1h21.7l0.9-5.8l-17.3,0
			C20.9,20.7,20.6,20.2,20.6,19.8L20.6,19.8z"/>
		<path class="st3" d="M142.5,19.9l2.4-16.4h-6.4l-3.1,20.5c-0.1,1.3,1,2.5,2.5,2.5h18.8l0.9-5.8h-14.3
			C142.8,20.7,142.5,20.2,142.5,19.9L142.5,19.9z"/>
		<path class="st3" d="M167,19.9l2.4-16.4H163l-3.1,20.5c-0.1,1.3,1,2.5,2.5,2.5h18.8l0.9-5.8h-14.3C167.2,20.7,166.9,20.2,167,19.9
			L167,19.9z"/>
		<polygon class="st3" points="129.1,3.6 125.6,26.6 132.2,26.6 135.8,3.6 129.1,3.6 		"/>
		<path class="st3" d="M116.3,0.2c-1.1,0-1.4,0.8-1.5,0.9c0,0-5.1,12.9-5.1,13c0,0.1-0.1,0.2-0.2,0.2c-0.1,0-0.1-0.1-0.1-0.2
			c0-0.1-1.4-12.8-1.4-12.8c0-0.2-0.3-1.1-1.3-1.1c-1,0-10,0-10,0l-4.1,26.3h6.8l2.6-17.2l2.3,15.7c0.2,1.3,1.1,1.5,1.5,1.5
			c0.9,0,2.4,0,3.4,0c0.6,0,1.2-0.4,1.5-1.2l7.6-16.1l-2.6,17.2h7.1L127,0.2C127,0.2,116.8,0.2,116.3,0.2L116.3,0.2z"/>
		<path class="st3" d="M48.3,18.3c0-0.3,0.2-0.3,0.3-0.3h14.7c1.5,0,2.5-0.8,2.8-2.7l1.5-9.6c0.1-0.7-0.2-2.1-2-2.1H46.9
			c-1.2,0-3,0.8-3.3,3.2L41,23.9c-0.3,1.7,0.9,2.6,2.2,2.6h21.2l0.9-5.8h-17c-0.2,0-0.4-0.2-0.3-0.4L48.3,18.3L48.3,18.3z
			 M49.4,11.8l0.3-2.2c0-0.2,0.2-0.3,0.3-0.3h10.4c0.2,0,0.4,0.2,0.3,0.4l-0.3,2.1c0,0.2-0.2,0.3-0.3,0.3H49.7
			C49.5,12.2,49.3,12,49.4,11.8L49.4,11.8z"/>
		<path class="st3" d="M76.1,9.6c0-0.2,0.2-0.3,0.3-0.3h16l0.9-5.8H73.7c-2.2,0-3.2,1.5-3.3,2.6l-1.5,9.7c-0.2,1.2,0.8,2.1,1.9,2.1
			h13.7c0.2,0,0.4,0.2,0.3,0.4l-0.3,2.1c0,0.2-0.2,0.3-0.4,0.3h-16l-0.9,5.8h20.2c1.4,0,2.5-0.9,2.7-2.1l1.6-10.2
			c0.1-0.9-0.4-2.1-2-2.1H76.1c-0.2,0-0.4-0.2-0.3-0.4L76.1,9.6L76.1,9.6z"/>
		<path class="st3" d="M192.8,9.6c0-0.2,0.2-0.3,0.3-0.3h16l0.9-5.8h-19.7c-2.2,0-3.2,1.5-3.3,2.6l-1.5,9.7
			c-0.2,1.2,0.8,2.1,1.9,2.1h13.7c0.2,0,0.4,0.2,0.3,0.4l-0.3,2.1c0,0.2-0.2,0.3-0.4,0.3h-16l-0.9,5.8h20.2c1.4,0,2.5-0.9,2.7-2.1
			l1.6-10.2c0.1-0.9-0.4-2.1-2-2.1h-13.6c-0.2,0-0.4-0.2-0.3-0.4L192.8,9.6L192.8,9.6z"/>
		<path class="st4" d="M19.8,83.3c4.3,0,7.9-1.2,11-3.7c3-2.5,4.9-5.8,5.5-9.8c0.5-3.2,0.1-5.7-1.2-7.4c-1.3-1.7-3.6-2.8-6.9-3.3
			c6-0.5,9.4-3.7,10.4-9.7c0.6-4-0.2-7.3-2.5-9.8c-2.3-2.5-6.2-3.7-11.8-3.7H9.4L1.9,83.3H19.8L19.8,83.3z M17.8,63.9h1
			c1.7,0,2.9,0.4,3.7,1.2c0.8,0.8,1.1,2,0.9,3.4c-0.2,1.5-0.9,2.6-2,3.5c-1.1,0.9-2.4,1.3-4,1.3c-0.1,0-0.3,0-0.5,0
			c-0.2,0-0.4,0-0.6,0L17.8,63.9L17.8,63.9z M20.6,45.7c0.3,0,0.6,0,0.8,0c0.2,0,0.4,0,0.5,0c3,0,4.3,1.4,3.9,4.1
			c-0.2,1.3-0.8,2.3-1.8,3c-1,0.7-2.3,1.1-3.8,1.1h-0.9L20.6,45.7L20.6,45.7z M72.4,42.3c-2.6-4.3-6.6-6.5-12-6.5
			c-4.5,0-8.6,1.6-12.3,4.8c-5.1,4.3-8.2,10.5-9.5,18.6c-1.3,8.5-0.2,14.8,3.3,19.1c2.8,3.3,6.6,5,11.2,5c5.3,0,9.9-2.2,13.9-6.5
			c4-4.4,6.5-10.1,7.6-17C75.6,52.4,74.9,46.6,72.4,42.3L72.4,42.3z M58.4,68.7c-1.2,2.1-2.5,3.2-4,3.2c-1.5,0-2.5-1.1-2.9-3.2
			c-0.5-2.2-0.4-5.2,0.2-9.1c0.6-4,1.5-7,2.8-9c1.3-2.2,2.6-3.3,4.2-3.3c3,0,3.9,4.2,2.5,12.6C60.5,63.6,59.6,66.6,58.4,68.7
			L58.4,68.7L58.4,68.7z M85.7,83.3c6.6,0,11.9-1.8,15.8-5.5c4.6-4.3,7.5-10.4,8.8-18.2c1.3-8-0.1-14.2-4-18.7
			c-3-3.4-7.6-5.1-14-5.1H81.2l-7.5,47.5H85.7L85.7,83.3z M92.1,47.7h0.4c2,0,3.4,1.1,4.2,3.3c0.8,2.2,0.9,5.2,0.3,9
			c-1.2,7.7-4.1,11.6-8.8,11.9L92.1,47.7L92.1,47.7z M130.1,63.2l15.4-27.4h-13.3l-3.5,7.1c-0.4,0.8-0.9,1.8-1.4,3.1
			c-0.6,1.3-1.2,2.8-1.9,4.5c-0.1-1.2-0.2-2.4-0.4-3.7c-0.2-1.3-0.4-2.6-0.6-4l-1.2-7h-13.4l7.4,27.4l-3.2,20.1h12.8L130.1,63.2
			L130.1,63.2z M156.8,71.9c-1.3,0-2.4-0.3-3.3-0.8c-0.9-0.6-1.6-1.3-2.2-2.4c-0.5-1-0.8-2.3-1-3.8c-0.1-1.5,0-3.2,0.3-5.1
			c0.6-3.9,1.9-7,3.7-9.3c1.8-2.2,4.1-3.3,6.7-3.3c2,0,3.8,1,5.4,2.9l2.1-13.1c-2-0.7-4.1-1.1-6.2-1.1c-6.4,0-11.8,2.2-16.3,6.5
			c-4.5,4.4-7.3,10.2-8.5,17.4c-1.2,7.7-0.1,13.7,3.3,17.9c3,3.8,7.2,5.6,12.5,5.6c2.3,0,4.9-0.5,7.9-1.6l2.8-12.9
			C161.4,70.9,159,71.9,156.8,71.9L156.8,71.9L156.8,71.9z M199.4,42.3c-2.6-4.3-6.6-6.5-12-6.5c-4.5,0-8.6,1.6-12.3,4.8
			c-5.1,4.3-8.2,10.5-9.5,18.6c-1.3,8.5-0.2,14.8,3.3,19.1c2.8,3.3,6.6,5,11.2,5c5.3,0,9.9-2.2,13.9-6.5c4-4.4,6.5-10.1,7.6-17
			C202.7,52.4,202,46.6,199.4,42.3L199.4,42.3z M185.5,68.7c-1.2,2.1-2.5,3.2-4,3.2c-1.5,0-2.5-1.1-2.9-3.2
			c-0.5-2.2-0.4-5.2,0.2-9.1c0.6-4,1.5-7,2.8-9c1.3-2.2,2.6-3.3,4.2-3.3c3,0,3.9,4.2,2.5,12.6C187.6,63.6,186.7,66.6,185.5,68.7
			L185.5,68.7L185.5,68.7z M249.5,35.8H234L228.1,53c-0.8,2.4-1.6,5.1-2.4,8.1c0.1-1.8,0.2-3.5,0.3-5c0.1-1.5,0.1-3,0.1-4.3l-0.1-16
			h-16l-13,47.5h13.6l4.5-21.5l1.7-8.8c-0.1,1.4-0.1,2.3-0.2,2.8c-0.1,3-0.2,5.1-0.2,6.3l0.1,21.2h10.7l7.5-21.1
			c0.5-1.4,1-2.9,1.4-4.4c0.4-1.5,0.9-3.1,1.3-4.7l-1,8.6l-2.9,21.6h13L249.5,35.8L249.5,35.8z M266.9,83.3c4.3,0,7.9-1.2,11-3.7
			c3-2.5,4.9-5.8,5.5-9.8c0.5-3.2,0.1-5.7-1.2-7.4c-1.3-1.7-3.6-2.8-6.9-3.3c6-0.5,9.4-3.7,10.4-9.7c0.6-4-0.2-7.3-2.5-9.8
			c-2.3-2.5-6.2-3.7-11.8-3.7h-14.9L249,83.3H266.9L266.9,83.3z M264.9,63.9h1c1.7,0,2.9,0.4,3.7,1.2c0.8,0.8,1.1,2,0.9,3.4
			c-0.2,1.5-0.9,2.6-2,3.5c-1.1,0.9-2.4,1.3-4,1.3c-0.1,0-0.3,0-0.5,0c-0.2,0-0.4,0-0.6,0L264.9,63.9L264.9,63.9z M267.7,45.7
			c0.3,0,0.6,0,0.8,0c0.2,0,0.4,0,0.5,0c3,0,4.3,1.4,3.9,4.1c-0.2,1.3-0.8,2.3-1.8,3c-1,0.7-2.3,1.1-3.8,1.1h-0.9L267.7,45.7
			L267.7,45.7z M315.3,35.8h-15.7l-18.9,47.5H294l2-6h8.6l0,6h13.2L315.3,35.8L315.3,35.8z M299.3,67.3l2.5-7.4l1.8-5.7
			c0-0.1,0.1-0.4,0.3-0.9c0.1-0.5,0.4-1.4,0.7-2.6c0.2-0.6,0.3-1.2,0.5-1.8c0.2-0.5,0.3-1,0.4-1.4l-0.3,4.5c0,0.9-0.1,1.7-0.1,2.3
			c0,0.6-0.1,1.1-0.1,1.4c-0.1,3.1-0.2,4.9-0.2,5.3c0,0.5,0,0.8,0,0.8l0,5.5H299.3L299.3,67.3z M340.1,47.2h7.3l1.8-11.4H322
			l-1.8,11.4h7.1l-5.7,36.1h12.8L340.1,47.2L340.1,47.2z"/>
	</g>
</g>
</svg>
