<?xml version="1.0" encoding="utf-8"?>
<!-- Generator: Adobe Illustrator 25.4.1, SVG Export Plug-In . SVG Version: 6.00 Build 0)  -->
<svg version="1.1" id="Isolation_Mode" xmlns="http://www.w3.org/2000/svg" xmlns:xlink="http://www.w3.org/1999/xlink" x="0px"
	 y="0px" viewBox="0 0 300 50" style="enable-background:new 0 0 300 50;" xml:space="preserve">
<style type="text/css">
	.st0{fill:#00A9DC;}
</style>
<g>
	<g>
		<g>
			<path class="st0" d="M56.3,8.16c1.57,0,2.99,0.14,4.28,0.42c1.29,0.28,2.39,0.73,3.32,1.36c0.92,0.63,1.64,1.47,2.14,2.51
				c0.51,1.04,0.76,2.33,0.76,3.87c0,1.66-0.38,3.04-1.13,4.14c-0.75,1.11-1.87,2.01-3.34,2.72c2.03,0.58,3.54,1.61,4.54,3.06
				c1,1.46,1.5,3.22,1.5,5.27c0,1.66-0.32,3.09-0.97,4.31c-0.64,1.21-1.51,2.2-2.6,2.97c-1.09,0.77-2.33,1.34-3.73,1.7
				c-1.4,0.37-2.83,0.55-4.31,0.55H40.83V8.16H56.3z M55.38,21.47c1.29,0,2.35-0.31,3.18-0.92c0.83-0.62,1.24-1.61,1.24-2.99
				c0-0.77-0.14-1.4-0.41-1.89c-0.28-0.49-0.65-0.88-1.11-1.15c-0.46-0.28-0.99-0.47-1.59-0.58c-0.6-0.11-1.22-0.16-1.87-0.16h-6.77
				v7.69H55.38z M55.8,35.43c0.71,0,1.38-0.07,2.03-0.21c0.64-0.14,1.21-0.37,1.7-0.69c0.49-0.32,0.88-0.76,1.17-1.31
				c0.29-0.55,0.44-1.26,0.44-2.12c0-1.69-0.48-2.89-1.43-3.62c-0.95-0.72-2.21-1.08-3.78-1.08h-7.88v9.03H55.8z"/>
			<path class="st0" d="M70.17,17.9c0.74-2.1,1.8-3.94,3.18-5.5c1.38-1.57,3.08-2.79,5.09-3.69c2.01-0.89,4.28-1.34,6.79-1.34
				c2.55,0,4.82,0.45,6.82,1.34c2,0.89,3.68,2.12,5.07,3.69c1.38,1.57,2.44,3.4,3.18,5.5c0.74,2.1,1.11,4.38,1.11,6.84
				c0,2.39-0.37,4.63-1.11,6.7c-0.74,2.07-1.8,3.88-3.18,5.41c-1.38,1.54-3.07,2.74-5.07,3.62c-2,0.88-4.27,1.31-6.82,1.31
				c-2.52,0-4.78-0.44-6.79-1.31c-2.01-0.88-3.71-2.08-5.09-3.62c-1.38-1.54-2.44-3.34-3.18-5.41c-0.74-2.07-1.1-4.31-1.1-6.7
				C69.07,22.28,69.43,20,70.17,17.9z M76.78,28.77c0.32,1.31,0.84,2.48,1.54,3.52c0.71,1.04,1.63,1.88,2.76,2.51
				c1.13,0.63,2.52,0.94,4.14,0.94c1.63,0,3.01-0.31,4.15-0.94c1.14-0.63,2.06-1.47,2.76-2.51c0.71-1.04,1.22-2.22,1.54-3.52
				c0.32-1.3,0.48-2.65,0.48-4.03c0-1.44-0.16-2.84-0.48-4.19c-0.32-1.35-0.84-2.56-1.54-3.62c-0.71-1.06-1.63-1.9-2.76-2.53
				c-1.14-0.63-2.52-0.95-4.15-0.95c-1.63,0-3.01,0.32-4.14,0.95c-1.14,0.63-2.06,1.47-2.76,2.53c-0.71,1.06-1.22,2.26-1.54,3.62
				c-0.32,1.35-0.48,2.75-0.48,4.19C76.3,26.12,76.46,27.47,76.78,28.77z"/>
			<path class="st0" d="M117.76,8.16c2.12,0,4.09,0.34,5.92,1.01c1.83,0.68,3.41,1.69,4.74,3.04c1.34,1.35,2.38,3.04,3.13,5.07
				c0.75,2.03,1.13,4.41,1.13,7.14c0,2.39-0.31,4.61-0.92,6.63c-0.61,2.03-1.54,3.78-2.79,5.25c-1.24,1.47-2.79,2.63-4.65,3.48
				c-1.86,0.84-4.05,1.27-6.56,1.27h-14.19V8.16H117.76z M117.25,34.97c1.04,0,2.06-0.17,3.04-0.51c0.98-0.34,1.86-0.9,2.63-1.68
				c0.77-0.78,1.38-1.8,1.84-3.06c0.46-1.26,0.69-2.79,0.69-4.61c0-1.66-0.16-3.15-0.48-4.49c-0.32-1.34-0.85-2.48-1.59-3.43
				c-0.74-0.95-1.71-1.68-2.92-2.19c-1.21-0.51-2.71-0.76-4.49-0.76h-5.16v20.73H117.25z"/>
		</g>
		<g>
			<path class="st0" d="M179.88,8.72v5.96H164.3v7.45h13.5v5.51h-13.5v13.32h-7.09V8.72H179.88z"/>
			<path class="st0" d="M188.36,8.72V35h15.71v5.96h-22.8V8.72H188.36z"/>
			<path class="st0" d="M229.46,8.72v5.96h-17.02v6.91h15.62v5.51h-15.62V35h17.39v5.96h-24.48V8.72H229.46z"/>
			<path class="st0" d="M229.41,8.72h8.22l6.32,10.3l6.55-10.3h7.77l-10.34,15.4l11.25,16.84h-8.45l-7.04-11.15l-7.18,11.15h-7.95
				l11.24-16.89L229.41,8.72z"/>
		</g>
		<g>
			<path class="st0" d="M154.55,4.86c-1.69,1.07-3.35,2.18-4.99,3.3c-2.88,2-8.15,6.67-8.69,6.67c-0.17,0-2.7-2.18-3.83-3.01
				l-2.26-1.69l-2.29-1.64c-1.52-1.1-3.09-2.16-4.65-3.21c-1.57-1.04-3.15-2.07-4.79-3.04c1.31,1.37,2.67,2.68,4.04,3.98
				c1.38,1.28,2.76,2.57,4.18,3.8l2.12,1.86l2.15,1.82c1,0.86,2.03,1.7,3.06,2.53c-0.01,0.06-0.02,0.11-0.03,0.16l0,0.04
				c-0.14,2.64-0.26,5.28-0.3,7.92c-0.06,2.64-0.07,5.29-0.03,7.93c0.04,2.65,0.14,5.3,0.31,7.95c0.2,2.65,0.39,5.31,0.8,7.97
				c0.65-2.62,0.74-15.01,1.17-17.63c0,0,0-0.29,0-0.3c0.35,2.3,1.05,14.65,1.54,16.94c0.33-2.58,0.51-5.15,0.67-7.72
				c0.16-2.57,0.26-5.14,0.31-7.7c0.12-5.13,0.06-10.25-0.11-15.37c0-0.07-0.02-0.14-0.03-0.21c2.7-2.05,5.34-4.17,7.95-6.35
				c1.52-1.29,3.03-2.59,4.51-3.94c1.47-1.35,2.94-2.71,4.34-4.17C157.94,2.74,156.24,3.8,154.55,4.86z"/>
			<path class="st0" d="M140.98,11.72c1.1-0.58,1.67-1.16,2.08-1.74c0.39-0.58,0.57-1.16,0.57-1.74c0-0.58-0.18-1.16-0.57-1.74
				c-0.41-0.58-0.98-1.16-2.07-1.74c-1.1,0.58-1.66,1.16-2.07,1.74c-0.39,0.58-0.57,1.16-0.57,1.74c-0.01,0.58,0.18,1.16,0.56,1.74
				C139.31,10.56,139.88,11.14,140.98,11.72z"/>
		</g>
	</g>
</g>
</svg>
