<?xml version="1.0" encoding="utf-8"?>
<!-- Generator: Adobe Illustrator 25.4.1, SVG Export Plug-In . SVG Version: 6.00 Build 0)  -->
<svg version="1.1" id="Isolation_Mode" xmlns="http://www.w3.org/2000/svg" xmlns:xlink="http://www.w3.org/1999/xlink" x="0px"
	 y="0px" viewBox="0 0 300 50" style="enable-background:new 0 0 300 50;" xml:space="preserve">
<style type="text/css">
	.st0{fill:#00A9DC;}
	.st1{clip-path:url(#SVGID_00000013193356880526118070000016294132438269003172_);}
	.st2{clip-path:url(#SVGID_00000016047648937331962050000002285570880964225198_);fill:#1D1D1B;}
	.st3{clip-path:url(#SVGID_00000016047648937331962050000002285570880964225198_);fill:#939393;}
	.st4{clip-path:url(#SVGID_00000016047648937331962050000002285570880964225198_);fill:#AB7EB6;}
</style>
<g>
	<g>
		<g>
			<path class="st0" d="M56.3,8.2c1.6,0,3,0.1,4.3,0.4c1.3,0.3,2.4,0.7,3.3,1.4c0.9,0.6,1.6,1.5,2.1,2.5c0.5,1,0.8,2.3,0.8,3.9
				c0,1.7-0.4,3-1.1,4.1c-0.8,1.1-1.9,2-3.3,2.7c2,0.6,3.5,1.6,4.5,3.1c1,1.5,1.5,3.2,1.5,5.3c0,1.7-0.3,3.1-1,4.3
				c-0.6,1.2-1.5,2.2-2.6,3c-1.1,0.8-2.3,1.3-3.7,1.7c-1.4,0.4-2.8,0.5-4.3,0.5H40.8V8.2H56.3z M55.4,21.5c1.3,0,2.3-0.3,3.2-0.9
				c0.8-0.6,1.2-1.6,1.2-3c0-0.8-0.1-1.4-0.4-1.9c-0.3-0.5-0.7-0.9-1.1-1.1c-0.5-0.3-1-0.5-1.6-0.6s-1.2-0.2-1.9-0.2h-6.8v7.7H55.4z
				 M55.8,35.4c0.7,0,1.4-0.1,2-0.2c0.6-0.1,1.2-0.4,1.7-0.7s0.9-0.8,1.2-1.3c0.3-0.5,0.4-1.3,0.4-2.1c0-1.7-0.5-2.9-1.4-3.6
				c-1-0.7-2.2-1.1-3.8-1.1H48v9C48,35.4,55.8,35.4,55.8,35.4z"/>
			<path class="st0" d="M70.2,17.9c0.7-2.1,1.8-3.9,3.2-5.5c1.4-1.6,3.1-2.8,5.1-3.7c2-0.9,4.3-1.3,6.8-1.3c2.6,0,4.8,0.4,6.8,1.3
				s3.7,2.1,5.1,3.7c1.4,1.6,2.4,3.4,3.2,5.5s1.1,4.4,1.1,6.8c0,2.4-0.4,4.6-1.1,6.7s-1.8,3.9-3.2,5.4c-1.4,1.5-3.1,2.7-5.1,3.6
				c-2,0.9-4.3,1.3-6.8,1.3c-2.5,0-4.8-0.4-6.8-1.3c-2-0.9-3.7-2.1-5.1-3.6s-2.4-3.3-3.2-5.4s-1.1-4.3-1.1-6.7
				C69.1,22.3,69.4,20,70.2,17.9z M76.8,28.8c0.3,1.3,0.8,2.5,1.5,3.5c0.7,1,1.6,1.9,2.8,2.5c1.1,0.6,2.5,0.9,4.1,0.9
				c1.6,0,3-0.3,4.2-0.9c1.1-0.6,2.1-1.5,2.8-2.5c0.7-1,1.2-2.2,1.5-3.5c0.3-1.3,0.5-2.6,0.5-4c0-1.4-0.2-2.8-0.5-4.2
				s-0.8-2.6-1.5-3.6c-0.7-1.1-1.6-1.9-2.8-2.5c-1.1-0.6-2.5-0.9-4.2-0.9c-1.6,0-3,0.3-4.1,0.9c-1.1,0.6-2.1,1.5-2.8,2.5
				c-0.7,1.1-1.2,2.3-1.5,3.6c-0.3,1.4-0.5,2.8-0.5,4.2C76.3,26.1,76.5,27.5,76.8,28.8z"/>
			<path class="st0" d="M117.8,8.2c2.1,0,4.1,0.3,5.9,1c1.8,0.7,3.4,1.7,4.7,3c1.3,1.4,2.4,3,3.1,5.1s1.1,4.4,1.1,7.1
				c0,2.4-0.3,4.6-0.9,6.6c-0.6,2-1.5,3.8-2.8,5.2c-1.2,1.5-2.8,2.6-4.7,3.5c-1.9,0.8-4.1,1.3-6.6,1.3h-14.2V8.2H117.8z M117.2,35
				c1,0,2.1-0.2,3-0.5s1.9-0.9,2.6-1.7s1.4-1.8,1.8-3.1s0.7-2.8,0.7-4.6c0-1.7-0.2-3.1-0.5-4.5s-0.8-2.5-1.6-3.4s-1.7-1.7-2.9-2.2
				s-2.7-0.8-4.5-0.8h-5.2V35H117.2z"/>
		</g>
		<g>
			<path class="st0" d="M179.9,8.7v6h-15.6v7.5h13.5v5.5h-13.5V41h-7.1V8.7H179.9z"/>
			<path class="st0" d="M188.4,8.7V35h15.7v6h-22.8V8.7H188.4z"/>
			<path class="st0" d="M229.5,8.7v6h-17v6.9h15.6v5.5h-15.6V35h17.4v6h-24.5V8.7H229.5z"/>
			<path class="st0" d="M229.4,8.7h8.2L244,19l6.6-10.3h7.8l-10.3,15.4L259.2,41h-8.4l-7-11.1L236.5,41h-7.9l11.2-16.9L229.4,8.7z"
				/>
		</g>
		<g>
			<path class="st0" d="M154.6,4.9c-1.7,1.1-3.4,2.2-5,3.3c-2.9,2-8.1,6.7-8.7,6.7c-0.2,0-2.7-2.2-3.8-3l-2.3-1.7l-2.3-1.6
				c-1.5-1.1-3.1-2.2-4.7-3.2c-1.6-1-3.2-2.1-4.8-3c1.3,1.4,2.7,2.7,4,4c1.4,1.3,2.8,2.6,4.2,3.8l2.1,1.9l2.1,1.8
				c1,0.9,2,1.7,3.1,2.5c0,0.1,0,0.1,0,0.2v0c-0.1,2.6-0.3,5.3-0.3,7.9c-0.1,2.6-0.1,5.3,0,7.9c0,2.7,0.1,5.3,0.3,8
				c0.2,2.7,0.4,5.3,0.8,8c0.6-2.6,0.7-15,1.2-17.6c0,0,0-0.3,0-0.3c0.4,2.3,1.1,14.6,1.5,16.9c0.3-2.6,0.5-5.2,0.7-7.7
				s0.3-5.1,0.3-7.7c0.1-5.1,0.1-10.2-0.1-15.4c0-0.1,0-0.1,0-0.2c2.7-2.1,5.3-4.2,7.9-6.4c1.5-1.3,3-2.6,4.5-3.9
				c1.5-1.3,2.9-2.7,4.3-4.2C157.9,2.7,156.2,3.8,154.6,4.9z"/>
			<path class="st0" d="M141,11.7c1.1-0.6,1.7-1.2,2.1-1.7c0.4-0.6,0.6-1.2,0.6-1.7s-0.2-1.2-0.6-1.7c-0.4-0.6-1-1.2-2.1-1.7
				c-1.1,0.6-1.7,1.2-2.1,1.7c-0.4,0.6-0.6,1.2-0.6,1.7c0,0.6,0.2,1.2,0.6,1.7C139.3,10.6,139.9,11.1,141,11.7z"/>
		</g>
	</g>
</g>
<g id="Vector_Smart_Object_00000010290338686963230680000015834058873745801349_">
	<g>
		<defs>
			<rect id="SVGID_1_" x="40.7" y="1.8" width="218.7" height="46.5"/>
		</defs>
		<clipPath id="SVGID_00000067206374943679159140000015085029295470046892_">
			<use xlink:href="#SVGID_1_"  style="overflow:visible;"/>
		</clipPath>
		<g style="clip-path:url(#SVGID_00000067206374943679159140000015085029295470046892_);">
			<defs>
				<rect id="SVGID_00000076573928687959358260000015283750761758990512_" x="40.7" y="1.8" width="218.7" height="46.5"/>
			</defs>
			<clipPath id="SVGID_00000009591002176012969230000005863375067994783112_">
				<use xlink:href="#SVGID_00000076573928687959358260000015283750761758990512_"  style="overflow:visible;"/>
			</clipPath>
			<path style="clip-path:url(#SVGID_00000009591002176012969230000005863375067994783112_);fill:#1D1D1B;" d="M56.2,8.1
				c1.6,0,3,0.1,4.3,0.4c1.3,0.3,2.4,0.7,3.3,1.4c0.9,0.6,1.6,1.5,2.1,2.5c0.5,1,0.8,2.3,0.8,3.9c0,1.7-0.4,3-1.1,4.2
				c-0.8,1.1-1.9,2-3.3,2.7c2,0.6,3.5,1.6,4.5,3.1c1,1.5,1.5,3.2,1.5,5.3c0,1.7-0.3,3.1-1,4.3c-0.6,1.2-1.5,2.2-2.6,3
				c-1.1,0.8-2.3,1.3-3.7,1.7c-1.4,0.4-2.8,0.6-4.3,0.6h-16V8.1H56.2z M55.2,21.5c1.3,0,2.4-0.3,3.2-0.9c0.8-0.6,1.2-1.6,1.2-3
				c0-0.8-0.1-1.4-0.4-1.9c-0.3-0.5-0.6-0.9-1.1-1.2c-0.5-0.3-1-0.5-1.6-0.6c-0.6-0.1-1.2-0.2-1.9-0.2h-6.8v7.7H55.2z M55.7,35.4
				c0.7,0,1.4-0.1,2-0.2c0.6-0.1,1.2-0.4,1.7-0.7c0.5-0.3,0.9-0.8,1.2-1.3c0.3-0.6,0.4-1.3,0.4-2.1c0-1.7-0.5-2.9-1.4-3.6
				c-1-0.7-2.2-1.1-3.8-1.1h-7.9v9H55.7z"/>
			<path style="clip-path:url(#SVGID_00000009591002176012969230000005863375067994783112_);fill:#1D1D1B;" d="M70.1,17.9
				c0.7-2.1,1.8-3.9,3.2-5.5c1.4-1.6,3.1-2.8,5.1-3.7c2-0.9,4.3-1.3,6.8-1.3c2.6,0,4.8,0.4,6.8,1.3c2,0.9,3.7,2.1,5.1,3.7
				c1.4,1.6,2.4,3.4,3.2,5.5c0.7,2.1,1.1,4.4,1.1,6.9c0,2.4-0.4,4.6-1.1,6.7c-0.7,2.1-1.8,3.9-3.2,5.4c-1.4,1.5-3.1,2.7-5.1,3.6
				c-2,0.9-4.3,1.3-6.8,1.3c-2.5,0-4.8-0.4-6.8-1.3c-2-0.9-3.7-2.1-5.1-3.6c-1.4-1.5-2.4-3.3-3.2-5.4c-0.7-2.1-1.1-4.3-1.1-6.7
				C68.9,22.3,69.3,20,70.1,17.9 M76.7,28.8c0.3,1.3,0.8,2.5,1.5,3.5c0.7,1,1.6,1.9,2.8,2.5c1.1,0.6,2.5,0.9,4.2,0.9s3-0.3,4.2-0.9
				c1.1-0.6,2.1-1.5,2.8-2.5c0.7-1,1.2-2.2,1.5-3.5c0.3-1.3,0.5-2.7,0.5-4c0-1.4-0.2-2.8-0.5-4.2c-0.3-1.4-0.8-2.6-1.5-3.6
				c-0.7-1.1-1.6-1.9-2.8-2.5c-1.1-0.6-2.5-0.9-4.2-0.9s-3,0.3-4.2,0.9c-1.1,0.6-2.1,1.5-2.8,2.5c-0.7,1.1-1.2,2.3-1.5,3.6
				c-0.3,1.4-0.5,2.8-0.5,4.2C76.2,26.1,76.4,27.5,76.7,28.8"/>
			<path style="clip-path:url(#SVGID_00000009591002176012969230000005863375067994783112_);fill:#1D1D1B;" d="M117.7,8.1
				c2.1,0,4.1,0.3,5.9,1c1.8,0.7,3.4,1.7,4.8,3c1.3,1.4,2.4,3,3.1,5.1c0.8,2,1.1,4.4,1.1,7.2c0,2.4-0.3,4.6-0.9,6.6
				c-0.6,2-1.5,3.8-2.8,5.3c-1.2,1.5-2.8,2.6-4.7,3.5c-1.9,0.8-4.1,1.3-6.6,1.3h-14.2V8.1H117.7z M117.2,35c1,0,2.1-0.2,3-0.5
				c1-0.3,1.9-0.9,2.6-1.7c0.8-0.8,1.4-1.8,1.8-3.1c0.5-1.3,0.7-2.8,0.7-4.6c0-1.7-0.2-3.2-0.5-4.5c-0.3-1.3-0.9-2.5-1.6-3.4
				c-0.7-1-1.7-1.7-2.9-2.2c-1.2-0.5-2.7-0.8-4.5-0.8h-5.2V35H117.2z"/>
			<polygon style="clip-path:url(#SVGID_00000009591002176012969230000005863375067994783112_);fill:#939393;" points="179.9,8.7 
				179.9,14.7 164.3,14.7 164.3,22.1 177.8,22.1 177.8,27.6 164.3,27.6 164.3,41 157.2,41 157.2,8.7 			"/>
			<polygon style="clip-path:url(#SVGID_00000009591002176012969230000005863375067994783112_);fill:#939393;" points="188.4,8.7 
				188.4,35 204.2,35 204.2,41 181.3,41 181.3,8.7 			"/>
			<polygon style="clip-path:url(#SVGID_00000009591002176012969230000005863375067994783112_);fill:#939393;" points="229.6,8.7 
				229.6,14.7 212.5,14.7 212.5,21.6 228.2,21.6 228.2,27.1 212.5,27.1 212.5,35 229.9,35 229.9,41 205.4,41 205.4,8.7 			"/>
			<polygon style="clip-path:url(#SVGID_00000009591002176012969230000005863375067994783112_);fill:#939393;" points="229.5,8.7 
				237.8,8.7 244.1,19 250.6,8.7 258.4,8.7 248.1,24.1 259.3,41 250.9,41 243.8,29.8 236.6,41 228.7,41 239.9,24.1 			"/>
			<path style="clip-path:url(#SVGID_00000009591002176012969230000005863375067994783112_);fill:#AB7EB6;" d="M154.6,4.8
				c-1.7,1.1-3.4,2.2-5,3.3c-2.9,2-8.2,6.7-8.7,6.7c-0.2,0-2.7-2.2-3.8-3l-2.3-1.7l-2.3-1.6c-1.5-1.1-3.1-2.2-4.7-3.2
				c-1.6-1-3.2-2.1-4.8-3c1.3,1.4,2.7,2.7,4,4c1.4,1.3,2.8,2.6,4.2,3.8l2.1,1.9l2.2,1.8c1,0.9,2,1.7,3.1,2.5c0,0.1,0,0.1,0,0.2l0,0
				c-0.1,2.6-0.3,5.3-0.3,7.9c-0.1,2.6-0.1,5.3,0,7.9c0,2.7,0.1,5.3,0.3,8c0.2,2.7,0.4,5.3,0.8,8c0.6-2.6,0.7-15,1.2-17.7v-0.3
				c0.3,2.3,1,14.7,1.5,17c0.3-2.6,0.5-5.2,0.7-7.7c0.2-2.6,0.3-5.1,0.3-7.7c0.1-5.1,0.1-10.3-0.1-15.4c0-0.1,0-0.1,0-0.2
				c2.7-2,5.4-4.2,8-6.4c1.5-1.3,3-2.6,4.5-3.9c1.5-1.4,2.9-2.7,4.3-4.2C158,2.7,156.3,3.8,154.6,4.8"/>
			<path style="clip-path:url(#SVGID_00000009591002176012969230000005863375067994783112_);fill:#AB7EB6;" d="M141,11.7
				c1.1-0.6,1.7-1.2,2.1-1.7c0.4-0.6,0.6-1.2,0.6-1.7c0-0.6-0.2-1.2-0.6-1.7c-0.4-0.6-1-1.2-2.1-1.7c-1.1,0.6-1.7,1.2-2.1,1.7
				c-0.4,0.6-0.6,1.2-0.6,1.7c0,0.6,0.2,1.2,0.6,1.7C139.3,10.5,139.9,11.1,141,11.7"/>
		</g>
	</g>
</g>
</svg>
