<?xml version="1.0" encoding="utf-8"?>
<!-- Generator: Adobe Illustrator 25.4.1, SVG Export Plug-In . SVG Version: 6.00 Build 0)  -->
<svg version="1.1" id="Capa_1" xmlns="http://www.w3.org/2000/svg" xmlns:xlink="http://www.w3.org/1999/xlink" x="0px" y="0px"
	 viewBox="0 0 351.12 83.49" style="enable-background:new 0 0 351.12 83.49;" xml:space="preserve">
<style type="text/css">
	.st0{fill:#00A9DC;}
</style>
<g>
	<g>
		<g>
			<path class="st0" d="M160.64,19.69L163.57,0h-6.78l-3.58,23.35c-0.13,1.16,0.72,3.12,2.86,3.12h21.81l0.93-5.87l-17.36,0.01
				C160.89,20.61,160.59,20.09,160.64,19.69L160.64,19.69z"/>
			<path class="st0" d="M283.18,19.83l2.38-16.47h-6.41l-3.14,20.63c-0.12,1.27,1.03,2.49,2.49,2.49h18.89l0.9-5.85h-14.4
				C283.41,20.62,283.15,20.13,283.18,19.83L283.18,19.83z"/>
			<path class="st0" d="M307.74,19.83l2.38-16.47h-6.41l-3.14,20.63c-0.12,1.27,1.03,2.49,2.49,2.49h18.9l0.9-5.85h-14.4
				C307.98,20.62,307.72,20.13,307.74,19.83L307.74,19.83z"/>
			<polygon class="st0" points="269.73,3.35 266.16,26.47 272.82,26.47 276.38,3.35 269.73,3.35 			"/>
			<path class="st0" d="M256.83,0c-1.12,0-1.45,0.76-1.51,0.89c0,0-5.11,12.98-5.15,13.09c-0.04,0.11-0.09,0.17-0.19,0.17
				c-0.12,0-0.13-0.08-0.14-0.17c-0.01-0.09-1.37-12.9-1.37-12.9C248.46,0.89,248.21,0,247.18,0c-1,0-10.08,0-10.08,0l-4.14,26.47
				h6.83l2.58-17.31l2.31,15.83c0.17,1.32,1.15,1.48,1.52,1.48c0.93,0,2.37,0,3.45,0c0.63,0,1.17-0.39,1.51-1.16l7.66-16.15
				l-2.59,17.31h7.11L267.61,0C267.61,0,257.35,0,256.83,0L256.83,0z"/>
			<path class="st0" d="M188.49,18.15c0.04-0.28,0.23-0.35,0.35-0.35h14.73c1.47,0,2.51-0.78,2.8-2.71l1.5-9.61
				c0.09-0.66-0.23-2.14-2.02-2.13h-18.78c-1.21,0-2.99,0.85-3.27,3.2l-2.69,17.28c-0.3,1.71,0.9,2.64,2.22,2.64h21.28l0.91-5.84
				h-17.05c-0.18,0-0.36-0.16-0.32-0.4L188.49,18.15L188.49,18.15z M189.51,11.64l0.33-2.2c0.02-0.16,0.17-0.28,0.33-0.28h10.49
				c0.21,0,0.38,0.2,0.34,0.4l-0.34,2.16c-0.03,0.19-0.18,0.31-0.35,0.31h-10.48C189.63,12.03,189.48,11.85,189.51,11.64
				L189.51,11.64z"/>
			<path class="st0" d="M216.42,9.44c0.02-0.17,0.17-0.29,0.33-0.29h16.08l0.95-5.8h-19.83c-2.18,0-3.2,1.53-3.35,2.61l-1.51,9.73
				c-0.16,1.19,0.85,2.11,1.87,2.11h13.79c0.24,0,0.37,0.2,0.34,0.39l-0.33,2.13c-0.03,0.22-0.22,0.3-0.36,0.3h-16.06l-0.92,5.84
				h20.33c1.43,0,2.56-0.89,2.74-2.08l1.6-10.21c0.14-0.92-0.45-2.15-2.04-2.15h-13.63c-0.21,0-0.37-0.18-0.33-0.39L216.42,9.44
				L216.42,9.44z"/>
			<path class="st0" d="M333.77,9.44c0.02-0.17,0.17-0.29,0.33-0.29h16.07l0.95-5.8h-19.83c-2.18,0-3.2,1.53-3.34,2.61l-1.51,9.73
				c-0.16,1.19,0.85,2.11,1.87,2.11h13.79c0.24,0,0.37,0.2,0.35,0.39l-0.34,2.13c-0.03,0.22-0.21,0.3-0.36,0.3h-16.06l-0.92,5.84
				h20.34c1.43,0,2.56-0.89,2.74-2.08l1.6-10.21c0.14-0.92-0.45-2.15-2.04-2.15h-13.63c-0.21,0-0.36-0.18-0.33-0.39L333.77,9.44
				L333.77,9.44z"/>
		</g>
		<path class="st0" d="M18.05,83.49c4.31,0,7.98-1.26,11.01-3.77c3.05-2.49,4.9-5.79,5.55-9.89c0.52-3.26,0.12-5.75-1.18-7.48
			c-1.3-1.73-3.6-2.84-6.9-3.34c6.01-0.5,9.49-3.73,10.44-9.7c0.64-4.02-0.21-7.29-2.55-9.83c-2.31-2.47-6.26-3.71-11.87-3.71H7.56
			L0,83.49H18.05L18.05,83.49z M15.97,63.99h1.02c1.67,0,2.92,0.41,3.74,1.24c0.83,0.82,1.13,1.97,0.89,3.43
			c-0.23,1.46-0.89,2.62-1.99,3.49c-1.1,0.87-2.45,1.3-4.05,1.3c-0.12,0-0.28-0.01-0.46-0.02c-0.18-0.01-0.4-0.03-0.64-0.05
			L15.97,63.99L15.97,63.99z M18.86,45.76c0.31-0.02,0.58-0.03,0.8-0.05c0.22-0.01,0.4-0.02,0.54-0.02c3.03,0,4.32,1.38,3.89,4.14
			c-0.21,1.3-0.81,2.31-1.82,3.03c-1.01,0.72-2.29,1.08-3.83,1.08h-0.87L18.86,45.76L18.86,45.76z M70.87,42.28
			c-2.57-4.34-6.6-6.51-12.1-6.51c-4.49,0-8.63,1.6-12.41,4.8c-5.09,4.32-8.28,10.55-9.58,18.71c-1.35,8.51-0.25,14.9,3.3,19.16
			c2.83,3.36,6.59,5.04,11.28,5.04c5.29,0,9.94-2.19,13.93-6.56c4.01-4.4,6.58-10.11,7.69-17.13
			C74.14,52.45,73.44,46.62,70.87,42.28L70.87,42.28z M56.87,68.84c-1.16,2.14-2.51,3.21-4.03,3.21c-1.48,0-2.47-1.09-2.96-3.26
			c-0.49-2.17-0.42-5.23,0.2-9.16c0.63-4,1.56-7.03,2.77-9.09c1.26-2.22,2.65-3.33,4.17-3.33c3.05,0,3.9,4.23,2.56,12.69
			C58.97,63.72,58.07,66.7,56.87,68.84L56.87,68.84L56.87,68.84z M84.25,83.49c6.65,0,11.95-1.83,15.89-5.5
			c4.62-4.31,7.55-10.42,8.8-18.33c1.28-8.03-0.06-14.29-4.01-18.76c-3-3.42-7.69-5.13-14.05-5.13H79.75l-7.56,47.71H84.25
			L84.25,83.49z M90.74,47.76h0.4c2,0,3.41,1.11,4.23,3.34c0.83,2.21,0.94,5.21,0.33,9.02c-1.22,7.73-4.16,11.7-8.81,11.93
			L90.74,47.76L90.74,47.76z M128.92,63.28l15.45-27.5h-13.35l-3.48,7.14c-0.39,0.78-0.86,1.81-1.41,3.07
			c-0.55,1.27-1.2,2.78-1.95,4.53c-0.1-1.18-0.23-2.4-0.39-3.68c-0.16-1.28-0.35-2.61-0.59-3.99l-1.2-7.08h-13.44l7.48,27.5
			l-3.2,20.21h12.89L128.92,63.28L128.92,63.28z M155.75,72.05c-1.3,0-2.41-0.28-3.33-0.83c-0.92-0.55-1.65-1.35-2.17-2.39
			c-0.53-1.04-0.85-2.32-0.99-3.83c-0.13-1.51-0.05-3.23,0.26-5.15c0.63-3.96,1.86-7.07,3.7-9.31c1.84-2.23,4.07-3.34,6.71-3.34
			c2.02,0,3.84,0.96,5.45,2.87l2.09-13.18c-2.04-0.75-4.11-1.13-6.19-1.13c-6.41,0-11.87,2.19-16.4,6.57
			c-4.53,4.4-7.37,10.22-8.52,17.49c-1.23,7.76-0.14,13.76,3.27,17.99c3.05,3.78,7.24,5.67,12.58,5.67c2.27,0,4.91-0.53,7.95-1.59
			l2.79-12.93C160.38,71.02,157.98,72.05,155.75,72.05L155.75,72.05L155.75,72.05z M198.6,42.28c-2.57-4.34-6.6-6.51-12.1-6.51
			c-4.49,0-8.63,1.6-12.41,4.8c-5.09,4.32-8.28,10.55-9.58,18.71c-1.35,8.51-0.25,14.9,3.3,19.16c2.83,3.36,6.59,5.04,11.28,5.04
			c5.29,0,9.93-2.19,13.93-6.56c4.01-4.4,6.57-10.11,7.69-17.13C201.88,52.45,201.17,46.62,198.6,42.28L198.6,42.28z M184.6,68.84
			c-1.16,2.14-2.51,3.21-4.03,3.21c-1.48,0-2.47-1.09-2.96-3.26c-0.49-2.17-0.42-5.23,0.2-9.16c0.63-4,1.56-7.03,2.77-9.09
			c1.26-2.22,2.65-3.33,4.17-3.33c3.05,0,3.9,4.23,2.56,12.69C186.71,63.72,185.81,66.7,184.6,68.84L184.6,68.84L184.6,68.84z
			 M248.99,35.77h-15.58l-5.94,17.28c-0.84,2.39-1.63,5.1-2.38,8.13c0.14-1.81,0.25-3.49,0.32-5.04c0.07-1.55,0.09-2.98,0.08-4.29
			l-0.15-16.07h-16.04l-13.12,47.71h13.72l4.57-21.63l1.7-8.81c-0.08,1.4-0.13,2.33-0.16,2.78c-0.13,3.01-0.19,5.13-0.17,6.36
			l0.09,21.29h10.71l7.58-21.26c0.5-1.42,0.97-2.89,1.4-4.4c0.43-1.51,0.86-3.11,1.27-4.77l-0.96,8.68l-2.92,21.75h13.04
			L248.99,35.77L248.99,35.77z M266.47,83.49c4.31,0,7.97-1.26,11.01-3.77c3.05-2.49,4.9-5.79,5.55-9.89
			c0.52-3.26,0.12-5.75-1.18-7.48c-1.3-1.73-3.6-2.84-6.9-3.34c6.01-0.5,9.49-3.73,10.44-9.7c0.64-4.02-0.21-7.29-2.55-9.83
			c-2.31-2.47-6.26-3.71-11.86-3.71h-14.99l-7.56,47.71H266.47L266.47,83.49z M264.4,63.99h1.02c1.67,0,2.92,0.41,3.74,1.24
			c0.83,0.82,1.12,1.97,0.89,3.43c-0.23,1.46-0.89,2.62-1.99,3.49c-1.1,0.87-2.45,1.3-4.05,1.3c-0.12,0-0.28-0.01-0.46-0.02
			c-0.19-0.01-0.4-0.03-0.64-0.05L264.4,63.99L264.4,63.99z M267.29,45.76c0.31-0.02,0.58-0.03,0.79-0.05
			c0.22-0.01,0.4-0.02,0.54-0.02c3.03,0,4.32,1.38,3.89,4.14c-0.2,1.3-0.81,2.31-1.82,3.03c-1.01,0.72-2.29,1.08-3.83,1.08h-0.86
			L267.29,45.76L267.29,45.76z M315.16,35.77H299.4l-19.02,47.71h13.32l2.01-6.06h8.68l0,6.06h13.32L315.16,35.77L315.16,35.77z
			 M299.03,67.39l2.48-7.48l1.81-5.78c0.03-0.1,0.13-0.4,0.27-0.9c0.14-0.49,0.38-1.38,0.73-2.66c0.18-0.64,0.35-1.23,0.51-1.76
			c0.16-0.54,0.29-1.02,0.4-1.45l-0.31,4.51c-0.04,0.93-0.08,1.7-0.12,2.3c-0.03,0.61-0.06,1.09-0.08,1.44
			c-0.1,3.13-0.17,4.93-0.2,5.38c-0.02,0.54-0.03,0.82-0.01,0.83l-0.05,5.56H299.03L299.03,67.39z M340.05,47.21h7.39l1.81-11.44
			h-27.38l-1.81,11.44h7.11l-5.75,36.28h12.89L340.05,47.21L340.05,47.21z"/>
	</g>
</g>
</svg>
