<?xml version="1.0" encoding="utf-8"?>
<!-- Generator: Adobe Illustrator 25.4.1, SVG Export Plug-In . SVG Version: 6.00 Build 0)  -->
<svg version="1.1" id="Capa_1" xmlns="http://www.w3.org/2000/svg" xmlns:xlink="http://www.w3.org/1999/xlink" x="0px" y="0px"
	 viewBox="0 0 278.39 84.65" style="enable-background:new 0 0 278.39 84.65;" xml:space="preserve">
<style type="text/css">
	.st0{fill:#00A9DC;}
</style>
<g>
	<g>
		<g>
			<path class="st0" d="M8.42,34.17c5.61-4.65,14.51-6.98,26.69-6.98c11.28,0,19.8,2.06,25.58,6.18c5.77,4.12,8.87,10.55,9.3,19.27
				H48.76c-0.43-2.66-1.73-4.64-3.91-5.95c-2.18-1.3-5.43-1.96-9.74-1.96c-5.64,0-9.44,0.99-11.41,2.95
				c-1.97,1.97-2.95,4.68-2.95,8.14c0,3.51,1,6.26,2.99,8.26c2,2,5.79,2.99,11.37,2.99c4.31,0,7.55-0.66,9.74-2
				c2.18-1.33,3.48-3.35,3.91-6.07h21.23c-0.43,8.78-3.51,15.24-9.26,19.39c-5.75,4.15-14.28,6.22-25.62,6.22
				c-12.18,0-21.08-2.34-26.69-7.02C2.81,72.94,0,65.68,0,55.84C0,46.05,2.81,38.83,8.42,34.17z"/>
			<path class="st0" d="M82.76,77.62c-5.61-4.68-8.42-11.94-8.42-21.79c0-9.79,2.81-17.01,8.42-21.67
				c5.61-4.65,14.51-6.98,26.69-6.98c12.13,0,21.01,2.34,26.65,7.02c5.64,4.68,8.46,11.89,8.46,21.63c0,9.79-2.82,17.04-8.46,21.75
				c-5.64,4.71-14.52,7.06-26.65,7.06C97.27,84.65,88.37,82.31,82.76,77.62z M120.83,64.06c2-2.02,2.99-4.76,2.99-8.22
				c0-3.46-1-6.17-2.99-8.14c-1.99-1.97-5.79-2.95-11.37-2.95c-5.64,0-9.44,0.99-11.41,2.95c-1.97,1.97-2.95,4.68-2.95,8.14
				c0,3.51,1,6.26,2.99,8.26c2,2,5.79,2.99,11.37,2.99C115.04,67.09,118.83,66.08,120.83,64.06z"/>
			<path class="st0" d="M211.64,60.27c-1.76,3.22-4.18,5.73-7.26,7.54l9.9,16.04h-24.58l-7.74-13.09h-12.21v13.09h-20.75V27.99
				h43.89c4.15,0,7.85,0.92,11.09,2.75c3.24,1.84,5.77,4.38,7.58,7.62c1.81,3.25,2.71,6.92,2.71,11.01
				C214.27,53.42,213.39,57.05,211.64,60.27z M169.74,53.21h19.15c1.49,0,2.63-0.21,3.43-0.64c0.8-0.43,1.2-1.49,1.2-3.19
				c0-1.7-0.4-2.77-1.2-3.19c-0.8-0.43-1.94-0.64-3.43-0.64h-19.15V53.21z"/>
			<path class="st0" d="M240.09,43.95v5.19h38.31V62.7h-38.31v5.19h38.31v15.96h-59.05V27.99h59.05v15.96H240.09z"/>
		</g>
		<g>
			<path class="st0" d="M72.67,14.31L74.8,0h-4.93l-2.6,16.97c-0.1,0.84,0.52,2.27,2.08,2.27H85.2l0.67-4.27l-12.62,0.01
				C72.85,14.98,72.63,14.61,72.67,14.31L72.67,14.31z"/>
			<path class="st0" d="M161.74,14.41l1.73-11.97h-4.66l-2.28,15c-0.08,0.93,0.75,1.81,1.81,1.81h13.73l0.66-4.25h-10.47
				C161.92,14.99,161.72,14.63,161.74,14.41L161.74,14.41z"/>
			<path class="st0" d="M179.6,14.41l1.73-11.97h-4.66l-2.28,15c-0.08,0.93,0.75,1.81,1.81,1.81h13.74l0.66-4.25h-10.47
				C179.77,14.99,179.58,14.63,179.6,14.41L179.6,14.41z"/>
			<polygon class="st0" points="151.97,2.43 149.37,19.24 154.21,19.24 156.8,2.43 151.97,2.43 			"/>
			<path class="st0" d="M142.59,0c-0.82,0-1.06,0.55-1.1,0.64c0,0-3.71,9.43-3.74,9.51c-0.03,0.08-0.06,0.12-0.13,0.12
				c-0.09,0-0.09-0.06-0.1-0.12c-0.01-0.06-0.99-9.38-0.99-9.38C136.51,0.64,136.33,0,135.58,0c-0.73,0-7.33,0-7.33,0l-3.01,19.24
				h4.97l1.87-12.59l1.68,11.51c0.13,0.96,0.84,1.08,1.11,1.08c0.68,0,1.72,0,2.51,0c0.45,0,0.85-0.28,1.1-0.84l5.57-11.74
				l-1.88,12.59h5.16L150.43,0C150.43,0,142.97,0,142.59,0L142.59,0z"/>
			<path class="st0" d="M92.92,13.2c0.03-0.21,0.16-0.26,0.25-0.26h10.71c1.07,0,1.82-0.57,2.04-1.97L107,3.99
				c0.07-0.48-0.17-1.55-1.47-1.55H91.88c-0.88,0-2.17,0.62-2.38,2.32l-1.96,12.56c-0.22,1.24,0.66,1.92,1.62,1.92h15.47L105.3,15
				H92.91c-0.13,0-0.26-0.12-0.23-0.29L92.92,13.2L92.92,13.2z M93.65,8.46l0.24-1.6c0.02-0.12,0.12-0.21,0.24-0.21h7.62
				c0.15,0,0.27,0.14,0.25,0.29l-0.24,1.57c-0.02,0.14-0.13,0.23-0.25,0.23H93.9C93.74,8.75,93.63,8.61,93.65,8.46L93.65,8.46z"/>
			<path class="st0" d="M113.22,6.86c0.02-0.12,0.12-0.21,0.24-0.21h11.69l0.69-4.21h-14.42c-1.59,0-2.33,1.11-2.43,1.9l-1.1,7.07
				c-0.11,0.87,0.62,1.54,1.36,1.54h10.02c0.17,0,0.27,0.15,0.25,0.28l-0.24,1.55c-0.02,0.16-0.16,0.22-0.26,0.22h-11.68l-0.67,4.25
				h14.78c1.03,0,1.86-0.64,2-1.51l1.16-7.42c0.1-0.67-0.32-1.56-1.48-1.56h-9.9c-0.15,0-0.26-0.13-0.24-0.28L113.22,6.86
				L113.22,6.86z"/>
			<path class="st0" d="M198.52,6.86c0.02-0.12,0.12-0.21,0.24-0.21h11.69l0.69-4.21h-14.41c-1.59,0-2.33,1.11-2.43,1.9l-1.1,7.07
				c-0.11,0.87,0.62,1.54,1.36,1.54h10.02c0.17,0,0.27,0.15,0.25,0.28l-0.24,1.55c-0.03,0.16-0.16,0.22-0.26,0.22h-11.68l-0.67,4.25
				h14.78c1.04,0,1.86-0.64,1.99-1.51l1.16-7.42c0.1-0.67-0.33-1.56-1.49-1.56h-9.91c-0.15,0-0.27-0.13-0.24-0.28L198.52,6.86
				L198.52,6.86z"/>
		</g>
	</g>
</g>
</svg>
