<?xml version="1.0" encoding="utf-8"?>
<!-- Generator: Adobe Illustrator 25.4.1, SVG Export Plug-In . SVG Version: 6.00 Build 0)  -->
<svg version="1.1" xmlns="http://www.w3.org/2000/svg" xmlns:xlink="http://www.w3.org/1999/xlink" x="0px" y="0px"
	 viewBox="0 0 278.4 84.7" style="enable-background:new 0 0 278.4 84.7;" xml:space="preserve">
<style type="text/css">
	.st0{display:none;}
	.st1{display:inline;}
	.st2{fill:#00A9DC;}
	.st3{fill:#191817;}
</style>
<g id="Capa_1" class="st0">
	<g class="st1">
		<g>
			<g>
				<path class="st2" d="M8.4,34.2c5.6-4.6,14.5-7,26.7-7c11.3,0,19.8,2.1,25.6,6.2c5.8,4.1,8.9,10.5,9.3,19.3H48.8
					c-0.4-2.7-1.7-4.6-3.9-6c-2.2-1.3-5.4-2-9.7-2c-5.6,0-9.4,1-11.4,3c-2,2-3,4.7-3,8.1c0,3.5,1,6.3,3,8.3c2,2,5.8,3,11.4,3
					c4.3,0,7.5-0.7,9.7-2c2.2-1.3,3.5-3.3,3.9-6.1H70c-0.4,8.8-3.5,15.2-9.3,19.4s-14.3,6.2-25.6,6.2c-12.2,0-21.1-2.3-26.7-7
					C2.8,72.9,0,65.7,0,55.8C0,46,2.8,38.8,8.4,34.2z"/>
				<path class="st2" d="M82.8,77.6c-5.6-4.7-8.4-11.9-8.4-21.8c0-9.8,2.8-17,8.4-21.7c5.6-4.6,14.5-7,26.7-7c12.1,0,21,2.3,26.7,7
					s8.5,11.9,8.5,21.6c0,9.8-2.8,17-8.5,21.8s-14.5,7.1-26.7,7.1C97.3,84.7,88.4,82.3,82.8,77.6z M120.8,64.1c2-2,3-4.8,3-8.2
					s-1-6.2-3-8.1s-5.8-3-11.4-3c-5.6,0-9.4,1-11.4,3c-2,2-2.9,4.7-2.9,8.1c0,3.5,1,6.3,3,8.3c2,2,5.8,3,11.4,3
					C115,67.1,118.8,66.1,120.8,64.1z"/>
				<path class="st2" d="M211.6,60.3c-1.8,3.2-4.2,5.7-7.3,7.5l9.9,16h-24.6L182,70.8h-12.2v13.1H149V28h43.9
					c4.1,0,7.9,0.9,11.1,2.8c3.2,1.8,5.8,4.4,7.6,7.6c1.8,3.2,2.7,6.9,2.7,11C214.3,53.4,213.4,57,211.6,60.3z M169.7,53.2h19.1
					c1.5,0,2.6-0.2,3.4-0.6c0.8-0.4,1.2-1.5,1.2-3.2c0-1.7-0.4-2.8-1.2-3.2c-0.8-0.4-1.9-0.6-3.4-0.6h-19.1V53.2z"/>
				<path class="st2" d="M240.1,44v5.2h38.3v13.6h-38.3v5.2h38.3v16h-59.1V28h59.1v16H240.1z"/>
			</g>
			<g>
				<path class="st2" d="M72.7,14.3L74.8,0h-4.9l-2.6,17c-0.1,0.8,0.5,2.3,2.1,2.3h15.8l0.7-4.3l-12.6,0
					C72.8,15,72.6,14.6,72.7,14.3L72.7,14.3z"/>
				<path class="st2" d="M161.7,14.4l1.7-12h-4.7l-2.3,15c-0.1,0.9,0.8,1.8,1.8,1.8h13.7l0.7-4.2h-10.5
					C161.9,15,161.7,14.6,161.7,14.4L161.7,14.4z"/>
				<path class="st2" d="M179.6,14.4l1.7-12h-4.7l-2.3,15c-0.1,0.9,0.8,1.8,1.8,1.8h13.7l0.7-4.2h-10.5
					C179.8,15,179.6,14.6,179.6,14.4L179.6,14.4z"/>
				<polygon class="st2" points="152,2.4 149.4,19.2 154.2,19.2 156.8,2.4 				"/>
				<path class="st2" d="M142.6,0c-0.8,0-1.1,0.6-1.1,0.6c0,0-3.7,9.4-3.7,9.5s-0.1,0.1-0.1,0.1c-0.1,0-0.1-0.1-0.1-0.1
					c0-0.1-1-9.4-1-9.4c0-0.1-0.2-0.8-0.9-0.8c-0.7,0-7.3,0-7.3,0l-3,19.2h5l1.9-12.6l1.7,11.5c0.1,1,0.8,1.1,1.1,1.1
					c0.7,0,1.7,0,2.5,0c0.4,0,0.9-0.3,1.1-0.8L144,6.7l-1.9,12.6h5.2L150.4,0C150.4,0,143,0,142.6,0L142.6,0z"/>
				<path class="st2" d="M92.9,13.2c0-0.2,0.2-0.3,0.2-0.3h10.7c1.1,0,1.8-0.6,2-2l1.1-7c0.1-0.5-0.2-1.5-1.5-1.5H91.9
					c-0.9,0-2.2,0.6-2.4,2.3l-2,12.6c-0.2,1.2,0.7,1.9,1.6,1.9h15.5l0.7-4.2H92.9c-0.1,0-0.3-0.1-0.2-0.3L92.9,13.2L92.9,13.2z
					 M93.7,8.5l0.2-1.6c0-0.1,0.1-0.2,0.2-0.2h7.6c0.2,0,0.3,0.1,0.2,0.3l-0.2,1.6c0,0.1-0.1,0.2-0.2,0.2h-7.6
					C93.7,8.8,93.6,8.6,93.7,8.5L93.7,8.5z"/>
				<path class="st2" d="M113.2,6.9c0-0.1,0.1-0.2,0.2-0.2h11.7l0.7-4.2h-14.4c-1.6,0-2.3,1.1-2.4,1.9l-1.1,7.1
					c-0.1,0.9,0.6,1.5,1.4,1.5h10c0.2,0,0.3,0.1,0.2,0.3l-0.2,1.6c0,0.2-0.2,0.2-0.3,0.2h-11.7l-0.7,4.2h14.8c1,0,1.9-0.6,2-1.5
					l1.2-7.4c0.1-0.7-0.3-1.6-1.5-1.6h-9.9c-0.2,0-0.3-0.1-0.2-0.3L113.2,6.9L113.2,6.9z"/>
				<path class="st2" d="M198.5,6.9c0-0.1,0.1-0.2,0.2-0.2h11.7l0.7-4.2h-14.4c-1.6,0-2.3,1.1-2.4,1.9l-1.1,7.1
					c-0.1,0.9,0.6,1.5,1.4,1.5h10c0.2,0,0.3,0.1,0.2,0.3l-0.2,1.6c0,0.2-0.2,0.2-0.3,0.2h-11.7l-0.7,4.2h14.8c1,0,1.9-0.6,2-1.5
					l1.2-7.4c0.1-0.7-0.3-1.6-1.5-1.6h-9.9c-0.1,0-0.3-0.1-0.2-0.3L198.5,6.9L198.5,6.9z"/>
			</g>
		</g>
	</g>
</g>
<g id="Capa_2">
	<g>
		<g>
			<path class="st3" d="M8.4,32.3c5.6-4.7,14.5-7,26.7-7c11.3,0,19.8,2.1,25.6,6.2c5.8,4.1,8.9,10.5,9.3,19.3H48.8
				c-0.4-2.7-1.7-4.6-3.9-5.9c-2.2-1.3-5.4-2-9.7-2c-5.6,0-9.4,1-11.4,3c-2,2-3,4.7-3,8.1c0,3.5,1,6.3,3,8.3c2,2,5.8,3,11.4,3
				c4.3,0,7.6-0.7,9.7-2c2.2-1.3,3.5-3.4,3.9-6.1H70c-0.4,8.8-3.5,15.2-9.3,19.4c-5.7,4.1-14.3,6.2-25.6,6.2
				c-12.2,0-21.1-2.3-26.7-7C2.8,71.1,0,63.8,0,54C0,44.2,2.8,37,8.4,32.3z"/>
			<path class="st3" d="M82.8,75.8c-5.6-4.7-8.4-11.9-8.4-21.8c0-9.8,2.8-17,8.4-21.7c5.6-4.7,14.5-7,26.7-7c12.1,0,21,2.3,26.7,7
				c5.6,4.7,8.5,11.9,8.5,21.6c0,9.8-2.8,17-8.5,21.7c-5.6,4.7-14.5,7.1-26.7,7.1C97.3,82.8,88.4,80.4,82.8,75.8z M120.8,62.2
				c2-2,3-4.8,3-8.2c0-3.5-1-6.2-3-8.1c-2-2-5.8-3-11.4-3c-5.6,0-9.4,1-11.4,3c-2,2-3,4.7-3,8.1c0,3.5,1,6.3,3,8.3c2,2,5.8,3,11.4,3
				C115,65.2,118.8,64.2,120.8,62.2z"/>
			<path class="st3" d="M211.6,58.4c-1.8,3.2-4.2,5.7-7.3,7.5l9.9,16h-24.6l-7.7-13.1h-12.2V82H149V26.1h43.9
				c4.2,0,7.8,0.9,11.1,2.8c3.2,1.8,5.8,4.4,7.6,7.6c1.8,3.2,2.7,6.9,2.7,11C214.3,51.6,213.4,55.2,211.6,58.4z M169.7,51.3h19.2
				c1.5,0,2.6-0.2,3.4-0.6c0.8-0.4,1.2-1.5,1.2-3.2c0-1.7-0.4-2.8-1.2-3.2c-0.8-0.4-1.9-0.6-3.4-0.6h-19.2V51.3z"/>
			<path class="st3" d="M240.1,42.1v5.2h38.3v13.6h-38.3V66h38.3v16h-59.1V26.1h59.1v16H240.1z"/>
		</g>
		<g>
			<path class="st3" d="M86.7,13.1l1.7-11.3h-3.9l-2.1,13.4c-0.1,0.7,0.4,1.8,1.6,1.8h12.5l0.5-3.4l-10,0
				C86.9,13.7,86.7,13.4,86.7,13.1L86.7,13.1z"/>
			<path class="st3" d="M157,13.2l1.4-9.4h-3.7l-1.8,11.8c-0.1,0.7,0.6,1.4,1.4,1.4h10.8l0.5-3.4h-8.3C157.1,13.7,157,13.4,157,13.2
				L157,13.2z"/>
			<path class="st3" d="M171.1,13.2l1.4-9.4h-3.7l-1.8,11.8c-0.1,0.7,0.6,1.4,1.4,1.4h10.8l0.5-3.4h-8.3
				C171.2,13.7,171,13.4,171.1,13.2L171.1,13.2z"/>
			<polygon class="st3" points="149.3,3.8 147.2,17 151,17 153.1,3.8 149.3,3.8 			"/>
			<path class="st3" d="M141.9,1.9c-0.6,0-0.8,0.4-0.9,0.5c0,0-2.9,7.4-2.9,7.5c0,0.1-0.1,0.1-0.1,0.1c-0.1,0-0.1,0-0.1-0.1
				c0-0.1-0.8-7.4-0.8-7.4c0-0.1-0.1-0.6-0.7-0.6c-0.6,0-5.8,0-5.8,0L128.2,17h3.9l1.5-9.9l1.3,9.1c0.1,0.8,0.7,0.9,0.9,0.9
				c0.5,0,1.4,0,2,0c0.4,0,0.7-0.2,0.9-0.7l4.4-9.3l-1.5,9.9h4.1l2.4-15.2C148.1,1.9,142.2,1.9,141.9,1.9L141.9,1.9z"/>
			<path class="st3" d="M102.7,12.3c0-0.2,0.1-0.2,0.2-0.2h8.4c0.8,0,1.4-0.4,1.6-1.6l0.9-5.5c0.1-0.4-0.1-1.2-1.2-1.2h-10.8
				c-0.7,0-1.7,0.5-1.9,1.8l-1.5,9.9c-0.2,1,0.5,1.5,1.3,1.5h12.2l0.5-3.3h-9.8c-0.1,0-0.2-0.1-0.2-0.2L102.7,12.3L102.7,12.3z
				 M103.3,8.5l0.2-1.3c0-0.1,0.1-0.2,0.2-0.2h6c0.1,0,0.2,0.1,0.2,0.2l-0.2,1.2c0,0.1-0.1,0.2-0.2,0.2h-6
				C103.4,8.8,103.3,8.7,103.3,8.5L103.3,8.5z"/>
			<path class="st3" d="M118.7,7.3c0-0.1,0.1-0.2,0.2-0.2h9.2l0.5-3.3h-11.4c-1.2,0-1.8,0.9-1.9,1.5l-0.9,5.6
				c-0.1,0.7,0.5,1.2,1.1,1.2h7.9c0.1,0,0.2,0.1,0.2,0.2l-0.2,1.2c0,0.1-0.1,0.2-0.2,0.2h-9.2l-0.5,3.3h11.7c0.8,0,1.5-0.5,1.6-1.2
				l0.9-5.9c0.1-0.5-0.3-1.2-1.2-1.2h-7.8c-0.1,0-0.2-0.1-0.2-0.2L118.7,7.3L118.7,7.3z"/>
			<path class="st3" d="M186,7.3c0-0.1,0.1-0.2,0.2-0.2h9.2l0.5-3.3h-11.4c-1.3,0-1.8,0.9-1.9,1.5l-0.9,5.6
				c-0.1,0.7,0.5,1.2,1.1,1.2h7.9c0.1,0,0.2,0.1,0.2,0.2l-0.2,1.2c0,0.1-0.1,0.2-0.2,0.2h-9.2l-0.5,3.3h11.7c0.8,0,1.5-0.5,1.6-1.2
				l0.9-5.9c0.1-0.5-0.3-1.2-1.2-1.2H186c-0.1,0-0.2-0.1-0.2-0.2L186,7.3L186,7.3z"/>
		</g>
	</g>
</g>
</svg>
