<?xml version="1.0" encoding="utf-8"?>
<!-- Generator: Adobe Illustrator 25.4.1, SVG Export Plug-In . SVG Version: 6.00 Build 0)  -->
<svg version="1.1" id="Capa_1" xmlns="http://www.w3.org/2000/svg" xmlns:xlink="http://www.w3.org/1999/xlink" x="0px" y="0px"
	 viewBox="0 0 318.2 73.8" style="enable-background:new 0 0 318.2 73.8;" xml:space="preserve">
<style type="text/css">
	.st0{fill:#09A9DD;}
	.st1{fill:#38D430;}
</style>
<g>
	<polygon class="st0" points="57.6,0 57.6,21.9 32.1,21.9 32.1,0 0,0 0,73.8 32.1,73.8 32.1,51.2 57.6,51.2 57.6,73.8 89.7,73.8 
		89.7,0 	"/>
	<rect x="117.8" y="0" class="st0" width="32.1" height="73.8"/>
	<rect x="178.2" y="0" class="st0" width="32.1" height="73.8"/>
	<polygon class="st0" points="234.6,0 234.6,29.2 260.4,29.2 260.4,73.8 292.5,73.8 292.5,29.2 318.2,29.2 318.2,0 	"/>
</g>
<g>
	<polygon class="st1" points="57.6,0.5 57.6,22.4 32.1,22.4 32.1,0.5 0,0.5 0,74.3 32.1,74.3 32.1,51.6 57.6,51.6 57.6,74.3 
		89.7,74.3 89.7,0.5 	"/>
	<rect x="117.8" y="0.5" class="st1" width="32.1" height="73.8"/>
	<rect x="178.2" y="0.5" class="st1" width="32.1" height="73.8"/>
	<polygon class="st1" points="234.6,0.5 234.6,29.7 260.4,29.7 260.4,74.3 292.5,74.3 292.5,29.7 318.2,29.7 318.2,0.5 	"/>
</g>
</svg>
