<?xml version="1.0" encoding="utf-8"?>
<!-- Generator: Adobe Illustrator 25.4.1, SVG Export Plug-In . SVG Version: 6.00 Build 0)  -->
<svg version="1.1" id="Isolation_Mode" xmlns="http://www.w3.org/2000/svg" xmlns:xlink="http://www.w3.org/1999/xlink" x="0px"
	 y="0px" viewBox="0 0 300 50" style="enable-background:new 0 0 300 50;" xml:space="preserve">
<style type="text/css">
	.st0{fill:#00A9DC;}
</style>
<path class="st0" d="M15.41,1.77v37.35h22.33v8.47H5.33V1.77H15.41z"/>
<path class="st0" d="M62.38,1.77l17.13,45.82H69.05l-3.46-10.2H48.45l-3.59,10.2H34.72L52.04,1.77H62.38z M62.95,29.88l-5.78-16.81
	h-0.13l-5.97,16.81H62.95z"/>
<path class="st0" d="M70.14,10.24V1.77h37.54v8.47H93.95v37.35H83.87V10.24H70.14z"/>
<path class="st0" d="M119.16,1.77v45.82h-10.07V1.77H119.16z"/>
<path class="st0" d="M134.18,1.77l19.12,30.74h0.13V1.77h9.43v45.82h-10.07l-19.06-30.67h-0.13v30.67h-9.43V1.77H134.18z"/>
<g>
	<g>
		<g>
			<path class="st0" d="M182.19,2.02L193,33.8h0.13l10.23-31.78h14.3v46.21h-9.51V15.48h-0.13l-11.33,32.75h-7.83L177.53,15.8h-0.13
				v32.43h-9.51V2.02H182.19z"/>
			<path class="st0" d="M232.87,2.02v46.21h-10.16V2.02H232.87z"/>
			<path class="st0" d="M234.36,2.02h11.78l9.06,14.76l9.38-14.76h11.13l-14.82,22.07l16.12,24.14h-12.1l-10.1-15.99l-10.29,15.99
				h-11.39l16.12-24.21L234.36,2.02z"/>
		</g>
		<g>
			<polygon class="st0" points="279.6,46.14 279.6,2.16 264.87,24.09 			"/>
			<rect x="282.73" y="2.26" class="st0" width="4.55" height="43.78"/>
			<rect x="290.12" y="2.26" class="st0" width="4.55" height="43.78"/>
		</g>
	</g>
</g>
</svg>
