<?xml version="1.0" encoding="utf-8"?>
<!-- Generator: Adobe Illustrator 25.4.1, SVG Export Plug-In . SVG Version: 6.00 Build 0)  -->
<svg version="1.1" id="Isolation_Mode" xmlns="http://www.w3.org/2000/svg" xmlns:xlink="http://www.w3.org/1999/xlink" x="0px"
	 y="0px" viewBox="0 0 300 50" style="enable-background:new 0 0 300 50;" xml:space="preserve">
<style type="text/css">
	.st0{fill:#00A9DC;}
	.st1{clip-path:url(#SVGID_00000008840773279383509160000016695507676526432447_);fill:#959595;}
	.st2{clip-path:url(#SVGID_00000008840773279383509160000016695507676526432447_);fill:#1D1D1B;}
	.st3{clip-path:url(#SVGID_00000008840773279383509160000016695507676526432447_);fill:#EA1B39;}
</style>
<path class="st0" d="M15.4,1.8v37.3h22.3v8.5H5.3V1.8H15.4z"/>
<path class="st0" d="M62.4,1.8l17.1,45.8H69.1l-3.5-10.2H48.5l-3.6,10.2H34.7L52,1.8H62.4z M63,29.9l-5.8-16.8H57l-6,16.8H63z"/>
<path class="st0" d="M70.1,10.2V1.8h37.5v8.5H93.9v37.3H83.9V10.2H70.1z"/>
<path class="st0" d="M119.2,1.8v45.8h-10.1V1.8H119.2z"/>
<path class="st0" d="M134.2,1.8l19.1,30.7h0.1V1.8h9.4v45.8h-10.1l-19.1-30.7h-0.1v30.7h-9.4V1.8H134.2z"/>
<g>
	<g>
		<g>
			<path class="st0" d="M182.2,2L193,33.8h0.1L203.4,2h14.3v46.2h-9.5V15.5H208l-11.3,32.8h-7.8l-11.3-32.4h-0.1v32.4h-9.5V2H182.2z
				"/>
			<path class="st0" d="M232.9,2v46.2h-10.2V2H232.9z"/>
			<path class="st0" d="M234.4,2h11.8l9.1,14.8L264.6,2h11.1l-14.8,22.1L277,48.2h-12.1l-10.1-16l-10.3,16h-11.4L249.2,24L234.4,2z"
				/>
		</g>
		<g>
			<polygon class="st0" points="279.6,46.1 279.6,2.2 264.9,24.1 			"/>
			<rect x="282.7" y="2.3" class="st0" width="4.5" height="43.8"/>
			<rect x="290.1" y="2.3" class="st0" width="4.5" height="43.8"/>
		</g>
	</g>
</g>
<g id="Vector_Smart_Object_00000077303674634312776220000009552205624050137217_">
	<g>
		<defs>
			<rect id="SVGID_1_" x="5.3" y="1.8" width="289.4" height="46.5"/>
		</defs>
		<clipPath id="SVGID_00000030459701397886460390000018158185484775314572_">
			<use xlink:href="#SVGID_1_"  style="overflow:visible;"/>
		</clipPath>
		<polygon style="clip-path:url(#SVGID_00000030459701397886460390000018158185484775314572_);fill:#959595;" points="5.3,1.8 
			5.3,47.6 37.7,47.6 37.7,39.1 15.4,39.1 15.4,1.8 		"/>
		<path style="clip-path:url(#SVGID_00000030459701397886460390000018158185484775314572_);fill:#959595;" d="M57,13.1h0.1l5.8,16.8
			H51.1L57,13.1z M52,1.8L34.7,47.6h10.1l3.6-10.2h17.1L69,47.6h10.5L62.4,1.8H52z"/>
		<polygon style="clip-path:url(#SVGID_00000030459701397886460390000018158185484775314572_);fill:#959595;" points="70.1,1.8 
			70.1,10.2 83.9,10.2 83.9,47.6 93.9,47.6 93.9,10.2 107.7,10.2 107.7,1.8 		"/>
		
			<rect x="109.1" y="1.8" style="clip-path:url(#SVGID_00000030459701397886460390000018158185484775314572_);fill:#959595;" width="10.1" height="45.8"/>
		<polygon style="clip-path:url(#SVGID_00000030459701397886460390000018158185484775314572_);fill:#959595;" points="153.4,1.8 
			153.4,32.5 153.3,32.5 134.2,1.8 124.2,1.8 124.2,47.6 133.6,47.6 133.6,16.9 133.7,16.9 152.8,47.6 162.9,47.6 162.9,1.8 		"/>
		<polygon style="clip-path:url(#SVGID_00000030459701397886460390000018158185484775314572_);fill:#1D1D1B;" points="203.4,2 
			193.1,33.8 193,33.8 182.2,2 167.9,2 167.9,48.2 177.4,48.2 177.4,15.8 177.5,15.8 188.9,48.2 196.7,48.2 208,15.5 208.1,15.5 
			208.1,48.2 217.7,48.2 217.7,2 		"/>
		
			<rect x="222.7" y="2" style="clip-path:url(#SVGID_00000030459701397886460390000018158185484775314572_);fill:#1D1D1B;" width="10.2" height="46.2"/>
		<polygon style="clip-path:url(#SVGID_00000030459701397886460390000018158185484775314572_);fill:#1D1D1B;" points="264.6,2 
			255.2,16.8 246.1,2 234.4,2 249.2,24 233.1,48.2 244.5,48.2 254.8,32.2 264.9,48.2 277,48.2 260.9,24.1 275.7,2 		"/>
		<polygon style="clip-path:url(#SVGID_00000030459701397886460390000018158185484775314572_);fill:#EA1B39;" points="264.9,24.1 
			279.6,46.1 279.6,2.2 		"/>
		
			<rect x="282.7" y="2.3" style="clip-path:url(#SVGID_00000030459701397886460390000018158185484775314572_);fill:#EA1B39;" width="4.5" height="43.8"/>
		
			<rect x="290.1" y="2.3" style="clip-path:url(#SVGID_00000030459701397886460390000018158185484775314572_);fill:#EA1B39;" width="4.5" height="43.8"/>
	</g>
</g>
</svg>
