<?xml version="1.0" encoding="utf-8"?>
<!-- Generator: Adobe Illustrator 25.4.1, SVG Export Plug-In . SVG Version: 6.00 Build 0)  -->
<svg version="1.1" xmlns="http://www.w3.org/2000/svg" xmlns:xlink="http://www.w3.org/1999/xlink" x="0px" y="0px"
	 viewBox="0 0 360.5 120.2" style="enable-background:new 0 0 360.5 120.2;" xml:space="preserve">
<style type="text/css">
	.st0{display:none;}
	.st1{display:inline;}
	.st2{fill:#00A9DC;}
	.st3{fill:#FFFFFF;}
	.st4{fill:url(#SVGID_1_);}
	.st5{fill:url(#SVGID_00000107561692542506184920000014298912352784492957_);}
	.st6{fill:url(#SVGID_00000122684544453461506440000010423782857760156805_);}
	.st7{fill:url(#SVGID_00000166640067653192380840000001395774045721175993_);}
	.st8{fill:url(#SVGID_00000006689769891943930640000002374874939111120031_);}
	.st9{fill:url(#SVGID_00000057865684655284911800000010208289482789304220_);}
	.st10{fill:url(#SVGID_00000044890378636572054670000012301854601782408331_);}
	.st11{fill:#1D1D1B;}
	.st12{fill:url(#SVGID_00000055674401506231796340000009456181550843311029_);}
	.st13{fill:url(#SVGID_00000149357970109903326880000016004192370772619444_);}
	.st14{fill:url(#SVGID_00000075135156514337857940000014535353170514599062_);}
	.st15{fill:url(#SVGID_00000165215085108630011000000011910242969005098933_);}
	.st16{fill:url(#SVGID_00000129917391068354877850000013655641059225854635_);}
	.st17{fill:url(#SVGID_00000181776345538752588400000001586940472830958490_);}
	.st18{fill:url(#SVGID_00000000185885464817027790000015492339870533771153_);}
</style>
<g id="Capa_1" class="st0">
	<g id="Capa_1_00000114055474700995570430000009286694165845638582_">
		<g class="st1">
			<g>
				<g>
					<g>
						<g>
							<path class="st2" d="M24,94.8c0.9-0.9,1.8-1.9,2.6-2.9c0.9-1,1.7-2,2.4-3.1c0.8-1.1,1.5-2.2,2.2-3.3l0.3-0.4v-0.4
								c0-1.1,0-2.3,0.1-3.5c0-1.2,0.1-2.4,0.2-3.6c0.2-2.4,0.9-4.7,2.4-6.6c0.7-0.9,1.5-1.7,2.4-2.5c0.9-0.9,1.7-2.1,2.1-3.5
								c0.4-1.3,0.4-2.9-0.1-4.2s-1.4-2.4-2.6-3L35.8,58c0.6,1.1,1,2.2,1,3.2c0.1,1-0.1,2-0.5,2.9c-0.4,0.9-1,1.8-1.6,2.7
								c-0.8,1-1.3,2.2-1.7,3.4c-0.8,2.4-1.6,4.6-2.5,6.9c-0.4,1.2-0.9,2.3-1.2,3.6C29,82,28.8,83,28.7,84.1
								C28,85,27.2,86,26.5,86.9c-0.8,1.1-1.5,2.2-2.1,3.3c-0.7,1.1-1.3,2.3-1.9,3.4c-0.6,1.2-1.2,2.4-1.6,3.6l0.2,0.2
								C22.1,96.7,23,95.7,24,94.8z"/>
							<path class="st2" d="M67.6,89.4c0.3-0.4,0.7-0.8,1-1.3s0.5-0.8,0.7-1.2c0.4-0.8,0.9-1.5,1.4-2.3l2.9-4.6l5.9-9.2
								c2.5-2.1,5-4.2,7.3-6.4l-0.2-0.2c-2.9,1.6-5.7,3.3-8.5,5.1L78,69.4l0,0.1c-2.4,2.8-4.7,5.8-6.8,8.8c-1.1,1.5-2.1,3.1-3.1,4.6
								c-0.5,0.8-1,1.6-1.4,2.4c-0.2,0.4-0.4,0.8-0.6,1.2c-0.2,0.3-0.4,0.7-0.7,1c-1,1.2-2.3,2.2-3.7,2.4c-0.7,0.1-1.3,0-1.9-0.2
								s-1.1-0.8-1.4-1.4c-0.8-1.3-1.1-3.1-1.1-4.8c0-0.4,0-0.9,0-1.3l0.1-1.4c0.1-0.9,0.1-1.9,0.2-2.8c0-0.9,0-1.9,0-2.8
								c-0.1-0.9-0.2-1.9-0.5-2.8s-1-1.8-1.7-2.4c-0.8-0.7-1.6-1.1-2.4-1.6c-0.8-0.5-1.6-0.9-2.4-1.4c-0.8-0.5-1.5-1-2.2-1.5
								c-0.6-0.5-1.2-1.2-1.4-1.7c-0.2-0.6-0.2-0.9,0.1-1.5c0.3-0.5,0.9-1.1,1.5-1.6c0.7-0.5,1.4-1,2.2-1.4c0.4-0.2,0.8-0.4,1.2-0.6
								c0.4-0.2,0.8-0.4,1.3-0.7c1-0.5,1.9-1.5,2.3-2.6c0.4-1.2,0.2-2.3,0-3.3c-0.3-1-0.8-1.9-1.2-2.7c-1-1.6-2.3-3.1-3.7-4.3
								l-0.2,0.2c1,1.5,2,3.1,2.6,4.8c0.3,0.8,0.6,1.7,0.7,2.5s0.1,1.6-0.2,2.1c-0.3,0.6-0.7,1-1.4,1.3c-0.3,0.1-0.8,0.3-1.2,0.5
								s-0.9,0.4-1.3,0.6c-0.9,0.4-1.7,0.9-2.5,1.5S45.6,59.9,45,61c-0.3,0.5-0.5,1.2-0.5,1.9s0.2,1.4,0.5,1.9
								c0.7,1.1,1.5,1.7,2.3,2.3c1.7,1.1,3.5,1.7,5.2,2.4c0.8,0.3,1.7,0.7,2.3,1.2c0.7,0.5,1.2,1.2,1.5,2c0.6,1.6,0.5,3.5,0.3,5.3
								c-0.1,0.9-0.3,1.8-0.4,2.7l-0.3,1.4c-0.1,0.5-0.2,0.9-0.2,1.4c-0.2,1.9-0.2,4,0.7,6c0.5,1,1.2,2,2.3,2.6
								c1,0.6,2.3,0.8,3.5,0.7C64.3,92.3,66.2,91,67.6,89.4z"/>
							<path class="st2" d="M116.6,34.4c1.2-1.6,2.3-3.6,2.6-5.8c0.2-1.1,0.1-2.3-0.2-3.5c-0.1-0.6-0.3-1.1-0.6-1.6
								c-0.1-0.3-0.3-0.5-0.4-0.8c-0.2-0.3-0.3-0.5-0.6-0.8l-0.9-1.1l-1,0.9c-0.8,0.7-1.2,1.4-1.7,2c-0.5,0.7-0.9,1.4-1.3,2.1
								c-0.8,1.4-1.6,2.8-2.4,4.2s-1.7,2.8-2.6,4.1s-1.9,2.6-3,3.8c-1,1.2-2.1,2.5-3,3.8s-1.7,2.7-2.5,4.1c-1.6,2.8-3.1,5.7-4.2,8.8
								l0.2,0.2c2.2-2.4,4.2-5,6-7.6c0.9-1.3,1.8-2.7,2.6-4s1.5-2.8,2.2-4.3s1.4-2.9,2.3-4.2s1.8-2.7,2.8-3.9c1-1.3,2.1-2.5,3.1-3.6
								l1.6-1.8c0.1-0.1,0.2-0.2,0.2-0.3c0.1,0.2,0.1,0.5,0.2,0.7c0.1,0.8,0.1,1.6,0,2.4c-0.3,1.6-1,3.2-2,4.7l-0.2,0.3v0.1
								c-0.3,1.2-0.4,2.3-0.5,3.4c0,1.1,0.1,2.3,0.4,3.4c0.2,0.6,0.4,1.1,0.7,1.6c0.2,0.4,0.4,0.8,0.4,1c0,0.1,0,0.1-0.1,0.2
								c-0.1,0.1-0.3,0.1-0.6,0.2c-0.5,0.1-1,0-1.5,0l-0.1,0.3c0.5,0.3,1,0.5,1.6,0.6c0.3,0,0.6,0.1,1,0s0.8-0.4,1-0.8
								c0.2-0.4,0.1-0.8,0.1-1.1c0-0.2-0.1-0.3-0.1-0.5s-0.1-0.3-0.1-0.4c-0.1-0.5-0.2-0.9-0.3-1.4c-0.1-0.9,0-1.9,0.2-2.8
								C116.1,36,116.3,35.2,116.6,34.4z"/>
							<path class="st2" d="M106,49.4c-1.3,6.5-4.4,12.2-7.9,17.7c-1.7,2.8-3.5,5.6-5.7,8c-1.1,1.2-2.3,2.3-3.6,3.4
								c-0.4,0.4-0.6,0.7-0.9,1s-0.6,0.7-0.8,1c-0.5,0.7-1,1.4-1.5,2.1c-0.9,1.4-1.8,2.9-2.5,4.4s-1.3,3.1-1.9,4.7s-1,3.2-1.4,4.9
								c-0.2,0.8-0.4,1.7-0.6,2.5c-0.1,0.4-0.2,0.8-0.2,1.2c-0.1,0.4-0.2,0.8-0.3,1.1c-0.8,3-2.1,5.8-4.4,7.7
								c-2.3,1.9-5.5,2.9-8.8,2.8l-0.1,0.3c3.2,1.1,7.1,0.8,10.2-1.2c0.8-0.5,1.5-1.1,2.2-1.7c0.6-0.7,1.2-1.4,1.7-2.1
								c1-1.5,1.7-3.2,2.2-4.9c0.1-0.4,0.2-0.8,0.3-1.3c0.1-0.5,0.2-0.8,0.3-1.3l0.5-2.4c0.3-1.6,0.7-3.2,1.1-4.8
								c0.4-1.6,0.9-3.1,1.4-4.7c0.5-1.5,1.1-3.1,1.7-4.6c0.3-0.7,0.7-1.5,1.1-2.2c0.2-0.3,0.4-0.7,0.6-1s0.5-0.7,0.7-0.9l3.6-3.5
								c2.4-2.3,4.9-4.6,7.1-7.3c1.1-1.3,2-2.8,2.8-4.3s1.5-3.1,2.1-4.7c0.3-0.8,0.5-1.6,0.7-2.5c0.2-0.8,0.4-1.7,0.5-2.5
								c0.2-1.7,0.4-3.4,0.1-5.1L106,49.4z"/>
							<path class="st2" d="M54.4,105.8c-1.9-2.3-3.8-4.7-5.4-7.2c-1.6-2.5-3.2-5.1-4.5-7.8c-0.6-1.3-1.3-2.7-1.8-4.1
								s-1.1-2.8-1.5-4.2L41.1,82l-0.4,0.2c-0.4,0.2-0.6,0.5-0.9,0.8c-0.3,0.3-0.5,0.5-0.8,0.8c-0.5,0.5-1,1.1-1.5,1.7
								c-1,1.1-1.9,2.2-2.8,3.4c-1.9,2.2-3.7,4.6-5.5,6.8c-1.8,2.2-3.7,4.4-5.6,6.6s-3.8,4.4-5.8,6.5l0.1,0.1
								c2.3-1.8,4.5-3.8,6.5-5.9s4-4.3,5.7-6.6c1.8-2.4,3.2-4.9,4.9-7.2c0.9-1.2,1.8-2.3,2.8-3.4c0.5-0.5,1-1.1,1.5-1.6
								c0.3-0.2,0.5-0.5,0.8-0.7c0.1-0.1,0.3-0.2,0.4-0.3c0.6,2.8,1.5,5.6,2.6,8.2c1.2,2.8,2.7,5.5,4.4,8.1c3.4,5.1,7.8,9.6,12.9,13
								l0.1-0.1C58.5,110.2,56.4,108.1,54.4,105.8z"/>
							<path class="st2" d="M13.7,105.4c-1.2,1-2.6,1.9-3.9,2.6c-1.4,0.7-2.9,1.3-4.4,1.7c-1.5,0.3-3.2,0.4-4.7-0.1L0,109.5l0.4,0.5
								c0.5,0.6,1.1,1.2,1.7,1.7s1.4,0.8,2.1,1.1s1.6,0.4,2.3,0.4c0.8,0,1.6-0.1,2.3-0.3v-0.1c-1.5,0.1-3.1-0.1-4.5-0.6
								c-0.7-0.2-1.4-0.6-2-1c-0.5-0.3-0.9-0.6-1.3-1c1.4,0.2,2.8,0.2,4.3,0c1.6-0.2,3.2-0.7,4.7-1.4c1.5-0.7,2.9-1.7,4.1-2.8
								c1.2-1.1,2.3-2.3,3.2-3.7h-0.1C16.1,103.3,14.9,104.4,13.7,105.4z"/>
						</g>
						<path class="st2" d="M146.4,38.8c1-4.1,1.2-8.3,0.6-12.4c-0.6-4.1-2.1-8.1-4.3-11.6s-5.1-6.5-8.4-8.9
							c-6.7-4.8-15.1-6.7-23.1-5.7c-2,0.2-4,0.7-5.9,1.3s-3.8,1.4-5.6,2.4c-3.6,1.9-6.8,4.6-9.4,7.9c-2.6,3.2-4.4,7.1-5.4,11.1
							s-1.1,8.3-0.3,12.3c0.7,3.8,2.2,7.4,4.1,10.7c0.2-0.1,0.5-0.2,0.8-0.3c-1.7-3.3-2.7-7-3.1-10.6c-0.7-7.7,1.4-15.5,5.9-21.7
							c2.2-3.1,5-5.9,8.3-7.9c1.6-1,3.4-1.9,5.2-2.6c1.8-0.7,3.7-1.2,5.7-1.5c3.9-0.6,7.9-0.4,11.7,0.7c3.8,1,7.3,2.9,10.3,5.3
							c6.1,4.9,10,12.1,10.9,19.6c1,7.6-1.2,15.4-5.7,21.4c-4.5,6.2-11.4,10.3-18.9,11.8c-1.4,0.3-2.9,0.5-4.4,0.5
							c-0.1,0.5-0.3,0.9-0.4,1.3c0,0,0,0.1-0.1,0.1c1.7,0.1,3.4,0.1,5.2,0c4.1-0.4,8.2-1.6,11.8-3.7c3.6-2,6.8-4.9,9.4-8.2
							C143.5,46.7,145.4,42.9,146.4,38.8z"/>
					</g>
				</g>
				<g>
					<path class="st2" d="M138.1,96.3c-3,2.5-7.4,3.8-13,3.8h-10.8v18.7h-10.8v-52h22.3c5.1,0,9.2,1.3,12.3,4s4.6,6.8,4.6,12.4
						C142.7,89.5,141.2,93.8,138.1,96.3z M129.9,77.6c-1.4-1.2-3.3-1.7-5.8-1.7h-9.8v15.3h9.8c2.5,0,4.4-0.6,5.8-1.9
						c1.4-1.2,2.1-3.2,2.1-5.9C131.9,80.7,131.2,78.8,129.9,77.6z"/>
					<path class="st2" d="M155.5,118.8h-10.8v-52h10.8V118.8z"/>
					<path class="st2" d="M159.9,66.9h10.9v42.6h25.9v9.3h-36.8L159.9,66.9L159.9,66.9z"/>
					<path class="st2" d="M213.1,66.9h12.3l18.4,52H232l-3.4-10.7h-19.1l-3.5,10.7h-11.4L213.1,66.9z M212.4,99.2h13.3l-6.6-20.4
						L212.4,99.2z"/>
					<path class="st2" d="M277,66.9v9.2h-15.5v42.8h-10.9V76.1H235v-9.2H277z"/>
					<path class="st2" d="M316,76.1h-27.5v11h25.2v9h-25.2v13.4h28.8v9.3h-39.4V66.9H316V76.1L316,76.1z"/>
					<path class="st2" d="M327.8,102.8c0.3,2.4,1,4.2,2,5.3c1.8,2.1,4.9,3.2,9.2,3.2c2.6,0,4.7-0.3,6.4-0.8c3.1-1.1,4.6-3.1,4.6-6
						c0-1.7-0.8-3-2.3-4c-1.5-0.9-3.9-1.7-7.2-2.4l-5.6-1.2c-5.5-1.2-9.3-2.6-11.4-4c-3.5-2.4-5.2-6.2-5.2-11.2
						c0-4.7,1.7-8.5,5.1-11.6s8.5-4.6,15.1-4.6c5.5,0,10.3,1.4,14.2,4.3s6,7.1,6.2,12.6h-10.4c-0.2-3.1-1.6-5.3-4.2-6.7
						c-1.7-0.9-3.9-1.3-6.5-1.3c-2.9,0-5.2,0.6-6.9,1.7c-1.7,1.1-2.6,2.7-2.6,4.7c0,1.9,0.8,3.2,2.5,4.2c1.1,0.6,3.4,1.3,6.9,2.2
						l9.1,2.2c4,0.9,7,2.2,9,3.8c3.1,2.4,4.6,6,4.6,10.6c0,4.8-1.8,8.7-5.5,11.8c-3.7,3.1-8.9,4.7-15.5,4.7
						c-6.8,0-12.2-1.5-16.1-4.6s-5.9-7.3-5.9-12.7L327.8,102.8L327.8,102.8z"/>
				</g>
			</g>
		</g>
	</g>
	<g id="Capa_2_00000045605799898576661440000015628738330735545477_" class="st1">
		<g>
			<g>
				<path class="st3" d="M123.2,68.7c2.9,0,5.4,0.4,7.5,1.3s3.7,2,5,3.4s2.2,3,2.8,4.8s0.9,3.7,0.9,5.6s-0.3,3.7-0.9,5.6
					c-0.6,1.8-1.5,3.4-2.8,4.8s-3,2.5-5,3.4c-2.1,0.9-4.6,1.3-7.5,1.3h-10.9v16.9H102v-47h21.2V68.7z M120.4,90.9
					c1.2,0,2.3-0.1,3.4-0.3c1.1-0.2,2.1-0.5,2.9-1s1.5-1.2,2-2.1s0.8-2.1,0.8-3.6s-0.3-2.7-0.8-3.6s-1.2-1.6-2-2.1s-1.8-0.8-2.9-1
					s-2.2-0.3-3.4-0.3h-8V91L120.4,90.9L120.4,90.9z"/>
				<path class="st3" d="M136.2,68.7h11.6l11,18.6l10.9-18.6h11.5l-17.5,29v18h-10.3V97.5L136.2,68.7z"/>
				<path class="st3" d="M191,68.7V107h22.9v8.7h-33.3v-47H191z"/>
				<path class="st3" d="M238.5,68.7l17.6,47h-10.7l-3.6-10.5h-17.6l-3.7,10.5h-10.4l17.8-47H238.5z M239.1,97.6l-5.9-17.3H233
					l-6.1,17.3C226.9,97.6,239.1,97.6,239.1,97.6z"/>
				<path class="st3" d="M245.8,77.4v-8.7h38.5v8.7h-14.1v38.3h-10.3V77.4H245.8z"/>
				<path class="st3" d="M320.3,68.7v8.7h-24.8v10.1h22.8v8h-22.8V107h25.4v8.7h-35.7v-47C285.2,68.7,320.3,68.7,320.3,68.7z"/>
				<path class="st3" d="M331.1,104.2c0.6,1.1,1.3,2,2.3,2.7c0.9,0.7,2.1,1.2,3.3,1.5c1.3,0.3,2.6,0.5,4,0.5c0.9,0,1.9-0.1,3-0.2
					c1.1-0.2,2-0.4,3-0.9c0.9-0.4,1.7-1,2.3-1.8c0.6-0.8,0.9-1.7,0.9-2.9c0-1.3-0.4-2.3-1.2-3.1c-0.8-0.8-1.9-1.4-3.2-2
					s-2.8-1-4.5-1.4s-3.4-0.8-5.1-1.3c-1.8-0.4-3.5-1-5.1-1.6c-1.7-0.6-3.2-1.5-4.5-2.5s-2.4-2.3-3.2-3.8c-0.8-1.5-1.2-3.3-1.2-5.5
					c0-2.4,0.5-4.5,1.5-6.3s2.4-3.3,4-4.4c1.7-1.2,3.6-2.1,5.7-2.6c2.1-0.6,4.2-0.9,6.3-0.9c2.5,0,4.8,0.3,7.1,0.8
					c2.3,0.5,4.3,1.4,6,2.7c1.8,1.2,3.2,2.8,4.2,4.7c1,1.9,1.5,4.2,1.5,6.9h-10c-0.1-1.4-0.4-2.6-0.9-3.5s-1.2-1.6-2-2.2
					c-0.8-0.5-1.8-0.9-2.9-1.1s-2.3-0.3-3.5-0.3c-0.8,0-1.7,0.1-2.5,0.3c-0.8,0.2-1.6,0.5-2.3,0.9c-0.7,0.4-1.2,1-1.7,1.6
					c-0.4,0.7-0.7,1.5-0.7,2.5c0,0.9,0.2,1.7,0.5,2.2c0.4,0.6,1,1.1,2.1,1.6c1,0.5,2.5,1,4.3,1.4c1.8,0.5,4.2,1.1,7.1,1.8
					c0.9,0.2,2.1,0.5,3.7,1s3.1,1.2,4.6,2.2s2.9,2.4,4,4.1s1.7,3.9,1.7,6.5c0,2.2-0.4,4.1-1.3,6c-0.8,1.8-2.1,3.4-3.7,4.8
					c-1.6,1.3-3.7,2.4-6.1,3.1s-5.3,1.1-8.5,1.1c-2.6,0-5.1-0.3-7.5-1c-2.4-0.6-4.6-1.6-6.5-3s-3.3-3.1-4.4-5.2s-1.6-4.6-1.6-7.5h10
					C330.2,101.7,330.5,103.1,331.1,104.2z"/>
			</g>
			<g>
				<g>
					
						<linearGradient id="SVGID_1_" gradientUnits="userSpaceOnUse" x1="29.7943" y1="12.2599" x2="29.7943" y2="86.0233" gradientTransform="matrix(1 0 0 -1 0 119.8898)">
						<stop  offset="0" style="stop-color:#EC6892"/>
						<stop  offset="1" style="stop-color:#F08EA7"/>
					</linearGradient>
					<path class="st4" d="M24,95.6c0.9-0.9,1.8-1.9,2.6-2.9c0.8-1,1.6-2,2.4-3s1.4-2.1,2.1-3.2l0.3-0.4v-0.4c0-1.1,0-2.2,0.1-3.4
						c0.1-1.1,0.1-2.3,0.2-3.5c0.2-2.3,0.9-4.6,2.4-6.4c0.7-0.9,1.5-1.7,2.3-2.4c0.9-0.9,1.6-2.1,2-3.4s0.4-2.8-0.1-4.1
						s-1.4-2.3-2.5-2.9L35.5,60c0.6,1,0.9,2.1,1,3.1S36.4,65,36,65.9s-1,1.7-1.6,2.6c-0.7,1-1.3,2.2-1.7,3.3
						c-0.8,2.3-1.6,4.5-2.5,6.8c-0.4,1.1-0.8,2.3-1.1,3.5c-0.2,1-0.4,2-0.5,3.1c-0.7,0.9-1.5,1.8-2.1,2.8c-0.7,1-1.4,2.1-2.1,3.2
						s-1.3,2.2-1.9,3.4c-0.6,1.1-1.1,2.3-1.6,3.5l0.2,0.2C22.2,97.5,23.1,96.6,24,95.6z"/>
					
						<linearGradient id="SVGID_00000178172650338721015070000016100423356117866414_" gradientUnits="userSpaceOnUse" x1="64.6" y1="12.2607" x2="64.6" y2="86.0226" gradientTransform="matrix(1 0 0 -1 0 119.8898)">
						<stop  offset="0" style="stop-color:#EC6892"/>
						<stop  offset="1" style="stop-color:#F08EA7"/>
					</linearGradient>
					<path style="fill:url(#SVGID_00000178172650338721015070000016100423356117866414_);" d="M66.5,90.4c0.3-0.4,0.7-0.8,0.9-1.2
						c0.3-0.5,0.5-0.8,0.7-1.2c0.4-0.8,0.9-1.5,1.4-2.3l2.9-4.5l5.8-8.9c2.4-2,4.8-4.1,7.1-6.2l-0.2-0.2c-2.8,1.6-5.6,3.3-8.3,5
						h-0.1l0,0.1c-2.3,2.8-4.5,5.6-6.7,8.5c-1.1,1.5-2.1,3-3,4.5c-0.5,0.8-0.9,1.6-1.4,2.4c-0.2,0.4-0.4,0.8-0.6,1.1
						c-0.2,0.3-0.4,0.6-0.6,0.9c-0.9,1.2-2.2,2.1-3.6,2.3c-0.7,0.1-1.3,0-1.8-0.2c-0.6-0.3-1-0.7-1.4-1.4c-0.7-1.3-1-3-1-4.7
						c0-0.4,0-0.9,0-1.3l0.1-1.3c0.1-0.9,0.1-1.8,0.2-2.7c0-0.9,0-1.8,0-2.8c-0.1-0.9-0.2-1.9-0.5-2.8s-0.9-1.7-1.7-2.4
						c-0.7-0.6-1.6-1.1-2.3-1.6c-0.8-0.5-1.6-0.9-2.3-1.4s-1.5-1-2.1-1.5s-1.2-1.1-1.4-1.7s-0.2-0.9,0.1-1.4s0.9-1,1.5-1.5
						s1.4-0.9,2.1-1.3c0.4-0.2,0.8-0.4,1.1-0.6c0.4-0.2,0.7-0.4,1.3-0.6c0.9-0.5,1.9-1.4,2.2-2.6c0.4-1.1,0.2-2.3,0-3.2
						c-0.3-1-0.7-1.8-1.2-2.6c-1-1.6-2.2-3-3.6-4.2l-0.2,0.2c1,1.5,1.9,3,2.6,4.6c0.3,0.8,0.6,1.6,0.7,2.4c0.1,0.8,0.1,1.5-0.2,2.1
						c-0.2,0.6-0.7,1-1.4,1.3c-0.3,0.1-0.8,0.3-1.2,0.5s-0.8,0.4-1.3,0.6c-0.8,0.4-1.7,0.9-2.5,1.5s-1.6,1.3-2.2,2.3
						c-0.3,0.5-0.5,1.2-0.5,1.9c0,0.7,0.2,1.3,0.5,1.9c0.6,1,1.5,1.7,2.3,2.2c1.7,1,3.4,1.6,5,2.4c0.8,0.3,1.6,0.7,2.3,1.2
						s1.2,1.1,1.5,1.9c0.6,1.6,0.5,3.4,0.3,5.1c-0.1,0.9-0.3,1.8-0.4,2.6L55,83.1c-0.1,0.5-0.2,0.9-0.2,1.4
						c-0.2,1.9-0.2,3.9,0.6,5.8c0.4,1,1.2,1.9,2.2,2.5s2.3,0.8,3.4,0.7C63.3,93.2,65.2,92,66.5,90.4z"/>
					
						<linearGradient id="SVGID_00000066512797361336724410000013141296503245093550_" gradientUnits="userSpaceOnUse" x1="104.802" y1="12.2629" x2="104.802" y2="86.0217" gradientTransform="matrix(1 0 0 -1 0 119.8898)">
						<stop  offset="0" style="stop-color:#EC6892"/>
						<stop  offset="1" style="stop-color:#F08EA7"/>
					</linearGradient>
					<path style="fill:url(#SVGID_00000066512797361336724410000013141296503245093550_);" d="M114.2,36.8c1.2-1.6,2.2-3.5,2.5-5.6
						c0.2-1.1,0.1-2.3-0.2-3.4c-0.1-0.6-0.3-1.1-0.6-1.6c-0.1-0.3-0.3-0.5-0.4-0.8c-0.2-0.3-0.3-0.5-0.6-0.8l-0.9-1.1l-1,0.9
						c-0.8,0.7-1.2,1.3-1.7,2s-0.9,1.3-1.3,2c-0.8,1.4-1.6,2.8-2.4,4.1c-0.8,1.4-1.6,2.7-2.5,4s-1.9,2.5-2.9,3.7s-2,2.4-2.9,3.7
						s-1.7,2.7-2.5,4c-1.5,2.7-3,5.5-4,8.6l0.2,0.1c2.2-2.3,4.1-4.9,5.8-7.4c0.9-1.3,1.8-2.6,2.5-3.9c0.8-1.4,1.5-2.8,2.2-4.2
						s1.4-2.8,2.2-4.1c0.8-1.3,1.7-2.6,2.7-3.8s2-2.4,3.1-3.6l1.6-1.7c0.1-0.1,0.2-0.2,0.2-0.3c0.1,0.2,0.1,0.5,0.2,0.7
						c0.1,0.8,0.1,1.6,0,2.3c-0.3,1.6-1,3.1-1.9,4.6l-0.2,0.3v0.1c-0.3,1.2-0.4,2.2-0.5,3.3c0,1.1,0.1,2.2,0.4,3.3
						c0.2,0.5,0.4,1.1,0.7,1.6c0.2,0.4,0.4,0.8,0.4,1c0,0.1,0,0.1-0.1,0.2c-0.1,0.1-0.3,0.1-0.6,0.2c-0.4,0.1-1,0-1.5,0l-0.1,0.3
						c0.5,0.3,1,0.5,1.5,0.6c0.3,0.1,0.6,0.1,0.9,0c0.4-0.1,0.8-0.4,0.9-0.8c0.2-0.4,0.1-0.8,0.1-1.1c0-0.2-0.1-0.3-0.1-0.5
						c0-0.1-0.1-0.3-0.1-0.4c-0.1-0.5-0.2-0.9-0.2-1.3c-0.1-0.9,0-1.8,0.1-2.7C113.7,38.4,113.9,37.6,114.2,36.8z"/>
					
						<linearGradient id="SVGID_00000101782619383381080870000007632746386762229670_" gradientUnits="userSpaceOnUse" x1="84.4265" y1="12.2601" x2="84.4265" y2="86.0211" gradientTransform="matrix(1 0 0 -1 0 119.8898)">
						<stop  offset="0" style="stop-color:#EC6892"/>
						<stop  offset="1" style="stop-color:#F08EA7"/>
					</linearGradient>
					<path style="fill:url(#SVGID_00000101782619383381080870000007632746386762229670_);" d="M103.9,51.4
						c-1.3,6.3-4.3,11.9-7.7,17.2c-1.6,2.7-3.4,5.4-5.6,7.8c-1.1,1.2-2.3,2.3-3.5,3.3c-0.4,0.3-0.6,0.6-0.9,1
						c-0.3,0.3-0.5,0.6-0.8,1c-0.5,0.7-1,1.3-1.4,2c-0.9,1.4-1.7,2.8-2.4,4.3c-0.7,1.5-1.3,3-1.8,4.6s-1,3.2-1.4,4.8
						c-0.2,0.8-0.4,1.6-0.5,2.4c-0.1,0.4-0.2,0.8-0.2,1.2c-0.1,0.4-0.2,0.7-0.3,1.1c-0.8,2.9-2.1,5.6-4.3,7.5
						c-2.2,1.9-5.4,2.8-8.6,2.7l-0.1,0.3c3.1,1.1,6.9,0.8,9.9-1.2c0.8-0.5,1.5-1,2.1-1.7c0.6-0.6,1.2-1.3,1.7-2.1
						c1-1.5,1.7-3.1,2.2-4.8c0.1-0.4,0.2-0.8,0.3-1.3c0.1-0.4,0.2-0.8,0.3-1.2l0.4-2.3c0.3-1.6,0.7-3.1,1.1-4.6s0.9-3,1.4-4.5
						s1-3,1.7-4.4c0.3-0.7,0.7-1.4,1.1-2.1c0.2-0.3,0.4-0.7,0.6-1s0.5-0.7,0.7-0.9l3.5-3.4c2.3-2.3,4.8-4.5,6.9-7.1
						c1-1.3,1.9-2.7,2.7-4.2c0.8-1.5,1.5-3,2-4.6c0.3-0.8,0.5-1.6,0.7-2.4c0.2-0.8,0.4-1.6,0.5-2.4c0.2-1.6,0.4-3.3,0.1-5
						L103.9,51.4z"/>
					
						<linearGradient id="SVGID_00000033357086364770423590000017665958808316218526_" gradientUnits="userSpaceOnUse" x1="39.15" y1="12.2611" x2="39.15" y2="86.0197" gradientTransform="matrix(1 0 0 -1 0 119.8898)">
						<stop  offset="0" style="stop-color:#EC6892"/>
						<stop  offset="1" style="stop-color:#F08EA7"/>
					</linearGradient>
					<path style="fill:url(#SVGID_00000033357086364770423590000017665958808316218526_);" d="M53.7,106.3c-1.9-2.2-3.7-4.6-5.2-7
						c-1.6-2.4-3.1-4.9-4.3-7.6c-0.6-1.3-1.2-2.6-1.8-4c-0.5-1.4-1.1-2.7-1.4-4.1l-0.1-0.5l-0.4,0.2c-0.4,0.2-0.6,0.5-0.9,0.7
						c-0.3,0.3-0.5,0.5-0.8,0.8c-0.5,0.5-1,1.1-1.4,1.6c-0.9,1.1-1.8,2.2-2.7,3.3c-1.8,2.2-3.6,4.4-5.4,6.6s-3.6,4.3-5.4,6.5
						c-1.9,2.1-3.7,4.2-5.6,6.4l0.1,0.1c2.3-1.7,4.3-3.7,6.3-5.7s3.9-4.2,5.6-6.5s3.1-4.8,4.8-7c0.8-1.1,1.7-2.2,2.7-3.3
						c0.5-0.5,1-1,1.5-1.5c0.3-0.2,0.5-0.5,0.8-0.7c0.1-0.1,0.3-0.2,0.4-0.3c0.6,2.8,1.4,5.4,2.6,8c1.2,2.7,2.6,5.4,4.3,7.9
						c3.4,5,7.6,9.3,12.5,12.6l0.1-0.1C57.6,110.7,55.6,108.6,53.7,106.3z"/>
					
						<linearGradient id="SVGID_00000056407490432464580460000010335323455320379789_" gradientUnits="userSpaceOnUse" x1="9.2" y1="12.2603" x2="9.2" y2="86.0201" gradientTransform="matrix(1 0 0 -1 0 119.8898)">
						<stop  offset="0" style="stop-color:#EC6892"/>
						<stop  offset="1" style="stop-color:#F08EA7"/>
					</linearGradient>
					<path style="fill:url(#SVGID_00000056407490432464580460000010335323455320379789_);" d="M14,106c-1.2,1-2.5,1.8-3.8,2.6
						c-1.4,0.7-2.8,1.3-4.3,1.6c-1.5,0.3-3.1,0.4-4.6-0.1l-0.6-0.2l0.4,0.5c0.5,0.6,1,1.1,1.7,1.6c0.6,0.5,1.3,0.8,2.1,1
						c0.7,0.2,1.5,0.4,2.3,0.4s1.5-0.1,2.3-0.3V113c-1.5,0.1-3-0.1-4.3-0.6c-0.7-0.2-1.3-0.6-1.9-1c-0.5-0.3-0.9-0.6-1.3-1
						c1.4,0.2,2.8,0.2,4.1,0c1.6-0.2,3.1-0.7,4.6-1.4c1.4-0.7,2.8-1.6,3.9-2.7c1.2-1.1,2.2-2.3,3.1-3.6h-0.1
						C16.4,103.9,15.2,105,14,106z"/>
				</g>
				
					<linearGradient id="SVGID_00000019668387801031961970000004473273258793762196_" gradientUnits="userSpaceOnUse" x1="113.119" y1="12.2608" x2="113.119" y2="86.0213" gradientTransform="matrix(1 0 0 -1 0 119.8898)">
					<stop  offset="0" style="stop-color:#EC6892"/>
					<stop  offset="1" style="stop-color:#F08EA7"/>
				</linearGradient>
				<path style="fill:url(#SVGID_00000019668387801031961970000004473273258793762196_);" d="M143.2,41.2c1-4,1.1-8.1,0.5-12.1
					s-2-7.9-4.2-11.3c-2.1-3.4-5-6.4-8.2-8.6c-6.5-4.6-14.7-6.5-22.5-5.5c-2,0.2-3.9,0.7-5.8,1.3s-3.7,1.4-5.5,2.3
					c-3.5,1.9-6.6,4.5-9.2,7.7c-2.5,3.2-4.3,6.9-5.3,10.8s-1.1,8-0.3,12c0.7,3.7,2.1,7.2,4,10.4c0.2-0.1,0.5-0.2,0.7-0.3
					c-1.7-3.2-2.6-6.8-3-10.4c-0.4-7.6,1.6-15.1,6-21.2c2.1-3,4.9-5.7,8.1-7.7c1.6-1,3.3-1.9,5.1-2.6c1.8-0.7,3.6-1.2,5.5-1.5
					c3.8-0.6,7.7-0.4,11.3,0.7c3.7,1,7.1,2.8,10.1,5.2c5.9,4.8,9.7,11.7,10.7,19.1s-1.1,15-5.5,20.8c-4.4,6-11.1,10.1-18.5,11.5
					c-1.4,0.3-2.8,0.4-4.3,0.5c-0.1,0.4-0.3,0.9-0.4,1.3v0.1c1.7,0.1,3.3,0.1,5,0c4-0.4,7.9-1.6,11.5-3.6c3.5-2,6.7-4.8,9.1-8
					C140.4,48.8,142.2,45.1,143.2,41.2z"/>
			</g>
		</g>
	</g>
</g>
<g id="Capa_2">
	<g>
		<g>
			<path class="st11" d="M123.6,69.4c2.9,0,5.4,0.4,7.5,1.3c2.1,0.9,3.7,2,5,3.4c1.3,1.4,2.2,3,2.8,4.8c0.6,1.8,0.9,3.7,0.9,5.6
				c0,1.9-0.3,3.7-0.9,5.6c-0.6,1.8-1.5,3.4-2.8,4.8c-1.3,1.4-3,2.5-5,3.4c-2.1,0.9-4.6,1.3-7.5,1.3h-10.8v16.8h-10.3V69.4H123.6z
				 M120.7,91.5c1.2,0,2.3-0.1,3.4-0.3c1.1-0.2,2.1-0.5,2.9-1c0.8-0.5,1.5-1.2,2-2.1c0.5-0.9,0.8-2.1,0.8-3.6c0-1.5-0.3-2.7-0.8-3.6
				c-0.5-0.9-1.2-1.6-2-2.1c-0.8-0.5-1.8-0.8-2.9-1c-1.1-0.2-2.2-0.3-3.4-0.3h-8v14.1H120.7z"/>
			<path class="st11" d="M136.6,69.4h11.6l11,18.5L170,69.4h11.5l-17.4,28.9v18h-10.3V98L136.6,69.4z"/>
			<path class="st11" d="M191.2,69.4v38.2h22.9v8.7h-33.2V69.4H191.2z"/>
			<path class="st11" d="M238.6,69.4l17.5,46.9h-10.7l-3.5-10.5h-17.5l-3.7,10.5h-10.4l17.7-46.9H238.6z M239.2,98.2l-5.9-17.2h-0.1
				l-6.1,17.2H239.2z"/>
			<path class="st11" d="M245.9,78v-8.7h38.4V78h-14.1v38.3H260V78H245.9z"/>
			<path class="st11" d="M320.3,69.4V78h-24.8v10.1h22.7v8h-22.7v11.5h25.3v8.7h-35.6V69.4H320.3z"/>
			<path class="st11" d="M331,104.7c0.6,1.1,1.3,2,2.3,2.7c0.9,0.7,2,1.2,3.3,1.5c1.3,0.3,2.6,0.5,3.9,0.5c0.9,0,1.9-0.1,3-0.2
				c1.1-0.2,2-0.4,3-0.9c0.9-0.4,1.7-1,2.3-1.8c0.6-0.8,0.9-1.7,0.9-2.9c0-1.3-0.4-2.3-1.2-3.1c-0.8-0.8-1.9-1.4-3.2-2
				c-1.3-0.5-2.8-1-4.5-1.4c-1.7-0.4-3.4-0.8-5.1-1.3c-1.8-0.4-3.5-1-5.1-1.6c-1.7-0.6-3.2-1.5-4.5-2.5c-1.3-1-2.4-2.3-3.2-3.8
				c-0.8-1.5-1.2-3.3-1.2-5.5c0-2.4,0.5-4.5,1.5-6.3c1-1.8,2.4-3.3,4-4.4c1.7-1.2,3.5-2.1,5.7-2.6c2.1-0.6,4.2-0.9,6.3-0.9
				c2.5,0,4.8,0.3,7.1,0.8c2.3,0.5,4.3,1.4,6,2.7c1.8,1.2,3.1,2.8,4.2,4.7c1,1.9,1.5,4.2,1.5,6.9h-10c-0.1-1.4-0.4-2.6-0.9-3.5
				c-0.5-0.9-1.2-1.6-2-2.2c-0.8-0.5-1.8-0.9-2.9-1.1c-1.1-0.2-2.2-0.3-3.5-0.3c-0.8,0-1.7,0.1-2.5,0.3c-0.8,0.2-1.6,0.5-2.3,0.9
				c-0.7,0.4-1.2,1-1.7,1.6c-0.4,0.7-0.7,1.5-0.7,2.5c0,0.9,0.2,1.7,0.5,2.2c0.3,0.6,1,1.1,2.1,1.6c1,0.5,2.5,1,4.3,1.4
				c1.8,0.5,4.2,1.1,7.1,1.8c0.9,0.2,2.1,0.5,3.6,1c1.6,0.5,3.1,1.2,4.6,2.2c1.5,1,2.9,2.4,4,4c1.1,1.7,1.7,3.8,1.7,6.5
				c0,2.1-0.4,4.1-1.2,6c-0.8,1.8-2.1,3.4-3.7,4.8c-1.6,1.3-3.7,2.4-6.1,3.1s-5.2,1.1-8.4,1.1c-2.6,0-5.1-0.3-7.5-1
				c-2.4-0.6-4.6-1.6-6.4-3c-1.9-1.4-3.3-3.1-4.4-5.2c-1.1-2.1-1.6-4.6-1.6-7.5h10C330.2,102.3,330.5,103.6,331,104.7z"/>
		</g>
		<g>
			<g>
				
					<linearGradient id="SVGID_00000168808419404415582760000013835742211894585475_" gradientUnits="userSpaceOnUse" x1="30.3405" y1="108.1827" x2="30.3405" y2="34.5633">
					<stop  offset="0" style="stop-color:#EC6892"/>
					<stop  offset="1" style="stop-color:#F08EA7"/>
				</linearGradient>
				<path style="fill:url(#SVGID_00000168808419404415582760000013835742211894585475_);" d="M24.6,96.2c0.9-0.9,1.7-1.9,2.6-2.8
					c0.8-1,1.6-2,2.4-3c0.8-1,1.4-2.1,2.1-3.2l0.3-0.4l0-0.4c0-1.1,0-2.2,0.1-3.4c0.1-1.1,0.1-2.3,0.2-3.5c0.2-2.3,0.9-4.6,2.3-6.4
					c0.7-0.9,1.5-1.7,2.3-2.4c0.9-0.9,1.6-2.1,2-3.4c0.4-1.3,0.4-2.8-0.1-4.1c-0.5-1.3-1.4-2.3-2.5-2.9l-0.2,0.2
					c0.6,1,0.9,2.1,1,3.1c0.1,1-0.1,1.9-0.5,2.8c-0.4,0.9-1,1.7-1.6,2.6c-0.7,1-1.3,2.2-1.7,3.3c-0.8,2.3-1.6,4.5-2.5,6.8
					c-0.4,1.1-0.8,2.3-1.1,3.4c-0.2,1-0.4,2-0.5,3.1c-0.7,0.9-1.4,1.8-2.1,2.8c-0.7,1-1.4,2.1-2.1,3.2c-0.7,1.1-1.3,2.2-1.9,3.3
					c-0.6,1.1-1.1,2.3-1.6,3.5l0.2,0.2C22.8,98,23.7,97.1,24.6,96.2z"/>
				
					<linearGradient id="SVGID_00000065791985240930172100000005149037872671300762_" gradientUnits="userSpaceOnUse" x1="65.0539" y1="108.1819" x2="65.0539" y2="34.564">
					<stop  offset="0" style="stop-color:#EC6892"/>
					<stop  offset="1" style="stop-color:#F08EA7"/>
				</linearGradient>
				<path style="fill:url(#SVGID_00000065791985240930172100000005149037872671300762_);" d="M67,91c0.3-0.4,0.6-0.8,0.9-1.2
					c0.3-0.5,0.5-0.8,0.7-1.2c0.4-0.8,0.9-1.5,1.4-2.3l2.8-4.5l5.8-8.9c2.4-2,4.8-4,7.1-6.2l-0.2-0.2c-2.8,1.6-5.6,3.3-8.3,5l-0.1,0
					l-0.1,0.2c-2.3,2.8-4.5,5.6-6.6,8.5c-1.1,1.5-2.1,3-3,4.5c-0.5,0.8-0.9,1.6-1.4,2.4c-0.2,0.4-0.4,0.8-0.6,1.1
					c-0.2,0.3-0.4,0.6-0.6,0.9c-0.9,1.2-2.2,2.1-3.6,2.3c-0.7,0.1-1.3,0-1.8-0.2c-0.6-0.3-1-0.7-1.4-1.4c-0.7-1.3-1-3-1-4.7
					c0-0.4,0-0.9,0-1.3l0.1-1.3c0.1-0.9,0.1-1.8,0.2-2.7c0-0.9,0-1.8,0-2.7c-0.1-0.9-0.2-1.9-0.5-2.8c-0.3-0.9-0.9-1.7-1.7-2.4
					c-0.7-0.6-1.6-1.1-2.3-1.6c-0.8-0.5-1.6-0.9-2.3-1.4c-0.7-0.5-1.5-1-2.1-1.5c-0.6-0.5-1.2-1.1-1.4-1.7c-0.2-0.6-0.2-0.9,0.1-1.4
					c0.3-0.5,0.9-1,1.5-1.5c0.6-0.5,1.4-0.9,2.1-1.3c0.4-0.2,0.8-0.4,1.1-0.6c0.4-0.2,0.7-0.4,1.3-0.6c0.9-0.5,1.8-1.4,2.2-2.6
					c0.4-1.1,0.2-2.3,0-3.2c-0.3-1-0.7-1.8-1.2-2.6c-1-1.6-2.2-3-3.6-4.2l-0.2,0.2c1,1.5,1.9,3,2.6,4.6c0.3,0.8,0.6,1.6,0.7,2.4
					c0.1,0.8,0.1,1.5-0.2,2.1c-0.2,0.6-0.7,1-1.4,1.3c-0.3,0.1-0.8,0.3-1.2,0.5c-0.4,0.2-0.8,0.4-1.3,0.6c-0.8,0.4-1.7,0.9-2.5,1.5
					c-0.8,0.6-1.6,1.3-2.2,2.3c-0.3,0.5-0.5,1.2-0.5,1.9c0,0.7,0.2,1.3,0.5,1.9c0.6,1,1.5,1.7,2.3,2.2c1.7,1,3.4,1.6,5,2.3
					c0.8,0.3,1.6,0.7,2.3,1.2c0.7,0.5,1.2,1.1,1.5,1.9c0.6,1.6,0.5,3.4,0.3,5.1c-0.1,0.9-0.3,1.8-0.4,2.6l-0.3,1.3
					c-0.1,0.5-0.2,0.9-0.2,1.4c-0.2,1.8-0.2,3.9,0.6,5.8c0.4,1,1.2,1.9,2.2,2.5c1,0.6,2.2,0.8,3.4,0.7C63.8,93.8,65.6,92.5,67,91z"
					/>
				
					<linearGradient id="SVGID_00000057864067080194826200000006197959243259208118_" gradientUnits="userSpaceOnUse" x1="105.2347" y1="108.1796" x2="105.2347" y2="34.5649">
					<stop  offset="0" style="stop-color:#EC6892"/>
					<stop  offset="1" style="stop-color:#F08EA7"/>
				</linearGradient>
				<path style="fill:url(#SVGID_00000057864067080194826200000006197959243259208118_);" d="M114.5,37.5c1.2-1.6,2.2-3.5,2.5-5.6
					c0.2-1.1,0.1-2.3-0.2-3.4c-0.1-0.6-0.3-1.1-0.6-1.6c-0.1-0.3-0.3-0.5-0.4-0.8c-0.2-0.3-0.3-0.5-0.6-0.8l-0.9-1.1l-1,0.9
					c-0.8,0.7-1.2,1.3-1.7,2c-0.5,0.7-0.9,1.3-1.3,2c-0.8,1.4-1.6,2.8-2.4,4.1c-0.8,1.4-1.6,2.7-2.5,4c-0.9,1.3-1.9,2.5-2.9,3.7
					c-1,1.2-2,2.4-2.9,3.7c-0.9,1.3-1.7,2.6-2.5,4c-1.5,2.7-3,5.5-4,8.5l0.2,0.1c2.2-2.3,4-4.8,5.8-7.4c0.9-1.3,1.8-2.6,2.5-3.9
					c0.8-1.3,1.5-2.8,2.2-4.2c0.7-1.4,1.4-2.8,2.2-4.1c0.8-1.3,1.7-2.6,2.7-3.8c1-1.2,2-2.4,3.1-3.5l1.6-1.7
					c0.1-0.1,0.2-0.2,0.2-0.3c0.1,0.2,0.1,0.5,0.2,0.7c0.1,0.8,0.1,1.5,0,2.3c-0.3,1.6-1,3.1-1.9,4.6l-0.2,0.3l0,0.1
					c-0.3,1.2-0.4,2.2-0.5,3.3c0,1.1,0.1,2.2,0.4,3.3c0.2,0.5,0.4,1.1,0.7,1.6c0.2,0.4,0.4,0.8,0.4,1c0,0.1,0,0.1-0.1,0.2
					c-0.1,0.1-0.3,0.1-0.6,0.2c-0.4,0.1-1,0-1.5,0l-0.1,0.3c0.5,0.3,0.9,0.5,1.5,0.6c0.3,0.1,0.6,0.1,0.9,0c0.4-0.1,0.8-0.4,0.9-0.8
					c0.2-0.4,0.1-0.8,0.1-1.1c0-0.2-0.1-0.3-0.1-0.5c0-0.1-0.1-0.3-0.1-0.4c-0.1-0.5-0.2-0.9-0.2-1.3c-0.1-0.9,0-1.8,0.1-2.7
					C114.1,39.1,114.3,38.3,114.5,37.5z"/>
				
					<linearGradient id="SVGID_00000078748909365931924860000010365082683348776584_" gradientUnits="userSpaceOnUse" x1="84.7466" y1="108.1825" x2="84.7466" y2="34.5655">
					<stop  offset="0" style="stop-color:#EC6892"/>
					<stop  offset="1" style="stop-color:#F08EA7"/>
				</linearGradient>
				<path style="fill:url(#SVGID_00000078748909365931924860000010365082683348776584_);" d="M104.3,52.1
					c-1.3,6.3-4.3,11.9-7.7,17.2C95,72,93.3,74.7,91.1,77c-1.1,1.2-2.3,2.3-3.5,3.3c-0.4,0.3-0.6,0.6-0.9,1c-0.3,0.3-0.5,0.6-0.8,1
					c-0.5,0.7-1,1.3-1.4,2c-0.9,1.4-1.7,2.8-2.4,4.3c-0.7,1.5-1.3,3-1.8,4.6c-0.5,1.6-1,3.1-1.4,4.7c-0.2,0.8-0.4,1.6-0.5,2.4
					c-0.1,0.4-0.2,0.8-0.2,1.1c-0.1,0.4-0.2,0.7-0.3,1.1c-0.8,2.9-2.1,5.6-4.3,7.5c-2.2,1.9-5.4,2.8-8.6,2.7l-0.1,0.3
					c3.1,1.1,6.9,0.8,9.9-1.1c0.8-0.5,1.5-1,2.1-1.7c0.6-0.6,1.2-1.3,1.7-2.1c1-1.5,1.7-3.1,2.2-4.7c0.1-0.4,0.2-0.8,0.3-1.3
					c0.1-0.4,0.2-0.8,0.3-1.2l0.4-2.3c0.3-1.6,0.7-3.1,1.1-4.6c0.4-1.5,0.9-3,1.4-4.5c0.5-1.5,1-3,1.7-4.4c0.3-0.7,0.7-1.4,1.1-2.1
					c0.2-0.3,0.4-0.7,0.6-1c0.2-0.3,0.5-0.7,0.7-0.9l3.5-3.4c2.3-2.2,4.8-4.5,6.9-7.1c1-1.3,1.9-2.7,2.7-4.2c0.8-1.5,1.4-3,2-4.6
					c0.3-0.8,0.5-1.6,0.7-2.4c0.2-0.8,0.4-1.6,0.5-2.4c0.2-1.6,0.4-3.3,0.1-5L104.3,52.1z"/>
				
					<linearGradient id="SVGID_00000096033828868244097400000008528069409937510584_" gradientUnits="userSpaceOnUse" x1="39.5045" y1="108.1814" x2="39.5045" y2="34.5669">
					<stop  offset="0" style="stop-color:#EC6892"/>
					<stop  offset="1" style="stop-color:#F08EA7"/>
				</linearGradient>
				<path style="fill:url(#SVGID_00000096033828868244097400000008528069409937510584_);" d="M54.2,106.9c-1.9-2.2-3.6-4.5-5.2-7
					c-1.6-2.4-3.1-4.9-4.3-7.6c-0.6-1.3-1.2-2.6-1.8-4c-0.5-1.4-1.1-2.7-1.4-4.1l-0.1-0.5L40.9,84c-0.4,0.2-0.6,0.5-0.9,0.7
					c-0.3,0.3-0.5,0.5-0.8,0.8c-0.5,0.5-1,1.1-1.4,1.6c-0.9,1.1-1.8,2.2-2.7,3.3c-1.8,2.2-3.5,4.4-5.4,6.6c-1.8,2.2-3.6,4.3-5.4,6.5
					c-1.8,2.1-3.7,4.2-5.6,6.3l0.1,0.1c2.2-1.7,4.3-3.7,6.3-5.7c2-2,3.9-4.2,5.6-6.5c1.7-2.3,3.1-4.7,4.8-7c0.8-1.1,1.7-2.2,2.7-3.3
					c0.5-0.5,1-1,1.5-1.5c0.3-0.2,0.5-0.5,0.8-0.7c0.1-0.1,0.3-0.2,0.4-0.3c0.6,2.8,1.4,5.4,2.6,8c1.2,2.7,2.6,5.4,4.3,7.9
					c3.3,4.9,7.6,9.3,12.5,12.6l0.1-0.1C58.1,111.2,56.1,109.1,54.2,106.9z"/>
				
					<linearGradient id="SVGID_00000052785653672381603220000002546165897614792590_" gradientUnits="userSpaceOnUse" x1="9.7129" y1="108.1823" x2="9.7129" y2="34.5665">
					<stop  offset="0" style="stop-color:#EC6892"/>
					<stop  offset="1" style="stop-color:#F08EA7"/>
				</linearGradient>
				<path style="fill:url(#SVGID_00000052785653672381603220000002546165897614792590_);" d="M14.6,106.5c-1.2,1-2.5,1.8-3.8,2.6
					c-1.4,0.7-2.8,1.3-4.3,1.6c-1.5,0.3-3.1,0.4-4.6-0.1l-0.6-0.2l0.4,0.5c0.5,0.6,1,1.1,1.7,1.6c0.6,0.5,1.3,0.8,2.1,1
					c0.7,0.2,1.5,0.4,2.3,0.4c0.8,0,1.5-0.1,2.3-0.3l0-0.1c-1.5,0.1-3-0.1-4.3-0.6c-0.7-0.2-1.3-0.6-1.9-1c-0.5-0.3-0.9-0.6-1.3-1
					c1.4,0.2,2.8,0.2,4.1,0c1.6-0.2,3.1-0.7,4.6-1.4c1.4-0.7,2.8-1.6,3.9-2.7c1.2-1.1,2.2-2.3,3.1-3.6l-0.1,0
					C17,104.5,15.8,105.5,14.6,106.5z"/>
			</g>
			
				<linearGradient id="SVGID_00000169543808953500300840000017171518768365972628_" gradientUnits="userSpaceOnUse" x1="113.6114" y1="108.1818" x2="113.6114" y2="34.5653">
				<stop  offset="0" style="stop-color:#EC6892"/>
				<stop  offset="1" style="stop-color:#F08EA7"/>
			</linearGradient>
			<path style="fill:url(#SVGID_00000169543808953500300840000017171518768365972628_);" d="M143.5,41.8c1-3.9,1.1-8.1,0.5-12.1
				c-0.6-4-2-7.9-4.1-11.3c-2.1-3.4-5-6.4-8.2-8.6c-6.5-4.6-14.6-6.5-22.4-5.5c-1.9,0.2-3.9,0.7-5.8,1.3C101.6,6.2,99.8,7,98,8
				c-3.5,1.9-6.6,4.5-9.1,7.7c-2.5,3.2-4.3,6.9-5.3,10.8c-1,3.9-1.1,8-0.3,11.9c0.7,3.7,2.1,7.2,4,10.4c0.2-0.1,0.5-0.2,0.7-0.3
				c-1.7-3.2-2.6-6.8-3-10.3c-0.7-7.5,1.4-15,5.7-21.1c2.1-3,4.9-5.7,8.1-7.7c1.6-1,3.3-1.9,5-2.6c1.8-0.7,3.6-1.2,5.5-1.5
				c3.8-0.6,7.7-0.4,11.3,0.7c3.7,1,7.1,2.8,10,5.2c5.9,4.7,9.7,11.7,10.6,19.1c1,7.3-1.1,14.9-5.5,20.8c-4.4,6-11.1,10-18.4,11.5
				c-1.4,0.3-2.8,0.4-4.3,0.5c-0.1,0.4-0.3,0.9-0.4,1.3c0,0,0,0.1,0,0.1c1.7,0.1,3.3,0.1,5,0c4-0.4,7.9-1.5,11.4-3.5
				c3.5-2,6.6-4.8,9.1-7.9C140.7,49.5,142.5,45.8,143.5,41.8z"/>
		</g>
	</g>
</g>
</svg>
