<?xml version="1.0" encoding="utf-8"?>
<!-- Generator: Adobe Illustrator 25.4.1, SVG Export Plug-In . SVG Version: 6.00 Build 0)  -->
<svg version="1.1" id="Capa_1" xmlns="http://www.w3.org/2000/svg" xmlns:xlink="http://www.w3.org/1999/xlink" x="0px" y="0px"
	 viewBox="0 0 360.5 120.17" style="enable-background:new 0 0 360.5 120.17;" xml:space="preserve">
<style type="text/css">
	.st0{fill:#00A9DC;}
</style>
<g>
	<g>
		<g>
			<g>
				<g>
					<path class="st0" d="M23.96,94.79c0.91-0.95,1.8-1.92,2.64-2.93c0.85-0.99,1.66-2.02,2.43-3.07c0.78-1.05,1.47-2.16,2.18-3.26
						l0.27-0.43l-0.01-0.36c-0.02-1.1,0.05-2.31,0.1-3.47c0.05-1.18,0.06-2.37,0.19-3.56c0.21-2.37,0.95-4.73,2.42-6.59
						c0.74-0.94,1.53-1.72,2.38-2.5c0.93-0.93,1.68-2.11,2.09-3.46c0.43-1.34,0.44-2.89-0.08-4.2c-0.53-1.3-1.44-2.37-2.61-2.96
						l-0.19,0.22c0.59,1.06,0.97,2.15,1.04,3.18c0.09,1.03-0.11,1.99-0.51,2.91c-0.39,0.93-1,1.79-1.63,2.69
						c-0.76,1.02-1.32,2.25-1.74,3.43c-0.83,2.38-1.65,4.63-2.55,6.95c-0.43,1.16-0.87,2.33-1.16,3.55
						c-0.25,1.05-0.42,2.09-0.55,3.19c-0.74,0.94-1.49,1.87-2.17,2.85c-0.75,1.07-1.46,2.17-2.12,3.3
						c-0.68,1.12-1.31,2.27-1.92,3.44c-0.6,1.18-1.17,2.37-1.64,3.64l0.24,0.17C22.1,96.67,23.04,95.74,23.96,94.79z"/>
					<path class="st0" d="M67.61,89.42c0.35-0.4,0.67-0.83,0.96-1.27c0.3-0.47,0.51-0.85,0.74-1.23c0.45-0.78,0.94-1.54,1.41-2.32
						l2.93-4.62l5.95-9.18c2.49-2.06,4.96-4.17,7.34-6.38l-0.17-0.24c-2.91,1.62-5.73,3.35-8.52,5.13l-0.08,0.05l-0.14,0.16
						c-2.4,2.84-4.67,5.76-6.84,8.78c-1.08,1.51-2.13,3.05-3.12,4.64c-0.5,0.79-0.97,1.6-1.44,2.43c-0.24,0.42-0.45,0.85-0.64,1.16
						c-0.2,0.34-0.42,0.66-0.66,0.97c-0.96,1.21-2.3,2.16-3.66,2.38c-0.68,0.11-1.33,0.03-1.9-0.25c-0.57-0.28-1.06-0.77-1.44-1.41
						c-0.76-1.3-1.06-3.06-1.07-4.82c-0.01-0.44,0.01-0.89,0.04-1.32l0.11-1.38c0.09-0.93,0.14-1.86,0.18-2.8
						c0.05-0.94,0.03-1.88-0.01-2.83c-0.06-0.95-0.21-1.91-0.55-2.84c-0.34-0.94-0.96-1.79-1.71-2.44c-0.75-0.66-1.6-1.12-2.39-1.61
						c-0.81-0.47-1.6-0.92-2.36-1.41c-0.76-0.49-1.51-0.99-2.15-1.54c-0.64-0.54-1.2-1.15-1.44-1.72c-0.24-0.57-0.19-0.91,0.11-1.45
						c0.31-0.52,0.89-1.08,1.55-1.57c0.66-0.5,1.4-0.95,2.16-1.38c0.38-0.21,0.78-0.42,1.18-0.62c0.4-0.21,0.77-0.37,1.29-0.66
						c0.96-0.54,1.9-1.47,2.29-2.64c0.38-1.17,0.24-2.33-0.04-3.31c-0.28-1-0.75-1.88-1.25-2.71c-1.03-1.63-2.28-3.06-3.71-4.28
						l-0.21,0.2c1.01,1.54,1.95,3.13,2.63,4.76c0.35,0.81,0.61,1.65,0.74,2.45c0.13,0.8,0.09,1.57-0.18,2.14
						c-0.26,0.57-0.73,1.01-1.39,1.33c-0.29,0.14-0.78,0.32-1.21,0.51c-0.44,0.19-0.87,0.4-1.3,0.62c-0.87,0.43-1.71,0.92-2.54,1.52
						c-0.82,0.61-1.64,1.31-2.25,2.4c-0.3,0.54-0.51,1.21-0.51,1.92c0,0.71,0.23,1.38,0.53,1.92c0.65,1.06,1.5,1.71,2.34,2.26
						c1.71,1.06,3.46,1.68,5.15,2.42c0.84,0.35,1.65,0.74,2.33,1.25c0.69,0.49,1.21,1.17,1.52,1.97c0.6,1.62,0.52,3.49,0.33,5.27
						c-0.1,0.9-0.26,1.8-0.43,2.7l-0.28,1.36c-0.09,0.48-0.17,0.95-0.22,1.43c-0.21,1.9-0.25,3.96,0.66,5.98
						c0.45,1,1.23,1.96,2.28,2.58c1.05,0.63,2.31,0.83,3.46,0.71C64.31,92.31,66.23,91.02,67.61,89.42z"/>
					<path class="st0" d="M116.56,34.4c1.25-1.62,2.28-3.58,2.58-5.8c0.16-1.14,0.09-2.32-0.18-3.45c-0.13-0.57-0.33-1.12-0.58-1.65
						c-0.12-0.27-0.26-0.53-0.42-0.78c-0.17-0.27-0.3-0.47-0.57-0.8l-0.9-1.08l-0.99,0.9c-0.78,0.71-1.23,1.36-1.74,2.04
						c-0.48,0.68-0.93,1.37-1.35,2.07c-0.84,1.4-1.62,2.83-2.44,4.23c-0.82,1.4-1.67,2.76-2.59,4.09c-0.92,1.33-1.93,2.59-2.97,3.84
						c-1.03,1.25-2.06,2.51-2.98,3.84c-0.92,1.33-1.73,2.72-2.53,4.12c-1.58,2.81-3.05,5.7-4.16,8.8l0.25,0.15
						c2.24-2.4,4.17-4.99,6-7.64c0.9-1.33,1.8-2.66,2.61-4.05c0.81-1.39,1.51-2.85,2.23-4.3c0.71-1.46,1.45-2.89,2.31-4.25
						c0.86-1.36,1.8-2.67,2.79-3.93c1-1.26,2.08-2.47,3.14-3.65l1.6-1.75c0.08-0.09,0.17-0.18,0.25-0.27
						c0.06,0.23,0.12,0.46,0.16,0.7c0.14,0.78,0.11,1.59-0.03,2.39c-0.27,1.6-1,3.2-1.97,4.71l-0.17,0.26l-0.03,0.13
						c-0.3,1.19-0.44,2.26-0.48,3.41c-0.01,1.14,0.07,2.29,0.42,3.42c0.17,0.56,0.39,1.13,0.68,1.62c0.25,0.39,0.41,0.82,0.42,1
						c0.01,0.07,0.04,0.12-0.09,0.21c-0.12,0.09-0.34,0.14-0.57,0.17c-0.46,0.06-0.99,0.03-1.49-0.04l-0.1,0.27
						c0.48,0.27,0.98,0.49,1.55,0.6c0.29,0.05,0.6,0.08,0.97,0c0.36-0.07,0.82-0.41,0.97-0.85c0.16-0.43,0.13-0.8,0.09-1.12
						c-0.02-0.17-0.05-0.32-0.09-0.47c-0.03-0.15-0.09-0.32-0.12-0.43c-0.13-0.46-0.22-0.89-0.26-1.36
						c-0.07-0.92-0.02-1.86,0.15-2.8C116.06,36.04,116.28,35.15,116.56,34.4z"/>
					<path class="st0" d="M106.01,49.37c-1.35,6.5-4.45,12.21-7.89,17.7c-1.69,2.77-3.47,5.58-5.73,8
						c-1.12,1.21-2.34,2.33-3.62,3.38c-0.39,0.36-0.62,0.65-0.91,0.99c-0.28,0.33-0.55,0.66-0.81,1c-0.51,0.68-1.01,1.37-1.48,2.09
						c-0.93,1.43-1.79,2.91-2.51,4.45c-0.73,1.54-1.34,3.13-1.89,4.74c-0.55,1.61-1.02,3.24-1.44,4.88
						c-0.21,0.82-0.39,1.65-0.56,2.48c-0.08,0.36-0.16,0.83-0.25,1.18c-0.08,0.36-0.18,0.75-0.28,1.12
						c-0.78,2.99-2.14,5.8-4.45,7.72c-2.29,1.93-5.51,2.86-8.81,2.76l-0.07,0.28c3.22,1.11,7.07,0.79,10.21-1.18
						c0.77-0.49,1.5-1.07,2.15-1.72c0.64-0.66,1.22-1.37,1.73-2.13c1.02-1.52,1.73-3.19,2.23-4.89c0.13-0.43,0.23-0.85,0.34-1.29
						c0.11-0.46,0.18-0.81,0.26-1.26l0.46-2.4c0.32-1.6,0.69-3.18,1.1-4.76c0.42-1.57,0.9-3.12,1.42-4.67
						c0.52-1.54,1.06-3.08,1.74-4.56c0.34-0.74,0.69-1.47,1.11-2.17c0.21-0.35,0.42-0.7,0.64-1.03c0.22-0.32,0.5-0.68,0.7-0.91
						l3.64-3.46c2.41-2.31,4.95-4.58,7.05-7.28c1.05-1.35,1.98-2.79,2.77-4.3c0.81-1.51,1.49-3.08,2.06-4.7
						c0.29-0.81,0.53-1.63,0.74-2.46c0.22-0.83,0.39-1.67,0.51-2.51c0.25-1.69,0.37-3.41,0.1-5.11L106.01,49.37z"/>
					<path class="st0" d="M54.42,105.78c-1.94-2.29-3.75-4.68-5.38-7.19c-1.64-2.5-3.17-5.08-4.46-7.79
						c-0.64-1.35-1.26-2.72-1.8-4.12c-0.54-1.39-1.08-2.81-1.45-4.24l-0.13-0.51l-0.4,0.25c-0.4,0.25-0.63,0.49-0.91,0.75
						c-0.27,0.26-0.52,0.53-0.77,0.8c-0.5,0.54-0.99,1.09-1.46,1.65c-0.95,1.11-1.87,2.25-2.79,3.38C33,91,31.21,93.31,29.34,95.51
						c-1.84,2.23-3.69,4.45-5.59,6.64c-1.9,2.19-3.82,4.36-5.78,6.53l0.1,0.11c2.31-1.79,4.47-3.78,6.51-5.88
						c2.04-2.1,3.98-4.29,5.73-6.64c1.76-2.36,3.21-4.89,4.95-7.21c0.87-1.17,1.78-2.29,2.75-3.37c0.49-0.53,0.99-1.06,1.51-1.55
						c0.26-0.25,0.53-0.48,0.81-0.71c0.12-0.1,0.26-0.21,0.39-0.31c0.57,2.85,1.48,5.59,2.64,8.25c1.23,2.81,2.68,5.54,4.39,8.09
						c3.44,5.09,7.81,9.56,12.85,12.98l0.09-0.11C58.47,110.23,56.36,108.07,54.42,105.78z"/>
					<path class="st0" d="M13.7,105.39c-1.25,0.99-2.57,1.88-3.95,2.64c-1.4,0.74-2.88,1.32-4.44,1.69
						c-1.54,0.35-3.23,0.41-4.72-0.07L0,109.46l0.4,0.49c0.5,0.61,1.06,1.18,1.71,1.65c0.65,0.47,1.38,0.82,2.14,1.07
						c0.76,0.25,1.55,0.38,2.34,0.4c0.79,0.02,1.58-0.05,2.33-0.29l-0.02-0.07c-1.54,0.11-3.06-0.11-4.46-0.63
						c-0.7-0.25-1.36-0.6-1.99-0.99c-0.47-0.29-0.91-0.63-1.34-1c1.43,0.19,2.84,0.16,4.26,0.01c1.63-0.18,3.23-0.68,4.7-1.41
						c1.49-0.71,2.85-1.67,4.05-2.78c1.21-1.1,2.28-2.35,3.18-3.7l-0.06-0.04C16.12,103.3,14.95,104.4,13.7,105.39z"/>
				</g>
				<path class="st0" d="M146.37,38.83c1-4.06,1.18-8.31,0.55-12.42c-0.63-4.11-2.07-8.09-4.26-11.61
					c-2.17-3.52-5.11-6.54-8.43-8.88c-6.7-4.76-15.08-6.7-23.09-5.65c-2,0.25-3.99,0.69-5.93,1.31c-1.94,0.6-3.83,1.4-5.62,2.37
					c-3.59,1.95-6.82,4.64-9.4,7.88c-2.56,3.25-4.45,7.06-5.43,11.1c-1.02,4.03-1.09,8.27-0.33,12.3c0.7,3.81,2.16,7.43,4.14,10.68
					c0.25-0.11,0.5-0.2,0.75-0.29c-1.72-3.33-2.72-6.98-3.08-10.64c-0.69-7.71,1.4-15.47,5.88-21.68c2.21-3.13,5.02-5.86,8.29-7.94
					c1.63-1.04,3.38-1.93,5.2-2.64c1.82-0.69,3.72-1.2,5.66-1.5c3.87-0.59,7.88-0.37,11.66,0.67c3.78,1.01,7.31,2.91,10.33,5.31
					c6.08,4.89,9.98,12.06,10.95,19.61c1,7.55-1.17,15.39-5.69,21.39c-4.51,6.15-11.38,10.33-18.95,11.83
					c-1.44,0.27-2.91,0.45-4.39,0.51c-0.13,0.45-0.28,0.89-0.45,1.33c-0.02,0.04-0.04,0.07-0.05,0.1c1.71,0.13,3.43,0.12,5.16-0.04
					c4.09-0.37,8.16-1.59,11.78-3.65c3.64-2.02,6.83-4.89,9.36-8.17C143.51,46.73,145.38,42.9,146.37,38.83z"/>
			</g>
		</g>
		<g>
			<path class="st0" d="M138.14,96.34c-3.04,2.54-7.38,3.81-13.03,3.81h-10.82v18.68H103.5V66.87h22.31c5.14,0,9.24,1.34,12.3,4.02
				c3.06,2.68,4.59,6.83,4.59,12.44C142.7,89.46,141.18,93.8,138.14,96.34z M129.85,77.62c-1.37-1.15-3.3-1.73-5.78-1.73h-9.78v15.3
				h9.78c2.48,0,4.4-0.62,5.78-1.87c1.37-1.25,2.06-3.22,2.06-5.92C131.91,80.7,131.23,78.77,129.85,77.62z"/>
			<path class="st0" d="M155.54,118.83h-10.79V66.87h10.79V118.83z"/>
			<path class="st0" d="M159.91,66.87h10.86v42.62h25.94v9.34h-36.8V66.87z"/>
			<path class="st0" d="M213.09,66.87h12.28l18.38,51.96h-11.77l-3.43-10.68h-19.13l-3.52,10.68h-11.36L213.09,66.87z M212.38,99.19
				h13.31l-6.56-20.44L212.38,99.19z"/>
			<path class="st0" d="M277.02,66.87v9.2h-15.54v42.76h-10.93V76.07h-15.62v-9.2H277.02z"/>
			<path class="st0" d="M316.01,76.07h-27.49V87.1h25.24v9.02h-25.24v13.36h28.76v9.34h-39.37V66.87h38.1V76.07z"/>
			<path class="st0" d="M327.79,102.79c0.34,2.37,1,4.15,1.98,5.32c1.8,2.14,4.88,3.21,9.25,3.21c2.61,0,4.74-0.28,6.37-0.85
				c3.1-1.08,4.64-3.09,4.64-6.03c0-1.72-0.76-3.04-2.27-3.98c-1.52-0.92-3.92-1.73-7.21-2.43l-5.62-1.23
				c-5.53-1.22-9.33-2.55-11.39-3.98c-3.5-2.4-5.25-6.15-5.25-11.24c0-4.65,1.71-8.52,5.14-11.6c3.43-3.08,8.46-4.62,15.09-4.62
				c5.54,0,10.27,1.45,14.18,4.35c3.91,2.9,5.96,7.11,6.16,12.64h-10.43c-0.19-3.13-1.59-5.35-4.19-6.66
				c-1.73-0.87-3.89-1.3-6.47-1.3c-2.87,0-5.16,0.56-6.87,1.69c-1.71,1.13-2.57,2.7-2.57,4.72c0,1.86,0.84,3.24,2.53,4.16
				c1.08,0.61,3.38,1.33,6.9,2.15l9.12,2.15c4,0.94,6.99,2.2,8.99,3.77c3.1,2.44,4.65,5.98,4.65,10.61c0,4.75-1.84,8.69-5.5,11.83
				c-3.67,3.14-8.85,4.71-15.55,4.71c-6.84,0-12.22-1.54-16.14-4.64c-3.92-3.09-5.88-7.34-5.88-12.74H327.79z"/>
		</g>
	</g>
</g>
</svg>
