<?xml version="1.0" encoding="utf-8"?>
<!-- Generator: Adobe Illustrator 25.4.1, SVG Export Plug-In . SVG Version: 6.00 Build 0)  -->
<svg version="1.1" id="Capa_1" xmlns="http://www.w3.org/2000/svg" xmlns:xlink="http://www.w3.org/1999/xlink" x="0px" y="0px"
	 viewBox="0 0 483.5 135.6" style="enable-background:new 0 0 483.5 135.6;" xml:space="preserve">
<style type="text/css">
	.st0{fill:#08A9DD;}
	.st1{fill:#12100B;}
	.st2{fill:#F5333F;}
</style>
<g>
	<g>
		<path class="st0" d="M30.6,32l4.8-32h-11l-5.8,37.9c-0.2,1.9,1.2,5.1,4.6,5.1h35.4l1.5-9.5l-28.2,0C31,33.5,30.6,32.6,30.6,32
			L30.6,32z"/>
		<path class="st0" d="M229.7,32.2l3.9-26.8h-10.4L218,39c-0.2,2.1,1.7,4,4.1,4h30.7l1.5-9.5h-23.4
			C230.1,33.5,229.6,32.7,229.7,32.2L229.7,32.2z"/>
		<path class="st0" d="M269.6,32.2l3.9-26.8H263L257.9,39c-0.2,2.1,1.7,4,4,4h30.7l1.5-9.5h-23.4C270,33.5,269.5,32.7,269.6,32.2
			L269.6,32.2z"/>
		<polygon class="st0" points="207.8,5.4 202,43 212.8,43 218.6,5.4 		"/>
		<path class="st0" d="M186.9,0c-1.8,0-2.4,1.2-2.5,1.4c0,0-8.3,21.1-8.4,21.2c-0.1,0.2-0.1,0.3-0.3,0.3c-0.2,0-0.2-0.1-0.2-0.3
			c0-0.1-2.2-21-2.2-21c0-0.3-0.4-1.8-2.1-1.8c-1.6,0-16.4,0-16.4,0l-6.7,43h11.1l4.2-28.1l3.7,25.7c0.3,2.1,1.9,2.4,2.5,2.4
			c1.5,0,3.9,0,5.6,0c1,0,1.9-0.6,2.4-1.9l12.4-26.2L185.9,43h11.5l6.9-43C204.4,0,187.7,0,186.9,0L186.9,0z"/>
		<path class="st0" d="M75.9,29.5c0.1-0.5,0.4-0.6,0.6-0.6h23.9c2.4,0,4.1-1.3,4.6-4.4l2.4-15.6c0.2-1.1-0.4-3.5-3.3-3.5H73.6
			c-2,0-4.8,1.4-5.3,5.2l-4.4,28.1c-0.5,2.8,1.5,4.3,3.6,4.3h34.6l1.5-9.5H75.9c-0.3,0-0.6-0.3-0.5-0.7L75.9,29.5L75.9,29.5z
			 M77.5,18.9l0.5-3.6c0-0.3,0.3-0.5,0.5-0.5h17c0.3,0,0.6,0.3,0.6,0.6L95.6,19c-0.1,0.3-0.3,0.5-0.6,0.5h-17
			C77.7,19.5,77.5,19.2,77.5,18.9L77.5,18.9z"/>
		<path class="st0" d="M121.2,15.3c0-0.3,0.3-0.5,0.5-0.5h26.1l1.5-9.4h-32.2c-3.5,0-5.2,2.5-5.4,4.2l-2.4,15.8
			c-0.2,1.9,1.4,3.4,3,3.4h22.4c0.4,0,0.6,0.3,0.6,0.6l-0.5,3.5c-0.1,0.4-0.4,0.5-0.6,0.5h-26.1l-1.5,9.5h33c2.3,0,4.1-1.4,4.5-3.4
			l2.6-16.6c0.2-1.5-0.7-3.5-3.3-3.5h-22.1c-0.3,0-0.6-0.3-0.5-0.6L121.2,15.3L121.2,15.3z"/>
		<path class="st0" d="M311.8,15.3c0-0.3,0.3-0.5,0.5-0.5h26.1l1.5-9.4h-32.2c-3.5,0-5.2,2.5-5.4,4.2l-2.5,15.8
			c-0.2,1.9,1.4,3.4,3,3.4h22.4c0.4,0,0.6,0.3,0.6,0.6l-0.5,3.5c-0.1,0.4-0.4,0.5-0.6,0.5h-26.1l-1.5,9.5h33c2.3,0,4.1-1.4,4.5-3.4
			l2.6-16.6c0.2-1.5-0.7-3.5-3.3-3.5h-22.1c-0.3,0-0.6-0.3-0.5-0.6L311.8,15.3L311.8,15.3z"/>
		<path class="st0" d="M29.3,135.6c7,0,12.9-2,17.9-6.1c5-4.1,8-9.4,9-16.1c0.8-5.3,0.2-9.3-1.9-12.1s-5.8-4.6-11.2-5.4
			c9.8-0.8,15.4-6.1,17-15.8c1-6.5-0.3-11.8-4.2-16c-3.8-4-10.2-6-19.3-6H12.3L0,135.6H29.3L29.3,135.6z M25.9,103.9h1.7
			c2.7,0,4.7,0.7,6.1,2c1.3,1.3,1.8,3.2,1.5,5.6c-0.4,2.4-1.5,4.3-3.2,5.7c-1.8,1.4-4,2.1-6.6,2.1c-0.2,0-0.5,0-0.8,0
			c-0.3,0-0.6,0-1-0.1L25.9,103.9L25.9,103.9z M30.6,74.3c0.5,0,0.9-0.1,1.3-0.1c0.3,0,0.7,0,0.9,0c4.9,0,7,2.2,6.3,6.7
			c-0.3,2.1-1.3,3.8-3,4.9s-3.7,1.8-6.2,1.8h-1.4L30.6,74.3L30.6,74.3z M117.2,68.7c-4.2-7-10.7-10.6-19.7-10.6
			c-7.3,0-14,2.6-20.2,7.8c-8.3,7-13.5,17.1-15.6,30.4c-2.2,13.8-0.4,24.2,5.4,31.1c4.6,5.5,10.7,8.2,18.3,8.2
			c8.6,0,16.1-3.6,22.6-10.7c6.5-7.1,10.7-16.4,12.5-27.8C122.5,85.2,121.3,75.7,117.2,68.7L117.2,68.7z M94.4,111.8
			c-1.9,3.5-4.1,5.2-6.6,5.2c-2.4,0-4-1.8-4.8-5.3c-0.8-3.5-0.7-8.5,0.3-14.9c1-6.5,2.5-11.4,4.5-14.8c2-3.6,4.3-5.4,6.8-5.4
			c4.9,0,6.3,6.9,4.2,20.6C97.8,103.5,96.4,108.3,94.4,111.8L94.4,111.8L94.4,111.8z M138.9,135.6c10.8,0,19.4-3,25.8-8.9
			c7.5-7,12.3-16.9,14.3-29.8c2.1-13.1-0.1-23.2-6.5-30.5c-4.9-5.5-12.5-8.3-22.8-8.3h-18.1l-12.3,77.5H138.9L138.9,135.6z
			 M149.4,77.6h0.6c3.2,0,5.5,1.8,6.9,5.4c1.3,3.6,1.5,8.5,0.5,14.7c-2,12.6-6.8,19-14.3,19.4L149.4,77.6L149.4,77.6z M211.4,102.8
			l25.1-44.7h-21.7l-5.7,11.6c-0.6,1.3-1.4,2.9-2.3,5c-0.9,2.1-1.9,4.5-3.2,7.3c-0.2-1.9-0.4-3.9-0.6-6s-0.6-4.2-0.9-6.5l-1.9-11.5
			h-21.8l12.1,44.7l-5.2,32.8h20.9L211.4,102.8L211.4,102.8z M252.6,110.2h3.3c7.8,0,14.1-1.6,18.8-4.7c6.9-4.6,11-11.6,12.5-21
			c1.4-8.6-0.4-15.4-5.4-20.2c-4.2-4.1-11.4-6.2-21.5-6.2h-20.3l-12.3,77.5h20.9L252.6,110.2L252.6,110.2z M258,76.1h1.5
			c2.3,0,4,0.8,5.2,2.6c1.2,1.7,1.6,3.8,1.2,6.5c-0.4,2.7-1.5,4.8-3.3,6.4s-3.9,2.3-6.4,2.3l-0.9-0.1L258,76.1L258,76.1z
			 M320.3,107.8c-0.5,3.5-1.3,5.9-2.3,7.2c-1,1.3-2.5,1.9-4.5,1.9c-1.9,0-3.2-0.7-3.8-2.1c-0.6-1.4-0.6-3.8-0.1-7.1l7.9-49.7h-20.9
			l-8.1,51c-1.5,9.8,0.4,16.9,5.9,21.3c4.3,3.5,10,5.2,17.2,5.2c6.3,0,12-1.6,16.9-4.7c3.6-2.4,6.4-5,8.3-7.9
			c1.9-2.8,3.2-6.4,3.9-10.9l8.5-53.9h-20.9L320.3,107.8L320.3,107.8z M424.5,58.1h-25.3l-9.6,28.1c-1.4,3.9-2.6,8.3-3.9,13.2
			c0.2-2.9,0.4-5.7,0.5-8.2c0.1-2.5,0.2-4.8,0.1-7l-0.2-26.1h-26l-21.3,77.5H361l7.4-35.1l2.8-14.3c-0.1,2.3-0.2,3.8-0.3,4.5
			c-0.2,4.9-0.3,8.3-0.3,10.3l0.1,34.6h17.4l12.3-34.5c0.8-2.3,1.6-4.7,2.3-7.2s1.4-5,2.1-7.8l-1.6,14.1l-4.7,35.3h21.2L424.5,58.1
			L424.5,58.1z M448.5,110.2h3.3c7.8,0,14.1-1.6,18.8-4.7c6.9-4.6,11-11.6,12.5-21c1.4-8.6-0.4-15.4-5.4-20.2
			c-4.2-4.1-11.4-6.2-21.5-6.2h-20.3l-12.3,77.5h20.9L448.5,110.2L448.5,110.2z M453.9,76.1h1.5c2.3,0,4,0.8,5.2,2.6
			c1.2,1.7,1.6,3.8,1.2,6.5c-0.4,2.7-1.5,4.8-3.3,6.4s-3.9,2.3-6.4,2.3l-1-0.1L453.9,76.1L453.9,76.1z"/>
	</g>
</g>
<g>
	<path class="st1" d="M30.6,32l4.8-32h-11l-5.8,37.9c-0.2,1.9,1.2,5.1,4.6,5.1h35.4l1.5-9.5l-28.2,0C31,33.5,30.6,32.6,30.6,32
		L30.6,32z"/>
	<path class="st1" d="M229.7,32.2l3.9-26.8h-10.4L218,39c-0.2,2.1,1.7,4,4.1,4h30.7l1.5-9.5h-23.4C230,33.5,229.6,32.7,229.7,32.2
		L229.7,32.2z"/>
	<path class="st1" d="M269.6,32.2l3.9-26.8H263L257.9,39c-0.2,2.1,1.7,4,4.1,4h30.7l1.5-9.5h-23.4C269.9,33.5,269.5,32.7,269.6,32.2
		L269.6,32.2z"/>
	<polygon class="st1" points="207.8,5.4 202,43 212.8,43 218.6,5.4 207.8,5.4 	"/>
	<path class="st1" d="M186.9,0c-1.8,0-2.4,1.2-2.5,1.4c0,0-8.3,21.1-8.4,21.3c-0.1,0.2-0.1,0.3-0.3,0.3c-0.2,0-0.2-0.1-0.2-0.3
		c0-0.1-2.2-20.9-2.2-20.9c0-0.3-0.4-1.7-2.1-1.7c-1.6,0-16.4,0-16.4,0l-6.7,43h11.1l4.2-28.1l3.7,25.7c0.3,2.1,1.9,2.4,2.5,2.4
		c1.5,0,3.8,0,5.6,0c1,0,1.9-0.6,2.5-1.9l12.4-26.2L185.9,43h11.5l6.9-43C204.4,0,187.7,0,186.9,0L186.9,0z"/>
	<path class="st1" d="M75.9,29.5c0.1-0.5,0.4-0.6,0.6-0.6h23.9c2.4,0,4.1-1.3,4.6-4.4l2.4-15.6c0.2-1.1-0.4-3.5-3.3-3.5H73.6
		c-2,0-4.9,1.4-5.3,5.2l-4.4,28.1c-0.5,2.8,1.5,4.3,3.6,4.3h34.6l1.5-9.5H75.9c-0.3,0-0.6-0.3-0.5-0.7L75.9,29.5L75.9,29.5z
		 M77.5,18.9l0.5-3.6c0-0.3,0.3-0.5,0.5-0.5h17c0.3,0,0.6,0.3,0.6,0.6L95.7,19c-0.1,0.3-0.3,0.5-0.6,0.5h-17
		C77.7,19.5,77.5,19.2,77.5,18.9L77.5,18.9z"/>
	<path class="st1" d="M121.2,15.3c0-0.3,0.3-0.5,0.5-0.5h26.1l1.5-9.4h-32.2c-3.5,0-5.2,2.5-5.4,4.2l-2.5,15.8
		c-0.3,1.9,1.4,3.4,3,3.4h22.4c0.4,0,0.6,0.3,0.6,0.6l-0.5,3.5c-0.1,0.4-0.3,0.5-0.6,0.5h-26.1l-1.5,9.5h33c2.3,0,4.2-1.4,4.5-3.4
		l2.6-16.6c0.2-1.5-0.7-3.5-3.3-3.5h-22.1c-0.3,0-0.6-0.3-0.5-0.6L121.2,15.3L121.2,15.3z"/>
	<path class="st1" d="M311.8,15.3c0-0.3,0.3-0.5,0.5-0.5h26.1l1.5-9.4h-32.2c-3.5,0-5.2,2.5-5.4,4.2l-2.5,15.8
		c-0.3,1.9,1.4,3.4,3,3.4h22.4c0.4,0,0.6,0.3,0.6,0.6l-0.5,3.5c-0.1,0.4-0.4,0.5-0.6,0.5h-26.1l-1.5,9.5h33c2.3,0,4.2-1.4,4.5-3.4
		l2.6-16.6c0.2-1.5-0.7-3.5-3.3-3.5h-22.1c-0.3,0-0.6-0.3-0.5-0.6L311.8,15.3L311.8,15.3z"/>
	<path class="st2" d="M29.3,135.6c7,0,13-2,17.9-6.1c5-4,8-9.4,9-16.1c0.8-5.3,0.2-9.3-1.9-12.1c-2.1-2.8-5.9-4.6-11.2-5.4
		c9.8-0.8,15.4-6.1,17-15.8c1-6.5-0.3-11.8-4.1-16c-3.7-4-10.2-6-19.3-6H12.3L0,135.6H29.3L29.3,135.6z M25.9,103.9h1.7
		c2.7,0,4.7,0.7,6.1,2c1.3,1.3,1.8,3.2,1.5,5.6c-0.4,2.4-1.5,4.3-3.2,5.7c-1.8,1.4-4,2.1-6.6,2.1c-0.2,0-0.4,0-0.7,0
		c-0.3,0-0.6,0-1-0.1L25.9,103.9L25.9,103.9z M30.6,74.3c0.5,0,0.9-0.1,1.3-0.1c0.4,0,0.6,0,0.9,0c4.9,0,7,2.2,6.3,6.7
		c-0.3,2.1-1.3,3.7-3,4.9c-1.6,1.2-3.7,1.8-6.2,1.8h-1.4L30.6,74.3L30.6,74.3z M117.2,68.7c-4.2-7-10.7-10.6-19.7-10.6
		c-7.3,0-14,2.6-20.2,7.8c-8.3,7-13.5,17.1-15.6,30.4c-2.2,13.8-0.4,24.2,5.4,31.1c4.6,5.5,10.7,8.2,18.3,8.2
		c8.6,0,16.1-3.6,22.6-10.7c6.5-7.1,10.7-16.4,12.5-27.8C122.5,85.2,121.3,75.7,117.2,68.7L117.2,68.7z M94.4,111.8
		c-1.9,3.5-4.1,5.2-6.5,5.2c-2.4,0-4-1.8-4.8-5.3c-0.8-3.5-0.7-8.5,0.3-14.9c1-6.5,2.5-11.4,4.5-14.8c2-3.6,4.3-5.4,6.8-5.4
		c5,0,6.3,6.9,4.2,20.6C97.8,103.5,96.4,108.3,94.4,111.8L94.4,111.8L94.4,111.8z M138.9,135.6c10.8,0,19.4-3,25.8-8.9
		c7.5-7,12.3-16.9,14.3-29.8c2.1-13-0.1-23.2-6.5-30.5c-4.9-5.6-12.5-8.3-22.8-8.3h-18.1l-12.3,77.5H138.9L138.9,135.6z M149.4,77.6
		h0.7c3.2,0,5.5,1.8,6.9,5.4c1.3,3.6,1.5,8.5,0.5,14.7c-2,12.5-6.8,19-14.3,19.4L149.4,77.6L149.4,77.6z M211.4,102.8l25.1-44.7
		h-21.7l-5.6,11.6c-0.6,1.3-1.4,2.9-2.3,5c-0.9,2.1-2,4.5-3.2,7.4c-0.2-1.9-0.4-3.9-0.6-6c-0.3-2.1-0.6-4.2-1-6.5l-1.9-11.5h-21.8
		l12.1,44.7l-5.2,32.8h20.9L211.4,102.8L211.4,102.8z M252.6,110.2h3.3c7.8,0,14.1-1.6,18.8-4.7c6.9-4.6,11-11.6,12.5-21
		c1.4-8.6-0.4-15.4-5.4-20.2c-4.2-4.1-11.4-6.2-21.5-6.2h-20.3l-12.3,77.5h20.9L252.6,110.2L252.6,110.2z M258,76.1h1.5
		c2.3,0,4,0.9,5.2,2.6c1.2,1.7,1.6,3.8,1.2,6.5c-0.4,2.7-1.5,4.8-3.3,6.4c-1.8,1.6-3.9,2.3-6.4,2.3l-0.9-0.1L258,76.1L258,76.1z
		 M320.3,107.8c-0.5,3.5-1.3,5.9-2.3,7.2c-1,1.3-2.5,1.9-4.5,1.9c-1.9,0-3.2-0.7-3.8-2.1c-0.6-1.4-0.6-3.8-0.1-7.1l7.9-49.7h-20.9
		l-8.1,51c-1.5,9.8,0.4,16.9,5.9,21.3c4.3,3.5,10,5.2,17.2,5.2c6.3,0,11.9-1.6,16.9-4.7c3.7-2.4,6.4-5,8.3-7.9
		c1.9-2.8,3.2-6.4,3.9-11l8.5-53.9h-20.9L320.3,107.8L320.3,107.8z M424.5,58.1h-25.3l-9.6,28.1c-1.4,3.9-2.7,8.3-3.9,13.2
		c0.2-2.9,0.4-5.7,0.5-8.2c0.1-2.5,0.2-4.8,0.1-7l-0.2-26.1h-26l-21.3,77.5H361l7.4-35.1l2.8-14.3c-0.1,2.3-0.2,3.8-0.3,4.5
		c-0.2,4.9-0.3,8.3-0.3,10.3l0.1,34.6h17.4l12.3-34.5c0.8-2.3,1.6-4.7,2.3-7.1c0.7-2.5,1.4-5,2.1-7.8l-1.6,14.1l-4.7,35.3h21.2
		L424.5,58.1L424.5,58.1z M448.5,110.2h3.3c7.8,0,14.1-1.6,18.8-4.7c6.9-4.6,11-11.6,12.5-21c1.4-8.6-0.4-15.4-5.4-20.2
		c-4.2-4.1-11.4-6.2-21.5-6.2h-20.3l-12.3,77.5h20.9L448.5,110.2L448.5,110.2z M453.9,76.1h1.5c2.3,0,4,0.9,5.2,2.6
		c1.2,1.7,1.6,3.8,1.2,6.5c-0.4,2.7-1.5,4.8-3.3,6.4c-1.8,1.6-3.9,2.3-6.4,2.3l-0.9-0.1L453.9,76.1L453.9,76.1z"/>
</g>
</svg>
