<?xml version="1.0" encoding="utf-8"?>
<!-- Generator: Adobe Illustrator 25.4.1, SVG Export Plug-In . SVG Version: 6.00 Build 0)  -->
<svg version="1.1" xmlns="http://www.w3.org/2000/svg" xmlns:xlink="http://www.w3.org/1999/xlink" x="0px" y="0px"
	 viewBox="0 0 300 50" style="enable-background:new 0 0 300 50;" xml:space="preserve">
<style type="text/css">
	.st0{display:none;}
	.st1{display:inline;}
	.st2{fill:#08A9DD;}
	.st3{fill:#1D1D1B;}
	.st4{fill:url(#SVGID_1_);}
	.st5{fill:url(#SVGID_00000136379200678500360020000008532644103683610293_);}
	.st6{fill:url(#SVGID_00000178170340485001554980000001747997225360802721_);}
	.st7{fill:url(#SVGID_00000142894633587526102200000004032236902312108943_);}
	.st8{fill:url(#SVGID_00000047783164534976470280000004317460202767874455_);}
	.st9{fill:url(#SVGID_00000125594733308906774580000005899593630841058176_);}
	.st10{fill:url(#SVGID_00000166650711258881556640000003834307026644969877_);}
	.st11{fill:#D11B7B;}
	.st12{fill:#6C4996;}
	.st13{fill:#4F98D2;}
	.st14{fill:#2FB5E9;}
	.st15{fill:#70C0A4;}
</style>
<g id="Capa_1" class="st0">
	<g class="st1">
		<g>
			<g>
				<g>
					<path class="st2" d="M100.4,18.9c0.3,0.5,0.6,0.9,1,1.2c0.4,0.3,0.9,0.5,1.5,0.7c0.6,0.1,1.2,0.2,1.8,0.2c0.4,0,0.9,0,1.3-0.1
						c0.5-0.1,0.9-0.2,1.3-0.4c0.4-0.2,0.8-0.5,1-0.8s0.4-0.8,0.4-1.3c0-0.6-0.2-1-0.6-1.4c-0.4-0.4-0.8-0.6-1.4-0.9
						c-0.6-0.2-1.3-0.4-2-0.6s-1.5-0.4-2.3-0.6c-0.8-0.2-1.6-0.4-2.3-0.7c-0.8-0.3-1.4-0.7-2-1.1c-0.6-0.5-1.1-1-1.4-1.7
						c-0.4-0.7-0.6-1.5-0.6-2.5c0-1.1,0.2-2,0.7-2.8c0.5-0.8,1.1-1.5,1.8-2c0.8-0.5,1.6-0.9,2.6-1.2s1.9-0.4,2.9-0.4
						c1.1,0,2.2,0.1,3.2,0.4s1.9,0.7,2.7,1.2c0.8,0.6,1.4,1.3,1.9,2.1c0.5,0.9,0.7,1.9,0.7,3.1h-4.5c0-0.6-0.2-1.2-0.4-1.6
						s-0.5-0.7-0.9-1c-0.4-0.2-0.8-0.4-1.3-0.5c-0.5-0.1-1-0.2-1.6-0.2c-0.4,0-0.8,0-1.1,0.1s-0.7,0.2-1,0.4
						c-0.3,0.2-0.6,0.4-0.8,0.7c-0.2,0.3-0.3,0.7-0.3,1.1c0,0.4,0.1,0.8,0.2,1c0.2,0.3,0.5,0.5,0.9,0.7c0.5,0.2,1.1,0.4,1.9,0.6
						c0.8,0.2,1.9,0.5,3.2,0.8c0.4,0.1,0.9,0.2,1.7,0.4c0.7,0.2,1.4,0.5,2.1,1c0.7,0.5,1.3,1.1,1.8,1.8c0.5,0.8,0.8,1.7,0.8,2.9
						c0,1-0.2,1.9-0.6,2.7c-0.4,0.8-0.9,1.5-1.7,2.2s-1.7,1.1-2.8,1.4c-1.1,0.3-2.4,0.5-3.8,0.5c-1.2,0-2.3-0.1-3.4-0.4
						c-1.1-0.3-2.1-0.7-2.9-1.4c-0.8-0.6-1.5-1.4-2-2.4s-0.7-2.1-0.7-3.4h4.5C100.1,17.8,100.2,18.4,100.4,18.9z"/>
					<path class="st2" d="M128.2,22.5c-1.6,1.4-3.8,2.1-6.7,2.1c-2.9,0-5.1-0.7-6.7-2.1s-2.4-3.5-2.4-6.4V2.9h4.7v13.2
						c0,0.6,0.1,1.1,0.2,1.7c0.1,0.6,0.3,1,0.6,1.5c0.3,0.4,0.8,0.8,1.3,1c0.6,0.3,1.3,0.4,2.3,0.4c1.7,0,2.8-0.4,3.4-1.1
						c0.6-0.7,0.9-1.9,0.9-3.5V2.9h4.7v13.2C130.6,19,129.8,21.1,128.2,22.5z"/>
					<path class="st2" d="M140.7,2.9c1.3,0,2.5,0.2,3.4,0.6s1.7,0.9,2.3,1.5c0.6,0.6,1,1.4,1.3,2.2s0.4,1.7,0.4,2.5
						c0,0.9-0.1,1.7-0.4,2.5c-0.3,0.8-0.7,1.6-1.3,2.2c-0.6,0.6-1.3,1.1-2.3,1.5c-0.9,0.4-2.1,0.6-3.4,0.6h-4.9v7.6h-4.7V2.9H140.7z
						 M139.4,12.9c0.5,0,1.1,0,1.6-0.1s0.9-0.2,1.3-0.5c0.4-0.2,0.7-0.6,0.9-1c0.2-0.4,0.3-1,0.3-1.6s-0.1-1.2-0.3-1.6
						s-0.5-0.7-0.9-1c-0.4-0.2-0.8-0.4-1.3-0.5s-1-0.1-1.6-0.1h-3.6v6.4L139.4,12.9L139.4,12.9z"/>
					<path class="st2" d="M163.2,2.9v3.9H152v4.6h10.3V15H152v5.2h11.4v3.9h-16.1V2.9H163.2z"/>
					<path class="st2" d="M174.5,2.9c0.9,0,1.8,0.2,2.6,0.5c0.8,0.3,1.4,0.7,2,1.3s1,1.2,1.2,1.9s0.4,1.5,0.4,2.3
						c0,1.2-0.3,2.3-0.8,3.2s-1.4,1.6-2.6,2.1v0.1c0.6,0.2,1.1,0.4,1.4,0.7c0.4,0.3,0.7,0.7,0.9,1.2c0.2,0.5,0.4,0.9,0.5,1.5
						c0.1,0.5,0.2,1.1,0.2,1.6c0,0.3,0,0.7,0.1,1.2c0,0.5,0.1,0.9,0.1,1.4c0.1,0.5,0.1,0.9,0.2,1.4c0.1,0.4,0.3,0.8,0.5,1.1h-4.7
						c-0.3-0.7-0.4-1.5-0.5-2.4s-0.1-1.8-0.3-2.7c-0.2-1.1-0.5-1.9-1-2.4c-0.5-0.5-1.4-0.8-2.5-0.8h-4.7v8.3h-4.7V2.9H174.5z
						 M172.9,12.5c1.1,0,1.9-0.2,2.4-0.7c0.5-0.5,0.8-1.2,0.8-2.3c0-1-0.3-1.8-0.8-2.2c-0.5-0.5-1.3-0.7-2.4-0.7h-5.1v6H172.9z"/>
					<path class="st2" d="M191,2.9c1,0,1.9,0.1,2.8,0.3c0.8,0.2,1.6,0.5,2.1,0.9s1.1,0.9,1.4,1.6c0.3,0.7,0.5,1.5,0.5,2.5
						c0,1.1-0.2,2-0.7,2.7c-0.5,0.7-1.2,1.3-2.2,1.8c1.3,0.4,2.3,1,2.9,2s1,2.1,1,3.4c0,1.1-0.2,2-0.6,2.8c-0.4,0.8-1,1.4-1.7,1.9
						s-1.5,0.9-2.4,1.1c-0.9,0.2-1.8,0.4-2.8,0.4H181V2.9H191z M190.4,11.5c0.8,0,1.5-0.2,2.1-0.6c0.5-0.4,0.8-1,0.8-1.9
						c0-0.5-0.1-0.9-0.3-1.2c-0.2-0.3-0.4-0.6-0.7-0.7c-0.3-0.2-0.6-0.3-1-0.4c-0.4-0.1-0.8-0.1-1.2-0.1h-4.4v5L190.4,11.5
						L190.4,11.5z M190.6,20.5c0.5,0,0.9,0,1.3-0.1c0.4-0.1,0.8-0.2,1.1-0.5c0.3-0.2,0.6-0.5,0.8-0.9c0.2-0.4,0.3-0.8,0.3-1.4
						c0-1.1-0.3-1.9-0.9-2.3c-0.6-0.5-1.4-0.7-2.4-0.7h-5.1v5.8C185.6,20.5,190.6,20.5,190.6,20.5z"/>
					<path class="st2" d="M198.1,9.2c0.5-1.4,1.2-2.5,2.1-3.6s2-1.8,3.3-2.4c1.3-0.6,2.8-0.9,4.4-0.9c1.6,0,3.1,0.3,4.4,0.9
						c1.3,0.6,2.4,1.4,3.3,2.4s1.6,2.2,2.1,3.6c0.5,1.4,0.7,2.8,0.7,4.4c0,1.6-0.2,3-0.7,4.3c-0.5,1.3-1.2,2.5-2.1,3.5
						c-0.9,1-2,1.8-3.3,2.3c-1.3,0.6-2.8,0.9-4.4,0.9c-1.6,0-3.1-0.3-4.4-0.9s-2.4-1.3-3.3-2.3c-0.9-1-1.6-2.2-2.1-3.5
						s-0.7-2.8-0.7-4.3C197.4,12,197.7,10.6,198.1,9.2z M202.4,16.2c0.2,0.8,0.5,1.6,1,2.3c0.5,0.7,1.1,1.2,1.8,1.6s1.6,0.6,2.7,0.6
						c1.1,0,1.9-0.2,2.7-0.6c0.7-0.4,1.3-1,1.8-1.6c0.5-0.7,0.8-1.4,1-2.3c0.2-0.8,0.3-1.7,0.3-2.6c0-0.9-0.1-1.8-0.3-2.7
						c-0.2-0.9-0.5-1.6-1-2.3c-0.5-0.7-1.1-1.2-1.8-1.6s-1.6-0.6-2.7-0.6c-1.1,0-1.9,0.2-2.7,0.6c-0.7,0.4-1.3,0.9-1.8,1.6
						c-0.5,0.7-0.8,1.5-1,2.3c-0.2,0.9-0.3,1.8-0.3,2.7C202.1,14.5,202.2,15.4,202.4,16.2z"/>
					<path class="st2" d="M227.1,2.9c1.4,0,2.6,0.2,3.8,0.7c1.2,0.4,2.2,1.1,3.1,2s1.5,2,2,3.3c0.5,1.3,0.7,2.9,0.7,4.6
						c0,1.6-0.2,3-0.6,4.3c-0.4,1.3-1,2.4-1.8,3.4c-0.8,1-1.8,1.7-3,2.2c-1.2,0.5-2.6,0.8-4.2,0.8h-9.2V2.9H227.1z M226.8,20.2
						c0.7,0,1.3-0.1,2-0.3s1.2-0.6,1.7-1.1s0.9-1.2,1.2-2c0.3-0.8,0.4-1.8,0.4-3c0-1.1-0.1-2-0.3-2.9c-0.2-0.9-0.6-1.6-1-2.2
						c-0.5-0.6-1.1-1.1-1.9-1.4c-0.8-0.3-1.8-0.5-2.9-0.5h-3.3v13.4H226.8z"/>
					<path class="st2" d="M234.1,2.9h5.2l5,8.4l4.9-8.4h5.2L246.6,16v8.1h-4.7v-8.3L234.1,2.9z"/>
				</g>
				<g>
					<path class="st2" d="M110.5,31.6c-0.3-0.5-0.6-0.8-1-1.2s-0.9-0.6-1.4-0.8c-0.5-0.2-1.1-0.3-1.7-0.3c-1.1,0-1.9,0.2-2.7,0.6
						c-0.7,0.4-1.3,1-1.8,1.6c-0.5,0.7-0.8,1.5-1,2.3c-0.2,0.9-0.3,1.8-0.3,2.7c0,0.9,0.1,1.8,0.3,2.6s0.5,1.6,1,2.3
						c0.5,0.7,1.1,1.2,1.8,1.6c0.7,0.4,1.6,0.6,2.7,0.6c1.4,0,2.5-0.4,3.3-1.3c0.8-0.9,1.3-2,1.5-3.5h4.5c-0.1,1.3-0.4,2.5-0.9,3.6
						c-0.5,1.1-1.2,2-2,2.7c-0.8,0.8-1.8,1.3-2.9,1.7c-1.1,0.4-2.3,0.6-3.6,0.6c-1.6,0-3.1-0.3-4.4-0.8s-2.4-1.3-3.3-2.3
						s-1.6-2.2-2.1-3.5c-0.5-1.3-0.7-2.8-0.7-4.3c0-1.6,0.2-3.1,0.7-4.4c0.5-1.4,1.2-2.5,2.1-3.6c0.9-1,2-1.8,3.3-2.4
						c1.3-0.6,2.8-0.9,4.4-0.9c1.2,0,2.3,0.2,3.3,0.5s2,0.8,2.8,1.5c0.8,0.6,1.5,1.4,2,2.4c0.5,1,0.9,2,1,3.3h-4.5
						C111,32.5,110.8,32,110.5,31.6z"/>
					<path class="st2" d="M120,25.9v21.2h-4.7V25.9H120z"/>
					<path class="st2" d="M132,25.9c0.9,0,1.8,0.1,2.6,0.5c0.8,0.3,1.4,0.7,2,1.3c0.6,0.5,1,1.2,1.2,1.9s0.4,1.5,0.4,2.3
						c0,1.2-0.3,2.3-0.8,3.2s-1.4,1.6-2.6,2.1v0.1c0.6,0.2,1.1,0.4,1.4,0.7c0.4,0.3,0.7,0.7,0.9,1.2c0.2,0.5,0.4,0.9,0.5,1.5
						c0.1,0.5,0.2,1.1,0.2,1.6c0,0.3,0,0.7,0.1,1.2s0.1,0.9,0.1,1.4c0.1,0.5,0.1,0.9,0.2,1.3c0.1,0.4,0.3,0.8,0.5,1.1h-4.7
						c-0.3-0.7-0.4-1.5-0.5-2.4s-0.1-1.8-0.3-2.7c-0.2-1.1-0.5-1.9-1-2.4c-0.5-0.5-1.4-0.8-2.5-0.8h-4.7v8.3h-4.7V25.9H132z
						 M130.4,35.5c1.1,0,1.9-0.2,2.4-0.7c0.5-0.5,0.8-1.2,0.8-2.3c0-1-0.3-1.8-0.8-2.2c-0.5-0.5-1.3-0.7-2.4-0.7h-5.1v6H130.4z"/>
					<path class="st2" d="M152.1,31.6c-0.3-0.5-0.6-0.8-1-1.2s-0.9-0.6-1.4-0.8s-1.1-0.3-1.6-0.3c-1.1,0-1.9,0.2-2.7,0.6
						c-0.7,0.4-1.3,1-1.8,1.6c-0.5,0.7-0.8,1.5-1,2.3c-0.2,0.9-0.3,1.8-0.3,2.7c0,0.9,0.1,1.8,0.3,2.6c0.2,0.8,0.5,1.6,1,2.3
						c0.5,0.7,1.1,1.2,1.8,1.6s1.6,0.6,2.7,0.6c1.4,0,2.5-0.4,3.4-1.3c0.8-0.9,1.3-2,1.5-3.5h4.5c-0.1,1.3-0.4,2.5-0.9,3.6
						c-0.5,1.1-1.1,2-2,2.7c-0.8,0.8-1.8,1.3-2.9,1.7c-1.1,0.4-2.3,0.6-3.6,0.6c-1.6,0-3.1-0.3-4.4-0.8s-2.4-1.3-3.3-2.3
						c-0.9-1-1.6-2.2-2.1-3.5c-0.5-1.3-0.7-2.8-0.7-4.3c0-1.6,0.2-3.1,0.7-4.4c0.5-1.4,1.2-2.5,2.1-3.6c0.9-1,2-1.8,3.3-2.4
						c1.3-0.6,2.8-0.9,4.4-0.9c1.2,0,2.3,0.2,3.3,0.5c1,0.3,2,0.8,2.8,1.5c0.8,0.6,1.5,1.4,2,2.4c0.5,1,0.9,2,1,3.3h-4.5
						C152.6,32.5,152.4,32,152.1,31.6z"/>
					<path class="st2" d="M172.6,45.5c-1.6,1.4-3.8,2.1-6.7,2.1c-2.9,0-5.1-0.7-6.7-2.1c-1.6-1.4-2.4-3.5-2.4-6.4V25.9h4.7v13.2
						c0,0.6,0.1,1.1,0.1,1.7c0.1,0.6,0.3,1,0.6,1.5c0.3,0.4,0.8,0.8,1.3,1c0.6,0.3,1.3,0.4,2.3,0.4c1.7,0,2.8-0.4,3.4-1.1
						c0.6-0.7,0.9-1.9,0.9-3.5V25.9h4.7v13.2C175,42,174.2,44.1,172.6,45.5z"/>
					<path class="st2" d="M180.1,25.9v21.2h-4.7V25.9H180.1z"/>
					<path class="st2" d="M178.9,29.8v-3.9h17.4v3.9H190v17.3h-4.7V29.8H178.9z"/>
				</g>
			</g>
			<g>
				<path class="st2" d="M56.9,6.6c0.8-0.8,1.6-1.5,2.5-2.1s1.9-1.2,2.8-1.7c1-0.5,2-0.9,3.1-1.3c1.1-0.3,2.2-0.6,3.3-0.7
					s2.3-0.2,3.4-0.2c1.2,0.1,2.3,0.3,3.4,0.7c1.1,0.4,2.1,1,3,1.6s1.8,1.4,2.5,2.3l-0.1,0.2c-1.1-0.4-2.1-0.8-3.1-1.1
					c-1-0.3-2-0.6-3-0.9c-1-0.2-2-0.5-3-0.6s-2-0.3-3.1-0.2c-1,0-2.1,0.2-3.1,0.4c-1,0.2-2,0.5-3,0.9c-1,0.4-2,0.8-2.9,1.3
					c-0.5,0.2-1,0.5-1.4,0.8c-0.5,0.3-0.9,0.6-1.3,0.9L56.9,6.6z"/>
				<path class="st2" d="M82.4,6.2c1,0.5,1.9,1.1,2.8,1.8s1.7,1.4,2.5,2.2c0.8,0.8,1.5,1.6,2.2,2.6c0.7,0.9,1.2,1.9,1.7,2.9
					c0.5,1,0.9,2.1,1.2,3.2c0.3,1.1,0.4,2.3,0.4,3.5c-0.1,1.2-0.2,2.3-0.6,3.4s-0.8,2.1-1.5,3.1L91,28.7c0-1.1,0.1-2.2,0.1-3.3
					c0-1,0-2.1-0.1-3.1c-0.1-1-0.2-2-0.3-3c-0.1-1-0.3-2-0.7-3s-0.8-1.9-1.3-2.8c-0.5-0.9-1.1-1.8-1.8-2.6s-1.4-1.6-2.1-2.4
					c-0.4-0.4-0.8-0.7-1.2-1.1c-0.4-0.3-0.8-0.7-1.3-1L82.4,6.2z"/>
				<path class="st2" d="M90.9,30.4c0,1.1-0.1,2.2-0.3,3.3c-0.2,1.1-0.5,2.2-0.8,3.2c-0.4,1-0.8,2.1-1.3,3.1c-0.5,1-1.2,1.9-1.9,2.8
					c-0.7,0.9-1.5,1.8-2.3,2.5c-0.9,0.8-1.9,1.4-2.9,1.9c-1.1,0.5-2.2,0.8-3.3,1c-1.1,0.2-2.3,0.2-3.4,0l0-0.2c1-0.5,2-0.9,3-1.3
					c0.9-0.5,1.9-0.9,2.7-1.5c0.9-0.5,1.7-1.1,2.6-1.6c0.8-0.6,1.7-1.2,2.4-2c0.7-0.7,1.4-1.6,1.9-2.4c0.6-0.9,1.1-1.8,1.6-2.7
					c0.5-1,0.9-2,1.2-3c0.2-0.5,0.3-1,0.5-1.5c0.1-0.5,0.3-1,0.3-1.6L90.9,30.4z"/>
				<path class="st2" d="M73.4,48.5c-1.1,0.3-2.1,0.5-3.2,0.7c-1.1,0.1-2.2,0.2-3.3,0.2c-1.1,0-2.2-0.1-3.3-0.3
					c-1.1-0.2-2.2-0.5-3.3-0.9s-2.1-0.9-3.1-1.5s-1.9-1.3-2.7-2.2c-0.8-0.9-1.4-1.8-1.9-2.8c-0.5-1-0.9-2.1-1.1-3.2l0.2-0.1
					c0.8,0.8,1.5,1.6,2.2,2.4c0.7,0.8,1.5,1.5,2.2,2.2c0.8,0.7,1.5,1.3,2.3,1.9c0.8,0.6,1.7,1.2,2.6,1.7s1.9,0.8,2.9,1.1
					c1,0.3,2,0.5,3.1,0.7c1.1,0.2,2.1,0.2,3.2,0.2c0.5,0,1.1,0,1.6,0c0.5,0,1.1-0.1,1.6-0.2L73.4,48.5z"/>
				<path class="st2" d="M50.7,37c-0.7-0.8-1.4-1.7-2-2.7c-0.6-0.9-1.1-1.9-1.5-2.9c-0.4-1-0.8-2.1-1.1-3.2
					c-0.3-1.1-0.5-2.2-0.5-3.4c-0.1-1.1-0.1-2.3,0-3.5c0.1-1.1,0.4-2.3,0.9-3.4c0.5-1.1,1.1-2.1,1.8-2.9c0.7-0.9,1.5-1.7,2.5-2.3
					l0.2,0.1c-0.4,1-0.9,2-1.3,3c-0.4,1-0.8,2-1,2.9c-0.3,1-0.6,1.9-0.8,2.9c-0.2,1-0.4,2-0.4,3c0,1,0,2.1,0.2,3.1
					c0.1,1,0.4,2.1,0.7,3.1c0.3,1,0.7,2,1.1,3c0.2,0.5,0.5,1,0.7,1.5s0.5,1,0.8,1.4L50.7,37z"/>
				<path class="st2" d="M78.8,11.2c0.7,0.3,1.4,0.7,2.1,1.2s1.3,1,1.9,1.5c0.6,0.6,1.2,1.2,1.7,1.8c0.5,0.7,1,1.4,1.4,2.1
					c0.4,0.8,0.8,1.5,1.1,2.3s0.4,1.7,0.5,2.5c0,0.9,0,1.7-0.2,2.5s-0.5,1.6-0.9,2.3l-0.2,0c-0.1-0.8-0.1-1.6-0.1-2.4
					c-0.1-0.8-0.1-1.5-0.2-2.3s-0.2-1.5-0.4-2.2s-0.4-1.5-0.7-2.2s-0.7-1.4-1.1-2c-0.4-0.7-0.9-1.3-1.4-1.9
					c-0.5-0.6-1.1-1.2-1.7-1.7c-0.3-0.3-0.6-0.5-0.9-0.8c-0.3-0.2-0.6-0.5-1-0.7L78.8,11.2z"/>
				<path class="st2" d="M86.2,28.8c-0.1,0.8-0.2,1.6-0.4,2.4c-0.2,0.8-0.4,1.6-0.8,2.3c-0.3,0.8-0.7,1.5-1.1,2.2
					c-0.4,0.7-0.9,1.3-1.5,2s-1.1,1.2-1.8,1.7c-0.7,0.5-1.4,0.9-2.2,1.2s-1.6,0.4-2.4,0.5c-0.8,0-1.6,0-2.4-0.2l0-0.2
					c0.8-0.3,1.5-0.5,2.2-0.8s1.4-0.6,2-0.9c0.7-0.3,1.3-0.7,1.9-1c0.6-0.4,1.2-0.8,1.8-1.3c0.6-0.5,1.1-1,1.5-1.7
					c0.5-0.6,0.9-1.2,1.2-1.9c0.4-0.7,0.7-1.4,1-2.1c0.1-0.4,0.3-0.7,0.4-1.1c0.1-0.4,0.2-0.8,0.3-1.1L86.2,28.8z"/>
				<path class="st2" d="M72.5,41c-0.7,0.3-1.5,0.5-2.3,0.6c-0.8,0.2-1.6,0.2-2.4,0.3c-0.8,0-1.6,0-2.4-0.1
					c-0.8-0.1-1.6-0.3-2.4-0.5c-0.8-0.3-1.6-0.6-2.3-1c-0.8-0.4-1.4-0.9-2-1.5c-0.6-0.6-1.1-1.3-1.5-2s-0.8-1.5-1-2.3l0.1-0.1
					c0.6,0.6,1.1,1.2,1.7,1.7c0.6,0.5,1.1,1,1.7,1.5c0.6,0.5,1.2,0.9,1.8,1.3c0.6,0.4,1.2,0.8,1.9,1.1c0.7,0.3,1.4,0.5,2.1,0.7
					c0.7,0.2,1.5,0.3,2.2,0.4c0.8,0.1,1.5,0.1,2.3,0c0.4,0,0.8,0,1.2-0.1c0.4,0,0.8-0.1,1.1-0.2L72.5,41z"/>
				<path class="st2" d="M55.7,33.7c-0.5-0.6-1-1.3-1.3-2c-0.4-0.7-0.7-1.5-1-2.2c-0.3-0.8-0.5-1.6-0.7-2.4
					c-0.2-0.8-0.3-1.7-0.3-2.5s0-1.7,0.1-2.5c0.1-0.9,0.3-1.7,0.7-2.4s0.8-1.5,1.3-2.1s1.1-1.2,1.8-1.6l0.1,0.1
					c-0.3,0.7-0.7,1.4-1,2.2c-0.3,0.7-0.6,1.4-0.8,2.1c-0.2,0.7-0.4,1.4-0.6,2.1c-0.2,0.7-0.3,1.5-0.4,2.2c0,0.8,0,1.5,0.1,2.3
					c0.1,0.8,0.2,1.5,0.4,2.3c0.2,0.8,0.4,1.5,0.7,2.3c0.2,0.4,0.3,0.7,0.5,1.1c0.2,0.4,0.3,0.7,0.5,1.1L55.7,33.7z"/>
				<path class="st2" d="M57.1,15c0.3-0.7,0.8-1.4,1.2-2.1c0.5-0.6,1-1.3,1.5-1.8c0.5-0.6,1.2-1.1,1.8-1.6C62.3,9,63,8.6,63.7,8.2
					c0.7-0.3,1.5-0.7,2.3-0.9s1.6-0.3,2.5-0.3s1.7,0.2,2.4,0.4c0.8,0.3,1.5,0.6,2.2,1.1L73,8.8c-0.8,0-1.6-0.1-2.3-0.1
					c-0.8,0-1.5,0-2.2,0.1c-0.7,0.1-1.4,0.1-2.2,0.2c-0.7,0.1-1.4,0.2-2.1,0.5c-0.7,0.2-1.4,0.6-2,0.9s-1.3,0.8-1.8,1.3
					c-0.6,0.5-1.2,1-1.7,1.6c-0.3,0.3-0.5,0.6-0.8,0.9c-0.2,0.3-0.5,0.6-0.7,0.9L57.1,15z"/>
				<path class="st2" d="M60.5,27.6c-0.2-0.4-0.4-0.9-0.6-1.4c-0.2-0.5-0.3-1-0.4-1.4c-0.1-0.5-0.1-1-0.2-1.5c0-0.5,0-1,0.1-1.5
					c0.1-0.5,0.2-1,0.3-1.5s0.4-1,0.7-1.4c0.3-0.4,0.7-0.8,1.1-1.1s0.8-0.6,1.3-0.8l0.1,0.1c-0.3,0.4-0.6,0.8-0.8,1.2
					c-0.3,0.4-0.5,0.8-0.7,1.2c-0.2,0.4-0.4,0.8-0.6,1.2s-0.4,0.8-0.5,1.3c-0.1,0.5-0.2,0.9-0.2,1.4c0,0.5,0,0.9,0,1.4
					c0,0.5,0.1,1,0.2,1.4c0,0.2,0.1,0.5,0.2,0.7C60.4,27.1,60.5,27.3,60.5,27.6L60.5,27.6z"/>
				<path class="st2" d="M63.4,16.5c0.3-0.4,0.7-0.7,1.1-1s0.8-0.6,1.2-0.8c0.4-0.2,0.9-0.4,1.4-0.6s1-0.3,1.5-0.4s1-0.1,1.5-0.1
					c0.5,0,1,0.1,1.5,0.2c0.5,0.2,0.9,0.4,1.4,0.7c0.4,0.3,0.8,0.6,1.1,1L74,15.6c-0.5-0.1-0.9-0.3-1.4-0.4
					c-0.4-0.1-0.9-0.2-1.3-0.3s-0.9-0.2-1.3-0.2c-0.4-0.1-0.9-0.1-1.3-0.1c-0.5,0-0.9,0.1-1.4,0.2c-0.4,0.1-0.9,0.3-1.3,0.4
					c-0.4,0.2-0.9,0.4-1.3,0.6c-0.2,0.1-0.4,0.2-0.6,0.4C63.9,16.3,63.7,16.4,63.4,16.5L63.4,16.5z"/>
				<path class="st2" d="M74.7,15.8c0.5,0.1,0.9,0.3,1.3,0.5c0.4,0.2,0.9,0.5,1.3,0.8c0.4,0.3,0.8,0.6,1.1,1c0.3,0.4,0.7,0.7,1,1.1
					s0.6,0.9,0.8,1.3s0.4,1,0.4,1.5s0.1,1,0,1.5s-0.2,1-0.4,1.5l-0.1,0c-0.1-0.5-0.1-1-0.2-1.4c-0.1-0.5-0.2-0.9-0.3-1.4
					c-0.1-0.4-0.2-0.9-0.4-1.3c-0.1-0.4-0.3-0.9-0.5-1.3s-0.5-0.8-0.8-1.1c-0.3-0.4-0.6-0.7-1-1c-0.3-0.3-0.7-0.6-1.1-0.9
					c-0.2-0.1-0.4-0.3-0.6-0.4c-0.2-0.1-0.4-0.2-0.6-0.3L74.7,15.8z"/>
				<path class="st2" d="M80.3,25.5c0,0.5,0,1-0.1,1.5c-0.1,0.5-0.2,1-0.3,1.5c-0.2,0.5-0.3,1-0.6,1.4c-0.2,0.5-0.5,0.9-0.8,1.3
					s-0.6,0.8-1,1.2c-0.4,0.4-0.8,0.7-1.3,0.9s-0.9,0.4-1.4,0.5c-0.5,0.1-1,0.1-1.5,0.1l0-0.1c0.4-0.2,0.9-0.4,1.3-0.7
					s0.8-0.5,1.2-0.7c0.4-0.2,0.8-0.5,1.1-0.8s0.7-0.6,1-0.9c0.3-0.3,0.6-0.7,0.8-1.1c0.2-0.4,0.5-0.8,0.7-1.2
					c0.2-0.4,0.3-0.9,0.5-1.3c0.1-0.2,0.1-0.5,0.2-0.7c0.1-0.2,0.1-0.5,0.1-0.7L80.3,25.5z"/>
				<path class="st2" d="M72.6,33.9c-0.4,0.2-0.9,0.4-1.4,0.5s-0.9,0.2-1.4,0.3c-0.5,0.1-1,0.1-1.5,0.1c-0.5,0-1-0.1-1.5-0.2
					s-1-0.2-1.5-0.4c-0.5-0.2-0.9-0.5-1.3-0.8s-0.7-0.7-1-1.1c-0.3-0.4-0.5-0.9-0.7-1.4l0.1-0.1c0.4,0.3,0.8,0.6,1.1,0.9
					c0.4,0.3,0.7,0.6,1.1,0.8c0.4,0.2,0.8,0.5,1.2,0.7s0.8,0.4,1.2,0.5c0.4,0.1,0.9,0.2,1.3,0.3s0.9,0.1,1.4,0.1
					c0.5,0,0.9,0,1.4-0.1c0.2,0,0.5-0.1,0.7-0.1c0.2,0,0.5-0.1,0.7-0.2L72.6,33.9z"/>
			</g>
		</g>
	</g>
</g>
<g id="Capa_2">
	<g>
		<g>
			<g>
				<path class="st3" d="M100,19.3c0.3,0.5,0.6,0.9,1,1.2c0.4,0.3,0.9,0.5,1.5,0.7c0.6,0.1,1.2,0.2,1.8,0.2c0.4,0,0.9,0,1.4-0.1
					c0.5-0.1,0.9-0.2,1.3-0.4c0.4-0.2,0.8-0.5,1.1-0.8c0.3-0.3,0.4-0.8,0.4-1.3c0-0.6-0.2-1.1-0.6-1.4c-0.4-0.4-0.9-0.7-1.5-0.9
					c-0.6-0.2-1.3-0.5-2-0.6c-0.8-0.2-1.5-0.4-2.3-0.6c-0.8-0.2-1.6-0.4-2.3-0.7c-0.8-0.3-1.4-0.7-2-1.1c-0.6-0.5-1.1-1-1.5-1.7
					c-0.4-0.7-0.6-1.5-0.6-2.5C95.8,8,96,7,96.5,6.2c0.5-0.8,1.1-1.5,1.8-2c0.8-0.5,1.6-0.9,2.6-1.2c1-0.3,1.9-0.4,2.9-0.4
					c1.1,0,2.2,0.1,3.2,0.4c1,0.3,1.9,0.7,2.7,1.2c0.8,0.6,1.4,1.3,1.9,2.1c0.5,0.9,0.7,1.9,0.7,3.2h-4.6c0-0.6-0.2-1.2-0.4-1.6
					c-0.2-0.4-0.5-0.8-0.9-1c-0.4-0.2-0.8-0.4-1.3-0.5c-0.5-0.1-1-0.1-1.6-0.1c-0.4,0-0.8,0-1.1,0.1c-0.4,0.1-0.7,0.2-1,0.4
					c-0.3,0.2-0.6,0.4-0.8,0.8c-0.2,0.3-0.3,0.7-0.3,1.1c0,0.4,0.1,0.8,0.2,1c0.2,0.3,0.5,0.5,0.9,0.7c0.5,0.2,1.1,0.4,2,0.7
					c0.8,0.2,1.9,0.5,3.3,0.8c0.4,0.1,1,0.2,1.7,0.4c0.7,0.2,1.4,0.5,2.1,1c0.7,0.5,1.3,1.1,1.8,1.8c0.5,0.8,0.8,1.8,0.8,3
					c0,1-0.2,1.9-0.6,2.7c-0.4,0.8-0.9,1.6-1.7,2.2c-0.8,0.6-1.7,1.1-2.8,1.4c-1.1,0.3-2.4,0.5-3.9,0.5c-1.2,0-2.3-0.1-3.4-0.4
					c-1.1-0.3-2.1-0.7-2.9-1.4c-0.9-0.6-1.5-1.4-2-2.4c-0.5-1-0.7-2.1-0.7-3.4h4.6C99.6,18.1,99.7,18.8,100,19.3z"/>
				<path class="st3" d="M128,22.9c-1.6,1.4-3.9,2.1-6.7,2.1c-2.9,0-5.1-0.7-6.7-2.1c-1.6-1.4-2.4-3.6-2.4-6.5V3.1h4.7v13.3
					c0,0.6,0.1,1.2,0.2,1.7c0.1,0.6,0.3,1.1,0.6,1.5c0.3,0.4,0.8,0.8,1.3,1c0.6,0.3,1.3,0.4,2.3,0.4c1.7,0,2.8-0.4,3.5-1.1
					c0.6-0.7,1-1.9,1-3.5V3.1h4.7v13.3C130.5,19.3,129.7,21.5,128,22.9z"/>
				<path class="st3" d="M140.6,3.1c1.3,0,2.5,0.2,3.4,0.6c0.9,0.4,1.7,0.9,2.3,1.5c0.6,0.6,1,1.4,1.3,2.2c0.3,0.8,0.4,1.7,0.4,2.6
					c0,0.9-0.1,1.7-0.4,2.5c-0.3,0.8-0.7,1.6-1.3,2.2c-0.6,0.6-1.4,1.2-2.3,1.5c-0.9,0.4-2.1,0.6-3.4,0.6h-5v7.7h-4.7V3.1H140.6z
					 M139.3,13.2c0.5,0,1.1,0,1.6-0.1c0.5-0.1,0.9-0.2,1.3-0.5c0.4-0.2,0.7-0.6,0.9-1c0.2-0.4,0.3-1,0.3-1.7s-0.1-1.2-0.3-1.7
					c-0.2-0.4-0.5-0.7-0.9-1c-0.4-0.2-0.8-0.4-1.3-0.5c-0.5-0.1-1-0.1-1.6-0.1h-3.7v6.4H139.3z"/>
				<path class="st3" d="M163.4,3.1v4h-11.3v4.6h10.4v3.7h-10.4v5.3h11.6v4h-16.3V3.1H163.4z"/>
				<path class="st3" d="M174.7,3.1c1,0,1.8,0.2,2.6,0.5c0.8,0.3,1.4,0.7,2,1.3c0.5,0.5,1,1.2,1.3,1.9c0.3,0.7,0.4,1.5,0.4,2.3
					c0,1.3-0.3,2.4-0.8,3.3c-0.5,0.9-1.4,1.6-2.6,2.1v0.1c0.6,0.2,1.1,0.4,1.4,0.7c0.4,0.3,0.7,0.7,0.9,1.2c0.2,0.5,0.4,0.9,0.5,1.5
					c0.1,0.5,0.2,1.1,0.2,1.6c0,0.3,0,0.7,0.1,1.2c0,0.5,0.1,0.9,0.1,1.4c0,0.5,0.1,0.9,0.2,1.4c0.1,0.4,0.3,0.8,0.5,1.1h-4.7
					c-0.3-0.7-0.4-1.5-0.5-2.4c-0.1-0.9-0.1-1.8-0.3-2.7c-0.2-1.1-0.5-1.9-1-2.5c-0.5-0.5-1.4-0.8-2.6-0.8h-4.7v8.4h-4.7V3.1H174.7z
					 M173.1,12.8c1.1,0,1.9-0.2,2.4-0.7c0.5-0.5,0.8-1.3,0.8-2.3c0-1-0.3-1.8-0.8-2.3c-0.5-0.5-1.4-0.7-2.4-0.7h-5.2v6H173.1z"/>
				<path class="st3" d="M191.3,3.1c1,0,2,0.1,2.8,0.3c0.8,0.2,1.6,0.5,2.2,0.9c0.6,0.4,1.1,1,1.4,1.6c0.3,0.7,0.5,1.5,0.5,2.5
					c0,1.1-0.2,2-0.7,2.7c-0.5,0.7-1.2,1.3-2.2,1.8c1.3,0.4,2.3,1,3,2s1,2.1,1,3.4c0,1.1-0.2,2-0.6,2.8c-0.4,0.8-1,1.4-1.7,1.9
					c-0.7,0.5-1.5,0.9-2.4,1.1c-0.9,0.2-1.8,0.4-2.8,0.4h-10.4V3.1H191.3z M190.7,11.8c0.8,0,1.5-0.2,2.1-0.6c0.5-0.4,0.8-1.1,0.8-2
					c0-0.5-0.1-0.9-0.3-1.2c-0.2-0.3-0.4-0.6-0.7-0.8c-0.3-0.2-0.6-0.3-1-0.4c-0.4-0.1-0.8-0.1-1.2-0.1H186v5H190.7z M191,20.9
					c0.5,0,0.9,0,1.3-0.1c0.4-0.1,0.8-0.2,1.1-0.4c0.3-0.2,0.6-0.5,0.8-0.9c0.2-0.4,0.3-0.8,0.3-1.4c0-1.1-0.3-1.9-0.9-2.4
					c-0.6-0.5-1.4-0.7-2.5-0.7H186v5.9H191z"/>
				<path class="st3" d="M198.6,9.5c0.5-1.4,1.2-2.6,2.1-3.6c0.9-1,2-1.8,3.3-2.4c1.3-0.6,2.8-0.9,4.4-0.9c1.7,0,3.1,0.3,4.4,0.9
					c1.3,0.6,2.4,1.4,3.3,2.4c0.9,1,1.6,2.2,2.1,3.6c0.5,1.4,0.7,2.9,0.7,4.5c0,1.6-0.2,3-0.7,4.4c-0.5,1.4-1.2,2.5-2.1,3.5
					c-0.9,1-2,1.8-3.3,2.4c-1.3,0.6-2.8,0.9-4.4,0.9c-1.6,0-3.1-0.3-4.4-0.9c-1.3-0.6-2.4-1.4-3.3-2.4c-0.9-1-1.6-2.2-2.1-3.5
					c-0.5-1.4-0.7-2.8-0.7-4.4C197.9,12.3,198.1,10.8,198.6,9.5z M202.9,16.5c0.2,0.9,0.5,1.6,1,2.3c0.5,0.7,1.1,1.2,1.8,1.6
					c0.7,0.4,1.6,0.6,2.7,0.6c1.1,0,2-0.2,2.7-0.6c0.7-0.4,1.3-1,1.8-1.6c0.5-0.7,0.8-1.4,1-2.3c0.2-0.9,0.3-1.7,0.3-2.6
					c0-0.9-0.1-1.9-0.3-2.7c-0.2-0.9-0.5-1.7-1-2.4c-0.5-0.7-1.1-1.2-1.8-1.7c-0.7-0.4-1.6-0.6-2.7-0.6c-1.1,0-2,0.2-2.7,0.6
					c-0.7,0.4-1.3,1-1.8,1.7c-0.5,0.7-0.8,1.5-1,2.4c-0.2,0.9-0.3,1.8-0.3,2.7C202.6,14.8,202.7,15.7,202.9,16.5z"/>
				<path class="st3" d="M227.8,3.1c1.4,0,2.7,0.2,3.9,0.7c1.2,0.4,2.2,1.1,3.1,2c0.9,0.9,1.6,2,2,3.3c0.5,1.3,0.7,2.9,0.7,4.7
					c0,1.6-0.2,3-0.6,4.3c-0.4,1.3-1,2.5-1.8,3.4c-0.8,1-1.8,1.7-3,2.3c-1.2,0.6-2.6,0.8-4.3,0.8h-9.2V3.1H227.8z M227.4,20.6
					c0.7,0,1.3-0.1,2-0.3c0.6-0.2,1.2-0.6,1.7-1.1c0.5-0.5,0.9-1.2,1.2-2c0.3-0.8,0.5-1.8,0.5-3c0-1.1-0.1-2.1-0.3-2.9
					c-0.2-0.9-0.6-1.6-1-2.2c-0.5-0.6-1.1-1.1-1.9-1.4c-0.8-0.3-1.8-0.5-2.9-0.5h-3.4v13.5H227.4z"/>
				<path class="st3" d="M234.9,3.1h5.3l5,8.5l5-8.5h5.3l-8,13.2v8.2h-4.7v-8.3L234.9,3.1z"/>
			</g>
			<g>
				<linearGradient id="SVGID_1_" gradientUnits="userSpaceOnUse" x1="105.4527" y1="25.495" x2="105.4527" y2="68.8149">
					<stop  offset="0" style="stop-color:#ABABAA"/>
					<stop  offset="1" style="stop-color:#FFFFFF"/>
				</linearGradient>
				<path class="st4" d="M110.2,32c-0.3-0.5-0.6-0.8-1.1-1.2c-0.4-0.3-0.9-0.6-1.4-0.8c-0.5-0.2-1.1-0.3-1.7-0.3
					c-1.1,0-2,0.2-2.7,0.6c-0.7,0.4-1.3,1-1.8,1.7c-0.5,0.7-0.8,1.5-1,2.4c-0.2,0.9-0.3,1.8-0.3,2.7c0,0.9,0.1,1.8,0.3,2.6
					c0.2,0.8,0.5,1.6,1,2.3c0.5,0.7,1.1,1.2,1.8,1.6c0.7,0.4,1.6,0.6,2.7,0.6c1.4,0,2.6-0.4,3.4-1.3c0.8-0.9,1.3-2,1.5-3.5h4.6
					c-0.1,1.3-0.4,2.6-0.9,3.6c-0.5,1.1-1.2,2-2,2.8c-0.8,0.8-1.8,1.3-2.9,1.7c-1.1,0.4-2.3,0.6-3.6,0.6c-1.6,0-3.1-0.3-4.4-0.9
					c-1.3-0.6-2.4-1.4-3.3-2.4c-0.9-1-1.6-2.2-2.1-3.5c-0.5-1.4-0.7-2.8-0.7-4.4c0-1.6,0.2-3.1,0.7-4.5c0.5-1.4,1.2-2.6,2.1-3.6
					c0.9-1,2-1.8,3.3-2.4c1.3-0.6,2.8-0.9,4.4-0.9c1.2,0,2.3,0.2,3.3,0.5c1.1,0.3,2,0.8,2.8,1.5c0.8,0.7,1.5,1.5,2.1,2.4
					c0.5,1,0.9,2.1,1,3.3h-4.6C110.6,33,110.4,32.5,110.2,32z"/>
				
					<linearGradient id="SVGID_00000182494009348496174480000006647706535739772831_" gradientUnits="userSpaceOnUse" x1="117.3989" y1="25.4946" x2="117.3989" y2="68.815">
					<stop  offset="0" style="stop-color:#ABABAA"/>
					<stop  offset="1" style="stop-color:#FFFFFF"/>
				</linearGradient>
				<path style="fill:url(#SVGID_00000182494009348496174480000006647706535739772831_);" d="M119.8,26.3v21.4H115V26.3H119.8z"/>
				
					<linearGradient id="SVGID_00000096032202733141568820000000627363257682474633_" gradientUnits="userSpaceOnUse" x1="129.5252" y1="25.4946" x2="129.5252" y2="68.815">
					<stop  offset="0" style="stop-color:#ABABAA"/>
					<stop  offset="1" style="stop-color:#FFFFFF"/>
				</linearGradient>
				<path style="fill:url(#SVGID_00000096032202733141568820000000627363257682474633_);" d="M131.9,26.3c1,0,1.8,0.2,2.6,0.5
					c0.8,0.3,1.4,0.7,2,1.3c0.6,0.5,1,1.2,1.3,1.9c0.3,0.7,0.4,1.5,0.4,2.3c0,1.3-0.3,2.4-0.8,3.3c-0.5,0.9-1.4,1.6-2.6,2.1v0.1
					c0.6,0.2,1.1,0.4,1.4,0.7c0.4,0.3,0.7,0.7,0.9,1.2c0.2,0.5,0.4,0.9,0.5,1.5c0.1,0.5,0.2,1.1,0.2,1.6c0,0.3,0,0.7,0.1,1.2
					c0,0.5,0.1,0.9,0.1,1.4c0,0.5,0.1,0.9,0.2,1.4c0.1,0.4,0.3,0.8,0.5,1.1H134c-0.3-0.7-0.4-1.5-0.5-2.4c-0.1-0.9-0.1-1.8-0.3-2.7
					c-0.2-1.1-0.5-1.9-1-2.5c-0.5-0.5-1.4-0.8-2.6-0.8H125v8.4h-4.7V26.3H131.9z M130.2,36c1.1,0,1.9-0.2,2.4-0.7
					c0.5-0.5,0.8-1.3,0.8-2.3c0-1-0.3-1.8-0.8-2.3c-0.5-0.5-1.4-0.7-2.4-0.7H125v6H130.2z"/>
				
					<linearGradient id="SVGID_00000008855607745348441810000000562727632994304408_" gradientUnits="userSpaceOnUse" x1="147.4133" y1="25.495" x2="147.4133" y2="68.8149">
					<stop  offset="0" style="stop-color:#ABABAA"/>
					<stop  offset="1" style="stop-color:#FFFFFF"/>
				</linearGradient>
				<path style="fill:url(#SVGID_00000008855607745348441810000000562727632994304408_);" d="M152.1,32c-0.3-0.5-0.6-0.8-1.1-1.2
					c-0.4-0.3-0.9-0.6-1.4-0.8c-0.5-0.2-1.1-0.3-1.7-0.3c-1.1,0-2,0.2-2.7,0.6c-0.7,0.4-1.3,1-1.8,1.7c-0.5,0.7-0.8,1.5-1,2.4
					c-0.2,0.9-0.3,1.8-0.3,2.7c0,0.9,0.1,1.8,0.3,2.6c0.2,0.8,0.5,1.6,1,2.3c0.5,0.7,1.1,1.2,1.8,1.6c0.7,0.4,1.6,0.6,2.7,0.6
					c1.4,0,2.6-0.4,3.4-1.3c0.8-0.9,1.3-2,1.5-3.5h4.6c-0.1,1.3-0.4,2.6-0.9,3.6c-0.5,1.1-1.2,2-2,2.8c-0.8,0.8-1.8,1.3-2.9,1.7
					c-1.1,0.4-2.3,0.6-3.6,0.6c-1.6,0-3.1-0.3-4.4-0.9c-1.3-0.6-2.4-1.4-3.3-2.4c-0.9-1-1.6-2.2-2.1-3.5c-0.5-1.4-0.7-2.8-0.7-4.4
					c0-1.6,0.2-3.1,0.7-4.5c0.5-1.4,1.2-2.6,2.1-3.6c0.9-1,2-1.8,3.3-2.4c1.3-0.6,2.8-0.9,4.4-0.9c1.2,0,2.3,0.2,3.3,0.5
					c1,0.3,2,0.8,2.8,1.5c0.8,0.7,1.5,1.5,2.1,2.4c0.5,1,0.9,2.1,1,3.3h-4.6C152.6,33,152.4,32.5,152.1,32z"/>
				
					<linearGradient id="SVGID_00000149360586553670025970000009880717521429179776_" gradientUnits="userSpaceOnUse" x1="166.0526" y1="25.4946" x2="166.0526" y2="68.8154">
					<stop  offset="0" style="stop-color:#ABABAA"/>
					<stop  offset="1" style="stop-color:#FFFFFF"/>
				</linearGradient>
				<path style="fill:url(#SVGID_00000149360586553670025970000009880717521429179776_);" d="M172.8,46.1c-1.6,1.4-3.9,2.1-6.7,2.1
					c-2.9,0-5.1-0.7-6.7-2.1c-1.6-1.4-2.4-3.6-2.4-6.5V26.3h4.7v13.3c0,0.6,0,1.2,0.1,1.7c0.1,0.6,0.3,1.1,0.6,1.5
					c0.3,0.4,0.8,0.8,1.3,1.1c0.6,0.3,1.3,0.4,2.3,0.4c1.7,0,2.8-0.4,3.5-1.1c0.6-0.7,1-1.9,1-3.5V26.3h4.7v13.3
					C175.2,42.5,174.4,44.7,172.8,46.1z"/>
				
					<linearGradient id="SVGID_00000011739670247600189190000011043093803547199674_" gradientUnits="userSpaceOnUse" x1="177.9987" y1="25.4946" x2="177.9987" y2="68.815">
					<stop  offset="0" style="stop-color:#ABABAA"/>
					<stop  offset="1" style="stop-color:#FFFFFF"/>
				</linearGradient>
				<path style="fill:url(#SVGID_00000011739670247600189190000011043093803547199674_);" d="M180.4,26.3v21.4h-4.7V26.3H180.4z"/>
				
					<linearGradient id="SVGID_00000093165512663192110430000014529978857363847843_" gradientUnits="userSpaceOnUse" x1="187.9931" y1="25.4946" x2="187.9931" y2="68.815">
					<stop  offset="0" style="stop-color:#ABABAA"/>
					<stop  offset="1" style="stop-color:#FFFFFF"/>
				</linearGradient>
				<path style="fill:url(#SVGID_00000093165512663192110430000014529978857363847843_);" d="M179.2,30.3v-4h17.6v4h-6.4v17.5h-4.7
					V30.3H179.2z"/>
			</g>
		</g>
		<g>
			<path class="st11" d="M56,6.8c0.8-0.8,1.7-1.5,2.6-2.1c0.9-0.6,1.9-1.2,2.9-1.7c1-0.5,2.1-0.9,3.1-1.3C65.7,1.4,66.8,1.1,68,1
				c1.1-0.1,2.3-0.2,3.5-0.2c1.2,0.1,2.3,0.3,3.4,0.7C76,1.9,77,2.5,78,3.1c0.9,0.7,1.8,1.4,2.5,2.4l-0.1,0.2
				c-1.1-0.4-2.1-0.8-3.1-1.1c-1-0.3-2-0.6-3-0.9c-1-0.2-2-0.5-3-0.6c-1-0.2-2-0.3-3.1-0.3c-1,0-2.1,0.2-3.1,0.4
				c-1,0.2-2.1,0.5-3.1,0.9c-1,0.4-2,0.8-3,1.3c-0.5,0.2-1,0.5-1.4,0.8c-0.5,0.3-0.9,0.6-1.4,0.9L56,6.8z"/>
			<path class="st12" d="M81.8,6.4c1,0.5,1.9,1.1,2.8,1.8c0.9,0.7,1.7,1.4,2.5,2.2c0.8,0.8,1.5,1.7,2.2,2.6c0.7,0.9,1.2,1.9,1.7,3
				c0.5,1,0.9,2.1,1.2,3.3c0.3,1.1,0.4,2.3,0.4,3.5c-0.1,1.2-0.3,2.3-0.6,3.4c-0.3,1.1-0.8,2.1-1.5,3.1l-0.2-0.1
				c0-1.1,0.1-2.2,0.1-3.3c0-1.1,0-2.1-0.1-3.1c-0.1-1-0.2-2-0.3-3c-0.1-1-0.4-2-0.7-3c-0.4-1-0.8-1.9-1.3-2.9
				c-0.5-0.9-1.1-1.8-1.8-2.7c-0.7-0.8-1.4-1.7-2.1-2.4C83.8,8.4,83.4,8,83,7.6c-0.4-0.4-0.8-0.7-1.3-1L81.8,6.4z"/>
			<path class="st13" d="M90.4,30.8c0,1.1-0.1,2.2-0.3,3.3c-0.2,1.1-0.5,2.2-0.9,3.2c-0.4,1.1-0.8,2.1-1.4,3.1c-0.5,1-1.2,2-1.9,2.9
				c-0.7,0.9-1.5,1.8-2.4,2.5c-0.9,0.8-1.9,1.4-2.9,1.9c-1.1,0.5-2.2,0.8-3.3,1c-1.1,0.2-2.3,0.2-3.4,0l0-0.2c1-0.5,2-0.9,3-1.4
				c1-0.5,1.9-0.9,2.8-1.5c0.9-0.5,1.7-1.1,2.6-1.6c0.8-0.6,1.7-1.2,2.4-2c0.7-0.7,1.4-1.6,2-2.4c0.6-0.9,1.1-1.8,1.6-2.8
				c0.5-1,0.9-2,1.2-3c0.2-0.5,0.3-1,0.5-1.6c0.1-0.5,0.3-1.1,0.3-1.6L90.4,30.8z"/>
			<path class="st14" d="M72.7,49.2c-1.1,0.3-2.2,0.5-3.3,0.7C68.4,50,67.2,50,66.1,50c-1.1,0-2.3-0.1-3.4-0.3
				c-1.1-0.2-2.2-0.5-3.3-0.9c-1.1-0.4-2.1-0.9-3.2-1.5c-1-0.6-1.9-1.3-2.7-2.2c-0.8-0.9-1.4-1.8-2-2.9c-0.5-1-0.9-2.1-1.1-3.2
				l0.2-0.1c0.8,0.8,1.5,1.7,2.2,2.4c0.7,0.8,1.5,1.5,2.2,2.2c0.8,0.7,1.6,1.3,2.4,2c0.8,0.6,1.7,1.2,2.6,1.7
				c0.9,0.5,1.9,0.8,2.9,1.1c1,0.3,2.1,0.5,3.1,0.7c1.1,0.2,2.1,0.2,3.2,0.2c0.5,0,1.1,0,1.6,0c0.5,0,1.1-0.1,1.6-0.2L72.7,49.2z"/>
			<path class="st15" d="M49.8,37.5c-0.7-0.8-1.4-1.7-2-2.7c-0.6-0.9-1.1-1.9-1.6-3c-0.4-1-0.8-2.1-1.1-3.2
				c-0.3-1.1-0.5-2.2-0.5-3.4c-0.1-1.1-0.1-2.3,0-3.5c0.1-1.2,0.4-2.3,0.9-3.4c0.5-1.1,1.1-2.1,1.8-3c0.7-0.9,1.5-1.7,2.5-2.3
				l0.2,0.1c-0.4,1-0.9,2-1.3,3c-0.4,1-0.8,2-1.1,2.9c-0.3,1-0.6,2-0.8,3c-0.2,1-0.4,2-0.4,3.1c0,1,0,2.1,0.2,3.1
				c0.1,1,0.4,2.1,0.7,3.1c0.3,1,0.7,2,1.1,3c0.2,0.5,0.5,1,0.7,1.5c0.3,0.5,0.5,1,0.8,1.4L49.8,37.5z"/>
			<path class="st11" d="M78.2,11.5c0.7,0.3,1.4,0.7,2.1,1.2c0.7,0.5,1.3,1,1.9,1.5c0.6,0.6,1.2,1.2,1.7,1.8c0.5,0.7,1,1.4,1.4,2.1
				c0.4,0.8,0.8,1.5,1.1,2.4c0.3,0.8,0.5,1.7,0.5,2.6c0,0.9,0,1.7-0.2,2.5c-0.2,0.8-0.5,1.6-0.9,2.3l-0.2,0c0-0.8-0.1-1.6-0.1-2.4
				c0-0.8-0.1-1.6-0.2-2.3c-0.1-0.8-0.2-1.5-0.4-2.2c-0.2-0.7-0.4-1.5-0.7-2.2c-0.3-0.7-0.7-1.4-1.1-2.1c-0.4-0.7-0.9-1.3-1.4-1.9
				c-0.5-0.6-1.1-1.2-1.7-1.7c-0.3-0.3-0.6-0.5-0.9-0.8c-0.3-0.2-0.6-0.5-1-0.7L78.2,11.5z"/>
			<path class="st12" d="M85.6,29.2c-0.1,0.8-0.2,1.6-0.4,2.4c-0.2,0.8-0.5,1.6-0.8,2.3c-0.3,0.8-0.7,1.5-1.1,2.2
				c-0.4,0.7-0.9,1.4-1.5,2c-0.6,0.6-1.1,1.2-1.8,1.7c-0.7,0.5-1.4,0.9-2.2,1.2c-0.8,0.3-1.6,0.4-2.4,0.5c-0.8,0.1-1.6,0-2.4-0.2
				l0-0.2c0.8-0.3,1.5-0.5,2.2-0.8c0.7-0.3,1.4-0.6,2-0.9c0.7-0.3,1.3-0.7,1.9-1c0.6-0.4,1.2-0.8,1.8-1.3c0.6-0.5,1.1-1.1,1.5-1.7
				c0.5-0.6,0.9-1.2,1.3-1.9c0.4-0.7,0.7-1.4,1-2.1c0.1-0.4,0.3-0.7,0.4-1.1c0.1-0.4,0.2-0.8,0.3-1.1L85.6,29.2z"/>
			<path class="st13" d="M71.8,41.5c-0.7,0.3-1.5,0.5-2.3,0.6c-0.8,0.1-1.6,0.2-2.4,0.3c-0.8,0-1.6,0-2.4-0.1
				c-0.8-0.1-1.6-0.3-2.4-0.6c-0.8-0.3-1.6-0.6-2.3-1c-0.8-0.4-1.5-0.9-2.1-1.5c-0.6-0.6-1.1-1.3-1.6-2c-0.4-0.7-0.8-1.5-1-2.4
				l0.1-0.1c0.6,0.6,1.2,1.2,1.7,1.7c0.6,0.5,1.1,1.1,1.7,1.5c0.6,0.5,1.2,0.9,1.8,1.4c0.6,0.4,1.3,0.8,2,1.1
				c0.7,0.3,1.4,0.5,2.2,0.7c0.7,0.2,1.5,0.3,2.3,0.4c0.8,0.1,1.5,0.1,2.3,0c0.4,0,0.8,0,1.2-0.1c0.4,0,0.8-0.1,1.1-0.2L71.8,41.5z"
				/>
			<path class="st14" d="M54.9,34.2c-0.5-0.6-1-1.3-1.4-2.1c-0.4-0.7-0.7-1.5-1-2.3c-0.3-0.8-0.5-1.6-0.7-2.4
				c-0.2-0.8-0.3-1.7-0.3-2.5c0-0.9,0-1.7,0.1-2.6c0.1-0.9,0.4-1.7,0.7-2.5c0.4-0.8,0.8-1.5,1.4-2.1c0.5-0.6,1.1-1.2,1.8-1.6
				l0.1,0.1c-0.3,0.8-0.7,1.5-1,2.2c-0.3,0.7-0.6,1.4-0.8,2.1c-0.2,0.7-0.4,1.4-0.6,2.1c-0.2,0.7-0.3,1.5-0.4,2.2
				c0,0.8,0,1.5,0.1,2.3c0.1,0.8,0.2,1.6,0.4,2.3c0.2,0.8,0.4,1.5,0.7,2.3c0.1,0.4,0.3,0.7,0.5,1.1c0.2,0.4,0.4,0.7,0.6,1.1
				L54.9,34.2z"/>
			<path class="st15" d="M56.2,15.3c0.3-0.7,0.8-1.4,1.2-2.1c0.5-0.7,1-1.3,1.5-1.9c0.6-0.6,1.2-1.1,1.8-1.6
				c0.7-0.5,1.4-0.9,2.1-1.3c0.7-0.4,1.5-0.7,2.3-0.9c0.8-0.2,1.6-0.3,2.5-0.3c0.8,0,1.7,0.2,2.5,0.5c0.8,0.3,1.5,0.6,2.2,1.1l0,0.2
				C71.5,9,70.7,9,70,9c-0.8,0-1.5,0-2.2,0.1c-0.7,0.1-1.5,0.1-2.2,0.2c-0.7,0.1-1.5,0.2-2.1,0.5c-0.7,0.3-1.4,0.6-2,1
				c-0.7,0.4-1.3,0.8-1.9,1.3c-0.6,0.5-1.2,1-1.7,1.6c-0.3,0.3-0.5,0.6-0.8,0.9c-0.2,0.3-0.5,0.6-0.7,0.9L56.2,15.3z"/>
			<path class="st11" d="M59.7,28c-0.2-0.4-0.4-0.9-0.6-1.4c-0.2-0.5-0.3-1-0.4-1.4c-0.1-0.5-0.1-1-0.2-1.5c0-0.5,0-1,0.1-1.5
				c0.1-0.5,0.2-1,0.4-1.5c0.2-0.5,0.4-1,0.7-1.4c0.3-0.4,0.7-0.8,1.1-1.1c0.4-0.3,0.8-0.6,1.3-0.8l0.1,0.1
				c-0.3,0.4-0.6,0.8-0.9,1.2c-0.3,0.4-0.5,0.8-0.7,1.2c-0.2,0.4-0.4,0.8-0.6,1.2c-0.2,0.4-0.4,0.8-0.5,1.3
				c-0.1,0.5-0.2,0.9-0.2,1.4c0,0.5,0,0.9,0,1.4c0,0.5,0.1,1,0.2,1.4c0,0.2,0.1,0.5,0.2,0.7C59.6,27.5,59.7,27.7,59.7,28L59.7,28z"
				/>
			<path class="st12" d="M62.7,16.9c0.3-0.4,0.7-0.7,1.1-1c0.4-0.3,0.8-0.6,1.2-0.8c0.4-0.2,0.9-0.5,1.4-0.6c0.5-0.2,1-0.3,1.5-0.4
				c0.5-0.1,1-0.1,1.5-0.1c0.5,0,1,0.1,1.5,0.3c0.5,0.2,1,0.4,1.4,0.7c0.4,0.3,0.8,0.6,1.1,1l-0.1,0.1c-0.5-0.1-0.9-0.3-1.4-0.4
				c-0.4-0.1-0.9-0.2-1.3-0.3c-0.4-0.1-0.9-0.2-1.3-0.2c-0.4-0.1-0.9-0.1-1.4-0.1c-0.5,0-0.9,0.1-1.4,0.2c-0.5,0.1-0.9,0.3-1.3,0.4
				c-0.4,0.2-0.9,0.4-1.3,0.6c-0.2,0.1-0.4,0.2-0.6,0.4C63.1,16.6,62.9,16.8,62.7,16.9L62.7,16.9z"/>
			<path class="st13" d="M74.1,16.2c0.5,0.1,0.9,0.3,1.4,0.6c0.4,0.2,0.9,0.5,1.3,0.8c0.4,0.3,0.8,0.6,1.2,1c0.4,0.4,0.7,0.7,1,1.2
				c0.3,0.4,0.6,0.9,0.8,1.3c0.2,0.5,0.4,1,0.4,1.5c0.1,0.5,0.1,1,0,1.6c-0.1,0.5-0.2,1-0.4,1.5l-0.1,0c-0.1-0.5-0.1-1-0.2-1.5
				c-0.1-0.5-0.2-0.9-0.3-1.4c-0.1-0.4-0.2-0.9-0.4-1.3c-0.1-0.4-0.3-0.9-0.5-1.3c-0.2-0.4-0.5-0.8-0.8-1.1c-0.3-0.4-0.6-0.7-1-1
				c-0.4-0.3-0.7-0.6-1.1-0.9c-0.2-0.1-0.4-0.3-0.6-0.4C74.5,16.5,74.2,16.4,74.1,16.2L74.1,16.2z"/>
			<path class="st14" d="M79.7,26c0,0.5,0,1-0.1,1.5c-0.1,0.5-0.2,1-0.3,1.5c-0.1,0.5-0.3,1-0.6,1.4c-0.2,0.5-0.5,0.9-0.8,1.3
				c-0.3,0.4-0.6,0.8-1,1.2c-0.4,0.4-0.8,0.7-1.3,0.9c-0.5,0.2-1,0.4-1.5,0.5c-0.5,0.1-1,0.1-1.5,0.1l0-0.1c0.4-0.2,0.9-0.4,1.3-0.7
				c0.4-0.2,0.8-0.5,1.2-0.7c0.4-0.3,0.8-0.5,1.1-0.8c0.4-0.3,0.7-0.6,1-0.9c0.3-0.3,0.6-0.7,0.8-1.1c0.3-0.4,0.5-0.8,0.7-1.3
				c0.2-0.4,0.4-0.9,0.5-1.4c0.1-0.2,0.1-0.5,0.2-0.7C79.5,26.4,79.5,26.2,79.7,26L79.7,26z"/>
			<path class="st15" d="M71.9,34.4c-0.4,0.2-0.9,0.4-1.4,0.5c-0.5,0.1-1,0.2-1.5,0.3c-0.5,0.1-1,0.1-1.5,0.1c-0.5,0-1-0.1-1.5-0.2
				c-0.5-0.1-1-0.2-1.5-0.4c-0.5-0.2-0.9-0.5-1.3-0.8c-0.4-0.3-0.7-0.7-1-1.1c-0.3-0.4-0.5-0.9-0.7-1.4l0.1-0.1
				c0.4,0.3,0.8,0.6,1.1,0.9c0.4,0.3,0.7,0.6,1.1,0.8c0.4,0.2,0.8,0.5,1.2,0.7c0.4,0.2,0.8,0.4,1.2,0.6c0.4,0.1,0.9,0.2,1.4,0.3
				c0.5,0.1,0.9,0.1,1.4,0.1c0.5,0,0.9,0,1.4-0.1c0.2,0,0.5-0.1,0.7-0.1C71.4,34.4,71.7,34.4,71.9,34.4L71.9,34.4z"/>
		</g>
	</g>
</g>
</svg>
