<?xml version="1.0" encoding="utf-8"?>
<!-- Generator: Adobe Illustrator 25.4.1, SVG Export Plug-In . SVG Version: 6.00 Build 0)  -->
<svg version="1.1" id="Capa_1" xmlns="http://www.w3.org/2000/svg" xmlns:xlink="http://www.w3.org/1999/xlink" x="0px" y="0px"
	 viewBox="0 0 300 50" style="enable-background:new 0 0 300 50;" xml:space="preserve">
<style type="text/css">
	.st0{fill:#08A9DD;}
</style>
<g>
	<g>
		<g>
			<g>
				<path class="st0" d="M100.45,18.9c0.26,0.5,0.6,0.9,1.03,1.2c0.43,0.31,0.93,0.54,1.5,0.68c0.58,0.15,1.17,0.22,1.78,0.22
					c0.42,0,0.86-0.03,1.34-0.1c0.48-0.07,0.92-0.2,1.34-0.4c0.42-0.2,0.76-0.47,1.04-0.82c0.28-0.35,0.42-0.79,0.42-1.32
					c0-0.58-0.18-1.04-0.55-1.4c-0.37-0.36-0.85-0.65-1.44-0.89c-0.6-0.24-1.27-0.45-2.02-0.63c-0.75-0.18-1.52-0.38-2.29-0.59
					c-0.79-0.2-1.57-0.44-2.32-0.73c-0.75-0.29-1.43-0.66-2.02-1.11c-0.59-0.46-1.08-1.03-1.44-1.71c-0.37-0.68-0.55-1.51-0.55-2.48
					c0-1.09,0.23-2.04,0.7-2.84c0.47-0.8,1.08-1.47,1.83-2.01c0.75-0.53,1.61-0.93,2.56-1.19c0.95-0.26,1.9-0.39,2.86-0.39
					c1.11,0,2.18,0.12,3.2,0.37c1.02,0.25,1.93,0.65,2.72,1.2c0.79,0.56,1.42,1.26,1.89,2.13c0.46,0.86,0.7,1.91,0.7,3.14h-4.52
					c-0.04-0.63-0.17-1.16-0.4-1.58c-0.23-0.42-0.53-0.74-0.91-0.98c-0.38-0.24-0.81-0.41-1.29-0.51c-0.49-0.1-1.02-0.15-1.59-0.15
					c-0.38,0-0.75,0.04-1.13,0.12c-0.38,0.08-0.72,0.22-1.03,0.42c-0.31,0.2-0.56,0.45-0.76,0.74c-0.2,0.3-0.3,0.67-0.3,1.13
					c0,0.42,0.08,0.75,0.24,1.01c0.16,0.26,0.47,0.5,0.94,0.71c0.47,0.22,1.11,0.44,1.93,0.65c0.82,0.22,1.9,0.5,3.23,0.83
					c0.4,0.08,0.95,0.22,1.65,0.43c0.7,0.21,1.4,0.54,2.1,1c0.69,0.46,1.29,1.07,1.8,1.83c0.5,0.76,0.76,1.74,0.76,2.93
					c0,0.97-0.19,1.87-0.57,2.71c-0.38,0.83-0.94,1.55-1.68,2.16c-0.74,0.61-1.67,1.08-2.77,1.41c-1.1,0.34-2.37,0.51-3.82,0.51
					c-1.17,0-2.3-0.14-3.41-0.43c-1.1-0.29-2.07-0.74-2.91-1.35c-0.84-0.61-1.51-1.4-2.01-2.35c-0.5-0.95-0.73-2.08-0.71-3.39h4.52
					C100.07,17.8,100.2,18.41,100.45,18.9z"/>
				<path class="st0" d="M128.24,22.52c-1.61,1.4-3.83,2.1-6.66,2.1c-2.88,0-5.1-0.69-6.68-2.08c-1.58-1.39-2.37-3.53-2.37-6.42V2.9
					h4.67v13.21c0,0.58,0.05,1.14,0.15,1.7c0.1,0.56,0.31,1.05,0.62,1.47c0.32,0.43,0.76,0.77,1.32,1.04
					c0.57,0.27,1.32,0.4,2.28,0.4c1.67,0,2.82-0.37,3.45-1.12c0.63-0.74,0.95-1.91,0.95-3.49V2.9h4.67v13.21
					C130.65,18.98,129.84,21.12,128.24,22.52z"/>
				<path class="st0" d="M140.67,2.9c1.33,0,2.46,0.19,3.39,0.58c0.93,0.39,1.69,0.9,2.28,1.53c0.58,0.63,1.01,1.36,1.28,2.17
					c0.27,0.81,0.4,1.66,0.4,2.53c0,0.85-0.13,1.69-0.4,2.51c-0.27,0.82-0.69,1.55-1.28,2.19c-0.58,0.63-1.34,1.14-2.28,1.53
					c-0.93,0.39-2.06,0.58-3.39,0.58h-4.91v7.62h-4.67V2.9H140.67z M139.39,12.9c0.53,0,1.05-0.04,1.55-0.12
					c0.5-0.08,0.93-0.23,1.31-0.46c0.38-0.23,0.68-0.55,0.91-0.97c0.23-0.42,0.34-0.96,0.34-1.64s-0.11-1.22-0.34-1.64
					c-0.23-0.42-0.53-0.74-0.91-0.97c-0.38-0.23-0.81-0.38-1.31-0.46c-0.5-0.08-1.01-0.12-1.55-0.12h-3.63v6.37H139.39z"/>
				<path class="st0" d="M163.25,2.9v3.93h-11.21v4.55h10.29v3.63h-10.29v5.21h11.45v3.93h-16.12V2.9H163.25z"/>
				<path class="st0" d="M174.52,2.9c0.95,0,1.81,0.15,2.57,0.46c0.76,0.31,1.42,0.73,1.96,1.26s0.96,1.16,1.25,1.86
					c0.29,0.7,0.43,1.46,0.43,2.28c0,1.25-0.26,2.33-0.79,3.24c-0.53,0.91-1.38,1.61-2.57,2.08v0.06c0.58,0.16,1.05,0.4,1.43,0.73
					c0.38,0.33,0.68,0.71,0.92,1.16c0.24,0.45,0.41,0.94,0.52,1.47c0.11,0.54,0.18,1.07,0.22,1.61c0.02,0.34,0.04,0.73,0.06,1.19
					c0.02,0.46,0.05,0.92,0.11,1.4c0.05,0.48,0.13,0.93,0.24,1.35c0.11,0.43,0.27,0.79,0.49,1.09h-4.67
					c-0.26-0.67-0.42-1.48-0.48-2.41c-0.06-0.93-0.15-1.82-0.27-2.68c-0.16-1.11-0.5-1.92-1.01-2.44c-0.52-0.52-1.36-0.77-2.53-0.77
					h-4.67v8.3h-4.67V2.9H174.52z M172.85,12.51c1.07,0,1.87-0.24,2.41-0.71c0.54-0.48,0.8-1.25,0.8-2.32c0-1.03-0.27-1.78-0.8-2.25
					c-0.54-0.47-1.34-0.7-2.41-0.7h-5.12v5.98H172.85z"/>
				<path class="st0" d="M190.97,2.9c1.01,0,1.93,0.09,2.77,0.27c0.83,0.18,1.55,0.47,2.14,0.88c0.59,0.41,1.06,0.95,1.38,1.62
					c0.33,0.67,0.49,1.51,0.49,2.5c0,1.07-0.24,1.96-0.73,2.68c-0.49,0.71-1.21,1.3-2.16,1.76c1.31,0.38,2.29,1.04,2.93,1.98
					s0.97,2.08,0.97,3.41c0,1.07-0.21,2-0.62,2.78c-0.42,0.78-0.98,1.42-1.68,1.92c-0.7,0.5-1.51,0.86-2.41,1.1
					c-0.9,0.24-1.83,0.36-2.78,0.36h-10.29V2.9H190.97z M190.37,11.5c0.83,0,1.52-0.2,2.05-0.59c0.54-0.4,0.8-1.04,0.8-1.93
					c0-0.5-0.09-0.9-0.27-1.22c-0.18-0.32-0.42-0.57-0.71-0.74c-0.3-0.18-0.64-0.3-1.03-0.37c-0.39-0.07-0.79-0.1-1.21-0.1h-4.37
					v4.97H190.37z M190.64,20.51c0.46,0,0.89-0.04,1.31-0.13c0.42-0.09,0.78-0.24,1.1-0.45c0.32-0.21,0.57-0.49,0.76-0.85
					c0.19-0.36,0.28-0.81,0.28-1.37c0-1.09-0.31-1.87-0.92-2.33c-0.61-0.47-1.43-0.7-2.44-0.7h-5.09v5.83H190.64z"/>
				<path class="st0" d="M198.14,9.19c0.48-1.36,1.16-2.54,2.05-3.55c0.89-1.01,1.99-1.81,3.29-2.38c1.3-0.57,2.76-0.86,4.39-0.86
					c1.65,0,3.11,0.29,4.4,0.86c1.29,0.58,2.38,1.37,3.27,2.38c0.89,1.01,1.58,2.2,2.05,3.55c0.48,1.36,0.71,2.83,0.71,4.42
					c0,1.55-0.24,2.99-0.71,4.33c-0.48,1.34-1.16,2.5-2.05,3.5c-0.89,0.99-1.98,1.77-3.27,2.33c-1.29,0.57-2.76,0.85-4.4,0.85
					c-1.63,0-3.09-0.28-4.39-0.85c-1.3-0.57-2.39-1.34-3.29-2.33c-0.89-0.99-1.58-2.16-2.05-3.5c-0.47-1.34-0.71-2.78-0.71-4.33
					C197.42,12.02,197.66,10.55,198.14,9.19z M202.41,16.21c0.21,0.84,0.54,1.6,1,2.28c0.46,0.67,1.05,1.21,1.78,1.62
					c0.73,0.41,1.63,0.61,2.68,0.61c1.05,0,1.94-0.2,2.68-0.61c0.73-0.41,1.33-0.95,1.78-1.62c0.46-0.67,0.79-1.43,1-2.28
					c0.21-0.84,0.31-1.71,0.31-2.6c0-0.93-0.1-1.83-0.31-2.71c-0.21-0.87-0.54-1.65-1-2.34c-0.46-0.68-1.05-1.23-1.78-1.64
					c-0.73-0.41-1.63-0.61-2.68-0.61c-1.05,0-1.94,0.2-2.68,0.61c-0.73,0.41-1.33,0.95-1.78,1.64c-0.46,0.68-0.79,1.46-1,2.34
					c-0.21,0.87-0.31,1.77-0.31,2.71C202.09,14.5,202.2,15.37,202.41,16.21z"/>
				<path class="st0" d="M227.08,2.9c1.37,0,2.64,0.22,3.82,0.65c1.18,0.44,2.2,1.09,3.06,1.96c0.86,0.87,1.54,1.96,2.02,3.27
					c0.49,1.31,0.73,2.85,0.73,4.61c0,1.55-0.2,2.97-0.6,4.28c-0.4,1.31-1,2.44-1.8,3.39c-0.8,0.95-1.81,1.7-3,2.25
					c-1.2,0.55-2.61,0.82-4.24,0.82h-9.16V2.9H227.08z M226.75,20.21c0.67,0,1.33-0.11,1.96-0.33c0.63-0.22,1.2-0.58,1.7-1.09
					c0.5-0.51,0.89-1.16,1.19-1.98c0.3-0.81,0.45-1.8,0.45-2.97c0-1.07-0.1-2.04-0.31-2.9c-0.21-0.86-0.55-1.6-1.03-2.22
					c-0.48-0.61-1.11-1.09-1.89-1.41c-0.78-0.33-1.75-0.49-2.9-0.49h-3.33v13.39H226.75z"/>
				<path class="st0" d="M234.1,2.9h5.23l4.97,8.39l4.94-8.39h5.21l-7.88,13.09v8.15h-4.67v-8.27L234.1,2.9z"/>
			</g>
			<g>
				<path class="st0" d="M110.51,31.56c-0.28-0.45-0.62-0.84-1.04-1.18c-0.42-0.34-0.89-0.6-1.41-0.79
					c-0.53-0.19-1.08-0.28-1.65-0.28c-1.05,0-1.94,0.2-2.68,0.61c-0.73,0.41-1.33,0.95-1.78,1.64c-0.46,0.68-0.79,1.46-1,2.33
					c-0.21,0.87-0.31,1.78-0.31,2.71c0,0.89,0.1,1.76,0.31,2.6c0.21,0.84,0.54,1.6,1,2.28c0.46,0.67,1.05,1.21,1.78,1.62
					c0.73,0.41,1.63,0.61,2.68,0.61c1.43,0,2.54-0.44,3.35-1.31c0.8-0.87,1.29-2.02,1.47-3.45h4.52c-0.12,1.33-0.43,2.53-0.92,3.6
					c-0.5,1.07-1.15,1.98-1.96,2.74c-0.81,0.75-1.76,1.33-2.86,1.72c-1.09,0.4-2.29,0.6-3.6,0.6c-1.63,0-3.09-0.28-4.39-0.85
					c-1.3-0.57-2.39-1.34-3.29-2.33s-1.58-2.16-2.05-3.5c-0.48-1.34-0.71-2.78-0.71-4.33c0-1.59,0.24-3.06,0.71-4.42
					c0.48-1.36,1.16-2.54,2.05-3.56c0.89-1.01,1.99-1.8,3.29-2.38c1.3-0.57,2.76-0.86,4.39-0.86c1.17,0,2.28,0.17,3.32,0.51
					c1.04,0.34,1.97,0.83,2.8,1.47c0.82,0.64,1.5,1.44,2.04,2.39c0.54,0.95,0.87,2.04,1.01,3.27h-4.52
					C110.96,32.49,110.79,32,110.51,31.56z"/>
				<path class="st0" d="M120.03,25.89v21.24h-4.67V25.89H120.03z"/>
				<path class="st0" d="M132.01,25.89c0.95,0,1.81,0.15,2.57,0.46c0.76,0.31,1.42,0.73,1.96,1.26c0.55,0.54,0.96,1.16,1.25,1.86
					c0.29,0.7,0.43,1.46,0.43,2.27c0,1.25-0.26,2.33-0.79,3.24c-0.53,0.91-1.38,1.61-2.57,2.08v0.06c0.58,0.16,1.05,0.4,1.43,0.73
					c0.38,0.33,0.69,0.71,0.92,1.16c0.24,0.45,0.41,0.94,0.52,1.47c0.11,0.54,0.18,1.07,0.22,1.61c0.02,0.34,0.04,0.73,0.06,1.19
					c0.02,0.46,0.06,0.92,0.11,1.4c0.05,0.48,0.13,0.93,0.24,1.35c0.11,0.43,0.27,0.79,0.49,1.09h-4.67
					c-0.26-0.67-0.42-1.48-0.48-2.41c-0.06-0.93-0.15-1.82-0.27-2.68c-0.16-1.11-0.5-1.92-1.01-2.44c-0.52-0.52-1.36-0.77-2.53-0.77
					h-4.67v8.3h-4.67V25.89H132.01z M130.35,35.5c1.07,0,1.87-0.24,2.41-0.71c0.54-0.48,0.8-1.25,0.8-2.32
					c0-1.03-0.27-1.78-0.8-2.25c-0.54-0.47-1.34-0.7-2.41-0.7h-5.12v5.98H130.35z"/>
				<path class="st0" d="M152.09,31.56c-0.28-0.45-0.62-0.84-1.04-1.18c-0.42-0.34-0.89-0.6-1.41-0.79
					c-0.52-0.19-1.08-0.28-1.65-0.28c-1.05,0-1.94,0.2-2.68,0.61c-0.73,0.41-1.33,0.95-1.78,1.64c-0.46,0.68-0.79,1.46-1,2.33
					c-0.21,0.87-0.31,1.78-0.31,2.71c0,0.89,0.1,1.76,0.31,2.6c0.21,0.84,0.54,1.6,1,2.28c0.46,0.67,1.05,1.21,1.78,1.62
					c0.73,0.41,1.63,0.61,2.68,0.61c1.43,0,2.54-0.44,3.35-1.31c0.8-0.87,1.29-2.02,1.47-3.45h4.52c-0.12,1.33-0.43,2.53-0.92,3.6
					c-0.5,1.07-1.15,1.98-1.96,2.74c-0.81,0.75-1.77,1.33-2.86,1.72c-1.09,0.4-2.29,0.6-3.6,0.6c-1.63,0-3.09-0.28-4.39-0.85
					c-1.3-0.57-2.39-1.34-3.29-2.33c-0.89-0.99-1.58-2.16-2.05-3.5c-0.48-1.34-0.71-2.78-0.71-4.33c0-1.59,0.24-3.06,0.71-4.42
					c0.48-1.36,1.16-2.54,2.05-3.56c0.89-1.01,1.99-1.8,3.29-2.38c1.3-0.57,2.76-0.86,4.39-0.86c1.17,0,2.27,0.17,3.32,0.51
					c1.04,0.34,1.97,0.83,2.8,1.47c0.82,0.64,1.5,1.44,2.04,2.39c0.54,0.95,0.87,2.04,1.01,3.27h-4.52
					C152.55,32.49,152.37,32,152.09,31.56z"/>
				<path class="st0" d="M172.56,45.51c-1.61,1.4-3.83,2.1-6.66,2.1c-2.88,0-5.1-0.69-6.68-2.08c-1.58-1.39-2.36-3.53-2.36-6.43
					V25.89h4.67V39.1c0,0.58,0.05,1.14,0.15,1.7c0.1,0.56,0.31,1.05,0.63,1.47c0.32,0.43,0.76,0.77,1.32,1.04
					c0.56,0.27,1.32,0.4,2.28,0.4c1.67,0,2.82-0.37,3.45-1.12c0.63-0.74,0.95-1.91,0.95-3.5V25.89h4.67V39.1
					C174.97,41.97,174.16,44.11,172.56,45.51z"/>
				<path class="st0" d="M180.08,25.89v21.24h-4.67V25.89H180.08z"/>
				<path class="st0" d="M178.95,29.82v-3.93h17.4v3.93h-6.37v17.31h-4.67V29.82H178.95z"/>
			</g>
		</g>
		<g>
			<path class="st0" d="M56.89,6.6c0.78-0.78,1.64-1.47,2.54-2.11c0.9-0.64,1.86-1.21,2.85-1.71c1-0.5,2.04-0.93,3.11-1.27
				c1.08-0.33,2.19-0.58,3.32-0.72c1.13-0.14,2.29-0.22,3.45-0.17c1.16,0.05,2.31,0.29,3.4,0.69c1.09,0.41,2.11,0.95,3.04,1.61
				c0.93,0.66,1.77,1.43,2.46,2.33l-0.13,0.18c-1.06-0.37-2.06-0.77-3.06-1.1c-1-0.34-1.99-0.63-2.98-0.87
				c-0.99-0.24-1.97-0.45-2.97-0.63c-1-0.18-2.03-0.29-3.06-0.25c-1.03,0.03-2.07,0.16-3.09,0.38c-1.03,0.2-2.05,0.49-3.04,0.86
				c-1,0.36-1.98,0.79-2.93,1.28c-0.48,0.25-0.95,0.51-1.41,0.79c-0.46,0.28-0.92,0.57-1.35,0.89L56.89,6.6z"/>
			<path class="st0" d="M82.45,6.17c0.98,0.5,1.91,1.1,2.79,1.76c0.88,0.66,1.72,1.39,2.51,2.18c0.78,0.79,1.51,1.65,2.17,2.57
				c0.65,0.92,1.23,1.9,1.71,2.94c0.48,1.03,0.92,2.11,1.22,3.23c0.31,1.12,0.44,2.29,0.39,3.45c-0.05,1.16-0.25,2.3-0.59,3.39
				c-0.34,1.09-0.81,2.13-1.46,3.07l-0.21-0.07c0.03-1.13,0.09-2.2,0.1-3.26c0.02-1.05-0.01-2.08-0.09-3.1
				c-0.08-1.01-0.18-2.01-0.32-3.02c-0.13-1.01-0.35-2.02-0.7-2.99c-0.35-0.97-0.79-1.92-1.31-2.83c-0.51-0.91-1.1-1.79-1.75-2.63
				c-0.65-0.84-1.36-1.64-2.12-2.39C84.4,8.09,84,7.73,83.6,7.38c-0.41-0.35-0.83-0.7-1.26-1.01L82.45,6.17z"/>
			<path class="st0" d="M90.89,30.37c-0.01,1.1-0.14,2.2-0.34,3.28c-0.2,1.09-0.49,2.16-0.85,3.22c-0.37,1.05-0.81,2.09-1.34,3.08
				c-0.54,0.99-1.16,1.94-1.88,2.84c-0.71,0.89-1.48,1.76-2.35,2.53c-0.87,0.77-1.86,1.41-2.92,1.87c-1.06,0.47-2.17,0.79-3.3,0.97
				c-1.13,0.18-2.27,0.21-3.39,0.05l-0.03-0.22c1.02-0.47,2.01-0.89,2.96-1.35c0.95-0.45,1.86-0.93,2.74-1.45
				c0.87-0.52,1.72-1.06,2.57-1.62c0.84-0.57,1.65-1.21,2.37-1.96c0.72-0.74,1.37-1.56,1.95-2.43c0.59-0.86,1.12-1.78,1.58-2.74
				c0.47-0.95,0.86-1.95,1.2-2.96c0.17-0.51,0.32-1.02,0.46-1.55c0.14-0.52,0.26-1.05,0.35-1.58L90.89,30.37z"/>
			<path class="st0" d="M73.41,48.53c-1.05,0.33-2.13,0.54-3.23,0.69c-1.1,0.14-2.21,0.2-3.32,0.19c-1.12-0.02-2.23-0.13-3.35-0.32
				c-1.11-0.21-2.21-0.51-3.28-0.91c-1.07-0.4-2.13-0.87-3.13-1.46c-1-0.59-1.91-1.33-2.68-2.2c-0.77-0.86-1.43-1.82-1.94-2.84
				c-0.52-1.02-0.9-2.09-1.09-3.21l0.2-0.1c0.77,0.83,1.47,1.64,2.2,2.4c0.72,0.77,1.46,1.48,2.23,2.16
				c0.77,0.67,1.54,1.31,2.34,1.94c0.8,0.63,1.66,1.2,2.59,1.65c0.93,0.45,1.9,0.82,2.91,1.11c1,0.3,2.04,0.52,3.09,0.66
				c1.05,0.15,2.12,0.22,3.19,0.23c0.54,0,1.07-0.01,1.61-0.04c0.54-0.03,1.08-0.08,1.61-0.16L73.41,48.53z"/>
			<path class="st0" d="M50.74,37c-0.74-0.82-1.38-1.72-1.96-2.66c-0.58-0.94-1.1-1.92-1.54-2.94c-0.44-1.02-0.81-2.09-1.09-3.18
				c-0.27-1.1-0.45-2.22-0.53-3.36c-0.07-1.14-0.09-2.3,0.03-3.45c0.12-1.15,0.42-2.29,0.89-3.35C47,16.99,47.6,16,48.31,15.11
				c0.71-0.89,1.53-1.69,2.47-2.33l0.17,0.14c-0.43,1.04-0.89,2.01-1.28,2.99c-0.4,0.98-0.75,1.95-1.04,2.92
				c-0.29,0.98-0.56,1.94-0.8,2.93c-0.24,0.99-0.41,2.01-0.43,3.04c-0.03,1.03,0.04,2.07,0.2,3.11c0.14,1.04,0.37,2.07,0.68,3.09
				c0.3,1.02,0.67,2.02,1.11,3c0.22,0.49,0.45,0.97,0.7,1.45c0.25,0.48,0.52,0.95,0.81,1.4L50.74,37z"/>
			<path class="st0" d="M78.85,11.21c0.73,0.33,1.42,0.74,2.09,1.2c0.67,0.46,1.31,0.96,1.92,1.52c0.6,0.56,1.17,1.16,1.7,1.81
				c0.52,0.66,0.99,1.36,1.39,2.1c0.4,0.75,0.78,1.52,1.06,2.34c0.28,0.82,0.45,1.67,0.48,2.53c0.03,0.86-0.04,1.71-0.22,2.53
				c-0.18,0.82-0.46,1.6-0.86,2.32l-0.16-0.04c-0.05-0.83-0.06-1.63-0.12-2.41c-0.05-0.78-0.13-1.54-0.25-2.29
				c-0.12-0.75-0.25-1.48-0.4-2.22c-0.15-0.74-0.37-1.48-0.68-2.18c-0.31-0.7-0.68-1.39-1.1-2.04c-0.42-0.66-0.89-1.28-1.4-1.87
				c-0.51-0.6-1.07-1.16-1.65-1.69c-0.29-0.26-0.6-0.52-0.91-0.76c-0.31-0.24-0.63-0.48-0.96-0.7L78.85,11.21z"/>
			<path class="st0" d="M86.17,28.75c-0.06,0.81-0.2,1.61-0.39,2.39c-0.19,0.79-0.45,1.56-0.75,2.31c-0.31,0.75-0.67,1.48-1.1,2.18
				c-0.43,0.69-0.92,1.35-1.47,1.96c-0.55,0.61-1.14,1.19-1.79,1.7c-0.65,0.51-1.39,0.91-2.17,1.18c-0.78,0.27-1.59,0.43-2.4,0.49
				c-0.81,0.05-1.63,0-2.43-0.2l-0.01-0.17c0.75-0.28,1.48-0.52,2.18-0.79c0.7-0.27,1.37-0.56,2.02-0.88
				c0.65-0.32,1.28-0.66,1.91-1.02c0.63-0.36,1.24-0.77,1.78-1.27c0.55-0.5,1.05-1.05,1.5-1.65c0.46-0.59,0.88-1.23,1.25-1.9
				c0.38-0.67,0.71-1.37,0.99-2.1c0.14-0.36,0.28-0.73,0.4-1.11c0.12-0.37,0.23-0.75,0.32-1.14L86.17,28.75z"/>
			<path class="st0" d="M72.52,40.96c-0.73,0.28-1.49,0.48-2.26,0.63c-0.77,0.15-1.56,0.23-2.36,0.26c-0.8,0.02-1.6-0.01-2.41-0.11
				c-0.8-0.11-1.6-0.29-2.39-0.55c-0.78-0.26-1.57-0.56-2.32-0.96c-0.75-0.4-1.44-0.91-2.04-1.52c-0.6-0.61-1.12-1.29-1.55-2.02
				c-0.43-0.73-0.77-1.51-0.97-2.33l0.14-0.08c0.6,0.58,1.14,1.16,1.71,1.69c0.56,0.54,1.13,1.04,1.72,1.51
				c0.59,0.47,1.17,0.91,1.78,1.35c0.61,0.43,1.25,0.82,1.94,1.12c0.69,0.3,1.41,0.53,2.14,0.71c0.73,0.18,1.48,0.31,2.24,0.37
				c0.76,0.07,1.52,0.08,2.29,0.05c0.38-0.02,0.77-0.05,1.15-0.09c0.38-0.04,0.76-0.1,1.14-0.18L72.52,40.96z"/>
			<path class="st0" d="M55.71,33.68c-0.51-0.64-0.95-1.33-1.34-2.05c-0.4-0.72-0.74-1.47-1.04-2.24c-0.29-0.78-0.53-1.58-0.71-2.4
				c-0.17-0.82-0.27-1.66-0.3-2.5c-0.03-0.84-0.01-1.7,0.1-2.55c0.11-0.85,0.35-1.67,0.71-2.43c0.36-0.76,0.81-1.47,1.34-2.09
				c0.53-0.62,1.13-1.17,1.82-1.6l0.12,0.11c-0.33,0.75-0.68,1.45-0.98,2.15c-0.31,0.7-0.58,1.4-0.81,2.11
				c-0.23,0.71-0.44,1.41-0.64,2.13c-0.19,0.72-0.34,1.46-0.37,2.22c-0.04,0.76-0.02,1.53,0.07,2.3c0.08,0.77,0.22,1.55,0.42,2.31
				c0.19,0.77,0.44,1.52,0.73,2.27c0.15,0.37,0.3,0.74,0.47,1.1c0.17,0.36,0.35,0.72,0.55,1.07L55.71,33.68z"/>
			<path class="st0" d="M57.08,14.97c0.34-0.72,0.76-1.4,1.21-2.05c0.46-0.65,0.97-1.26,1.52-1.84c0.55-0.57,1.15-1.11,1.8-1.59
				c0.65-0.47,1.34-0.9,2.07-1.25c0.73-0.35,1.49-0.67,2.29-0.89c0.8-0.22,1.63-0.31,2.46-0.27c0.83,0.04,1.65,0.2,2.44,0.45
				c0.78,0.26,1.54,0.61,2.22,1.1l-0.05,0.16c-0.81-0.03-1.57-0.08-2.33-0.09c-0.75-0.02-1.49,0-2.21,0.05
				c-0.73,0.05-1.44,0.12-2.16,0.22c-0.72,0.09-1.44,0.25-2.13,0.5c-0.69,0.25-1.36,0.58-2,0.95c-0.64,0.37-1.26,0.8-1.85,1.28
				c-0.59,0.47-1.15,1-1.67,1.56c-0.26,0.28-0.52,0.57-0.76,0.87c-0.25,0.3-0.49,0.61-0.7,0.93L57.08,14.97z"/>
			<path class="st0" d="M60.48,27.58c-0.24-0.43-0.42-0.88-0.58-1.35c-0.16-0.46-0.28-0.95-0.38-1.43
				c-0.09-0.49-0.14-0.99-0.16-1.49c-0.01-0.5,0.02-1.01,0.1-1.52c0.08-0.5,0.19-1.01,0.35-1.5c0.16-0.49,0.41-0.96,0.71-1.38
				c0.31-0.42,0.66-0.79,1.06-1.11c0.4-0.32,0.82-0.59,1.29-0.78l0.06,0.08c-0.29,0.41-0.58,0.79-0.84,1.18
				c-0.27,0.39-0.51,0.78-0.74,1.17c-0.22,0.4-0.43,0.79-0.63,1.2c-0.2,0.41-0.37,0.84-0.48,1.29c-0.11,0.45-0.19,0.91-0.22,1.38
				c-0.04,0.47-0.04,0.94-0.01,1.41c0.03,0.47,0.09,0.95,0.18,1.42c0.05,0.23,0.1,0.47,0.16,0.7c0.06,0.23,0.13,0.46,0.21,0.69
				L60.48,27.58z"/>
			<path class="st0" d="M63.44,16.53c0.33-0.36,0.7-0.69,1.09-0.99c0.39-0.3,0.8-0.57,1.23-0.82c0.43-0.24,0.89-0.45,1.36-0.62
				c0.47-0.17,0.96-0.3,1.46-0.38c0.5-0.08,1.01-0.14,1.52-0.14c0.51,0,1.03,0.09,1.51,0.25c0.49,0.16,0.95,0.39,1.37,0.66
				c0.42,0.28,0.8,0.61,1.12,1l-0.06,0.08c-0.47-0.15-0.92-0.31-1.37-0.44c-0.44-0.13-0.89-0.25-1.33-0.34
				c-0.44-0.09-0.88-0.17-1.32-0.23c-0.44-0.06-0.9-0.09-1.35-0.06c-0.46,0.03-0.91,0.11-1.36,0.22c-0.45,0.11-0.9,0.26-1.33,0.44
				c-0.44,0.18-0.86,0.39-1.28,0.62c-0.21,0.12-0.41,0.24-0.61,0.38c-0.2,0.13-0.4,0.27-0.58,0.42L63.44,16.53z"/>
			<path class="st0" d="M74.74,15.83c0.47,0.14,0.91,0.33,1.35,0.55c0.44,0.22,0.86,0.47,1.26,0.75c0.4,0.29,0.78,0.6,1.14,0.95
				c0.35,0.35,0.68,0.74,0.97,1.15c0.29,0.41,0.56,0.85,0.78,1.32c0.22,0.47,0.37,0.97,0.44,1.48c0.07,0.51,0.07,1.03,0.01,1.54
				c-0.06,0.51-0.19,1-0.4,1.47l-0.1-0.01c-0.08-0.5-0.13-0.97-0.21-1.44c-0.08-0.46-0.17-0.92-0.28-1.35
				c-0.11-0.44-0.24-0.87-0.37-1.3c-0.14-0.43-0.31-0.86-0.54-1.26c-0.23-0.4-0.49-0.78-0.79-1.13c-0.29-0.36-0.62-0.7-0.97-1.01
				c-0.35-0.32-0.72-0.61-1.11-0.88c-0.2-0.13-0.4-0.26-0.6-0.38c-0.2-0.12-0.41-0.24-0.63-0.34L74.74,15.83z"/>
			<path class="st0" d="M80.3,25.55c0.01,0.49-0.03,0.98-0.11,1.47c-0.07,0.49-0.19,0.97-0.33,1.45c-0.15,0.48-0.33,0.95-0.55,1.4
				c-0.22,0.45-0.49,0.89-0.79,1.3c-0.3,0.41-0.63,0.81-1,1.17c-0.37,0.36-0.8,0.66-1.26,0.89c-0.46,0.23-0.95,0.39-1.44,0.49
				c-0.49,0.1-1,0.14-1.5,0.08l-0.02-0.1c0.44-0.23,0.88-0.43,1.29-0.65c0.41-0.22,0.81-0.45,1.19-0.7c0.38-0.25,0.75-0.5,1.11-0.77
				c0.36-0.27,0.71-0.57,1.02-0.92c0.31-0.34,0.58-0.72,0.83-1.12c0.25-0.4,0.47-0.81,0.66-1.25c0.19-0.43,0.35-0.88,0.49-1.34
				c0.07-0.23,0.13-0.46,0.18-0.7c0.05-0.23,0.1-0.47,0.13-0.71L80.3,25.55z"/>
			<path class="st0" d="M72.62,33.91c-0.44,0.22-0.9,0.38-1.37,0.52c-0.47,0.14-0.95,0.24-1.44,0.31c-0.49,0.07-0.98,0.09-1.48,0.08
				c-0.5-0.02-1-0.07-1.49-0.18c-0.49-0.11-0.98-0.24-1.46-0.43c-0.47-0.19-0.92-0.46-1.31-0.79c-0.39-0.33-0.74-0.71-1.03-1.12
				c-0.29-0.41-0.53-0.86-0.68-1.35l0.08-0.06c0.39,0.31,0.75,0.63,1.11,0.91c0.36,0.29,0.73,0.56,1.11,0.8
				c0.38,0.24,0.76,0.48,1.15,0.7c0.39,0.22,0.8,0.42,1.24,0.55c0.43,0.14,0.88,0.23,1.34,0.29c0.46,0.06,0.92,0.09,1.39,0.08
				c0.47,0,0.94-0.05,1.41-0.11c0.23-0.03,0.47-0.08,0.7-0.13c0.23-0.05,0.47-0.11,0.69-0.18L72.62,33.91z"/>
		</g>
	</g>
</g>
</svg>
