<?xml version="1.0" encoding="utf-8"?>
<!-- Generator: Adobe Illustrator 25.4.1, SVG Export Plug-In . SVG Version: 6.00 Build 0)  -->
<svg version="1.1" id="Capa_1" xmlns="http://www.w3.org/2000/svg" xmlns:xlink="http://www.w3.org/1999/xlink" x="0px" y="0px"
	 viewBox="0 0 300 50" style="enable-background:new 0 0 300 50;" xml:space="preserve">
<style type="text/css">
	.st0{fill:#00A9DC;}
</style>
<g>
	<g>
		<path class="st0" d="M14.66,2.42h39.68v10.69H41.2v34.46H27.74V13.12H14.66V2.42z"/>
		<path class="st0" d="M87.84,47.58l-2.64-7.22H66.97l-2.71,7.22H50.48L69.74,2.42h13.79l18.62,45.16H87.84z M70.7,30.57h10.95
			l-5.41-14.75L70.7,30.57z"/>
		<path class="st0" d="M138.02,3.81c2.62,0.92,4.64,2.24,6.05,3.96c1.42,1.72,2.13,3.74,2.13,6.06c0,2.28-0.69,4.29-2.06,6.06
			c-1.37,1.76-3.24,2.99-5.6,3.67c2.75,0.56,4.95,1.88,6.6,3.96c1.65,2.08,2.48,4.56,2.48,7.44c0,2.53-0.73,4.76-2.19,6.67
			c-1.46,1.91-3.53,3.38-6.22,4.41c-2.68,1.03-5.81,1.55-9.37,1.55h-23.13V2.42h22.16C132.35,2.42,135.4,2.88,138.02,3.81z
			 M131.32,19.07c0.77-0.71,1.16-1.66,1.16-2.87c0-1.16-0.39-2.07-1.16-2.74c-0.77-0.67-1.83-1-3.16-1h-8.12v7.67h8.12
			C129.49,20.14,130.55,19.78,131.32,19.07z M132.25,36.43c1.01-0.77,1.51-1.82,1.51-3.16c0-1.25-0.51-2.22-1.51-2.93
			c-1.01-0.71-2.37-1.04-4.09-1h-8.12v8.18h8.12C129.88,37.57,131.24,37.21,132.25,36.43z"/>
		<path class="st0" d="M187.43,47.58l-2.64-7.22h-18.23l-2.71,7.22h-13.78l19.26-45.16h13.79l18.62,45.16H187.43z M170.29,30.57
			h10.95l-5.41-14.75L170.29,30.57z"/>
		<path class="st0" d="M197.86,2.42h39.68v10.69H224.4v34.46h-13.46V13.12h-13.08V2.42z"/>
		<path class="st0" d="M271.04,47.58l-2.64-7.22h-18.23l-2.71,7.22h-13.78l19.26-45.16h13.79l18.62,45.16H271.04z M253.9,30.57
			h10.95l-5.41-14.75L253.9,30.57z"/>
	</g>
</g>
</svg>
