<?xml version="1.0" encoding="utf-8"?>
<!-- Generator: Adobe Illustrator 25.4.1, SVG Export Plug-In . SVG Version: 6.00 Build 0)  -->
<svg version="1.1" id="Capa_1" xmlns="http://www.w3.org/2000/svg" xmlns:xlink="http://www.w3.org/1999/xlink" x="0px" y="0px"
	 viewBox="0 0 300 50" style="enable-background:new 0 0 300 50;" xml:space="preserve">
<g>
	<g>
		<path d="M14.7,2.4h39.7v10.7H41.2v34.5H27.7V13.1H14.7V2.4z"/>
		<path d="M87.8,47.6l-2.6-7.2H67l-2.7,7.2H50.5L69.7,2.4h13.8l18.6,45.2H87.8z M70.7,30.6h10.9l-5.4-14.8L70.7,30.6z"/>
		<path d="M138,3.8c2.6,0.9,4.6,2.2,6.1,4c1.4,1.7,2.1,3.7,2.1,6.1c0,2.3-0.7,4.3-2.1,6.1c-1.4,1.8-3.2,3-5.6,3.7
			c2.8,0.6,4.9,1.9,6.6,4c1.6,2.1,2.5,4.6,2.5,7.4c0,2.5-0.7,4.8-2.2,6.7c-1.5,1.9-3.5,3.4-6.2,4.4c-2.7,1-5.8,1.5-9.4,1.5h-23.1
			V2.4h22.2C132.4,2.4,135.4,2.9,138,3.8z M131.3,19.1c0.8-0.7,1.2-1.7,1.2-2.9c0-1.2-0.4-2.1-1.2-2.7s-1.8-1-3.2-1H120v7.7h8.1
			C129.5,20.1,130.6,19.8,131.3,19.1z M132.2,36.4c1-0.8,1.5-1.8,1.5-3.2c0-1.2-0.5-2.2-1.5-2.9c-1-0.7-2.4-1-4.1-1H120v8.2h8.1
			C129.9,37.6,131.2,37.2,132.2,36.4z"/>
		<path d="M187.4,47.6l-2.6-7.2h-18.2l-2.7,7.2h-13.8l19.3-45.2h13.8l18.6,45.2H187.4z M170.3,30.6h10.9l-5.4-14.8L170.3,30.6z"/>
		<path d="M197.9,2.4h39.7v10.7h-13.1v34.5h-13.5V13.1h-13.1L197.9,2.4L197.9,2.4z"/>
		<path d="M271,47.6l-2.6-7.2h-18.2l-2.7,7.2h-13.8l19.3-45.2h13.8l18.6,45.2H271z M253.9,30.6h11l-5.4-14.8L253.9,30.6z"/>
	</g>
</g>
</svg>
