<?xml version="1.0" encoding="utf-8"?>
<!-- Generator: Adobe Illustrator 25.4.1, SVG Export Plug-In . SVG Version: 6.00 Build 0)  -->
<svg version="1.1" id="Capa_1" xmlns="http://www.w3.org/2000/svg" xmlns:xlink="http://www.w3.org/1999/xlink" x="0px" y="0px"
	 viewBox="0 0 300 50" style="enable-background:new 0 0 300 50;" xml:space="preserve">
<style type="text/css">
	.st0{fill:#00A9DC;}
	.st1{fill:#100C08;}
	.st2{fill:#E0DF40;}
	.st3{fill:#A1A4A6;}
</style>
<g>
	<g>
		<path class="st0" d="M103.6,0.3C92.8,0.3,84,9.1,84,19.9s8.8,19.6,19.6,19.6s19.6-8.8,19.6-19.6C123.2,9,114.4,0.3,103.6,0.3z
			 M103.6,37.2c-9.6,0-17.3-7.8-17.3-17.3S94,2.5,103.6,2.5s17.3,7.8,17.3,17.3C120.9,29.5,113.2,37.2,103.6,37.2z"/>
	</g>
	<path class="st0" d="M102.8,20.6c0,0,1.9,1.2,0.1,1.9s-4.1,0.1-6.1-0.5c-1.5-0.5-3-1.1-4.3-2c-0.9-0.6-1.8-1.2-2.4-2.1
		c-0.3-0.5-0.5-1.1-0.1-1.6c0.7-0.5,2.6-0.9,2.8-1c2.5-0.5,4.3-0.9,4.9-0.3c0.3,0.4,0.1,0.7-0.2,0.8c-1,0.3-3.6,0.9-5,1.6
		c0.9,1.2,2.6,1.9,4.1,2.3c0.1,0,1.2,0.2,1.5,0.2c2.2,0.1,4.3-0.5,5.6,1.2"/>
	<path class="st0" d="M108.6,17c0.3,0.1,2.4,1.8,3.4,3.2c0.8,1.2,1.9,2,2.5,1.5c1.1-0.9-3.5-10.7-3.5-10.7s-0.5-1.5-1.1-3.1
		c-0.3-1-1.1-2.6-2.3-2c-1.4,0.6-0.1,2.7,0.3,3.9c1.5,3.2,3.8,6,5.2,9.2c-0.7-0.5-1-1.2-1.8-1.9c-1-0.9-2.4-2.2-3.8-1.5
		c-1.2,0.5-1,2.3-0.8,3.4c0.1,0.9,0.6,5.5-0.6,8.2c-1,2.4-4.5,5.1-4.3,5.7c-0.3,0.7,2,1.5,3,1.6c1.2,0.3,2.2-0.4,2.8-1.3
		C110.4,28.1,109,22.4,108.6,17"/>
	<path class="st0" d="M99.8,9.9c0,0.1,0,0.1-0.1,0.1c0,0,0,0.1,0,0.1c-0.1,0.4-0.1,0.9,0,1.4c0.1,0.5,0.4,1.1,0.7,1.6
		c0.9,1.3,2.4,1.9,3.3,1.3c0.1,0,0.5-0.4,0.6-0.5c2.6-3.1-1.1-6.8-2.9-5.8C100.6,8.6,100.1,9.2,99.8,9.9C99.8,9.8,99.8,9.9,99.8,9.9
		"/>
	<path class="st0" d="M215.1,48.1c-0.2,0.3-0.4,0.7-0.8,0.9s-0.7,0.4-1.1,0.6c-0.4,0.1-0.9,0.2-1.4,0.2c-0.5,0-1-0.1-1.5-0.2
		s-0.9-0.3-1.2-0.6s-0.6-0.6-0.8-1s-0.4-0.8-0.4-1.3h1.5c0.1,0.5,0.4,0.9,0.8,1.2c0.4,0.3,1,0.5,1.6,0.5c0.7,0,1.2-0.1,1.6-0.4
		c0.4-0.3,0.6-0.6,0.6-1c0-0.2,0-0.3-0.1-0.4s-0.1-0.3-0.3-0.4c-0.2-0.1-0.4-0.2-0.7-0.3c-0.3-0.1-0.8-0.2-1.3-0.2
		c-0.5-0.1-1-0.2-1.4-0.3s-0.8-0.3-1.1-0.5c-0.3-0.2-0.5-0.4-0.7-0.7s-0.2-0.6-0.2-1c0-0.3,0.1-0.6,0.2-0.9c0.1-0.3,0.4-0.6,0.6-0.8
		c0.3-0.2,0.6-0.5,1.1-0.6c0.4-0.2,0.9-0.2,1.5-0.2c1,0,1.9,0.2,2.5,0.7c0.6,0.5,1,1.2,1.1,2h-1.5c-0.1-0.5-0.3-0.8-0.7-1.1
		c-0.4-0.2-0.9-0.3-1.4-0.3c-0.6,0-1.1,0.1-1.4,0.4s-0.6,0.5-0.6,0.9c0,0.2,0,0.3,0.1,0.4c0.1,0.1,0.2,0.2,0.4,0.3
		c0.2,0.1,0.4,0.2,0.7,0.2c0.3,0.1,0.6,0.1,1.1,0.2c0.5,0.1,0.9,0.2,1.4,0.3c0.4,0.1,0.8,0.2,1.1,0.4c0.3,0.2,0.6,0.4,0.8,0.8
		s0.3,0.7,0.3,1.2C215.4,47.3,215.3,47.7,215.1,48.1 M207,48.1c-0.2,0.3-0.4,0.7-0.7,0.9c-0.3,0.2-0.7,0.4-1.1,0.6
		c-0.4,0.1-0.9,0.2-1.5,0.2c-0.5,0-1-0.1-1.5-0.2s-0.9-0.3-1.2-0.6c-0.3-0.3-0.6-0.6-0.8-1s-0.4-0.8-0.4-1.3h1.5
		c0.1,0.5,0.4,0.9,0.8,1.2c0.5,0.3,1,0.5,1.6,0.5c0.7,0,1.2-0.1,1.6-0.4c0.4-0.3,0.6-0.6,0.6-1c0-0.2,0-0.3-0.1-0.4
		s-0.1-0.3-0.3-0.4c-0.2-0.1-0.4-0.2-0.7-0.3c-0.3-0.1-0.8-0.2-1.3-0.2c-0.5-0.1-1-0.2-1.4-0.3s-0.8-0.3-1.1-0.5
		c-0.3-0.2-0.5-0.4-0.7-0.7c-0.2-0.3-0.2-0.6-0.2-1c0-0.3,0.1-0.6,0.2-0.9c0.1-0.3,0.4-0.6,0.6-0.8c0.3-0.2,0.6-0.5,1.1-0.6
		c0.4-0.2,0.9-0.2,1.5-0.2c1,0,1.9,0.2,2.5,0.7c0.6,0.5,1,1.2,1.1,2h-1.5c-0.1-0.5-0.4-0.8-0.7-1.1c-0.4-0.2-0.9-0.3-1.4-0.3
		c-0.6,0-1.1,0.1-1.4,0.4s-0.6,0.5-0.6,0.9c0,0.2,0,0.3,0.1,0.4c0.1,0.1,0.2,0.2,0.4,0.3c0.2,0.1,0.4,0.2,0.7,0.2
		c0.3,0.1,0.6,0.1,1.1,0.2c0.5,0.1,0.9,0.2,1.4,0.3c0.4,0.1,0.8,0.2,1.1,0.4c0.3,0.2,0.6,0.4,0.8,0.8s0.3,0.7,0.3,1.2
		C207.3,47.3,207.2,47.7,207,48.1 M197.6,44.2c-0.1-0.3-0.2-0.7-0.4-1s-0.4-0.5-0.7-0.8s-0.5-0.4-0.8-0.5c-0.3-0.1-0.6-0.2-0.9-0.2
		c-0.3,0-0.6,0-0.9,0.2c-0.3,0.1-0.6,0.3-0.8,0.5c-0.3,0.2-0.5,0.5-0.7,0.8c-0.2,0.3-0.4,0.6-0.4,1L197.6,44.2L197.6,44.2z
		 M199,46.8c-0.3,1-0.8,1.7-1.5,2.2c-0.7,0.5-1.6,0.8-2.6,0.8c-0.6,0-1.2-0.1-1.8-0.4s-1-0.6-1.4-1c-0.4-0.4-0.7-0.9-1-1.5
		c-0.2-0.6-0.4-1.2-0.4-1.8c0-0.6,0.1-1.2,0.4-1.8c0.2-0.6,0.6-1.1,0.9-1.5c0.4-0.4,0.9-0.8,1.4-1c0.5-0.2,1.1-0.4,1.7-0.4
		c0.6,0,1.1,0.1,1.7,0.3c0.5,0.2,1,0.6,1.4,1s0.8,1,1,1.6c0.2,0.6,0.4,1.3,0.4,2.1h-7.4c0.1,0.5,0.2,0.9,0.4,1.2
		c0.2,0.4,0.4,0.7,0.7,0.9s0.6,0.4,0.9,0.6s0.7,0.2,1.1,0.2c0.6,0,1.2-0.1,1.6-0.4c0.4-0.3,0.8-0.7,1-1.2L199,46.8L199,46.8z
		 M189.3,49.5h-1.4v-5.4c0-0.7-0.2-1.2-0.6-1.7c-0.4-0.4-0.9-0.7-1.6-0.7c-0.3,0-0.6,0.1-0.9,0.2c-0.3,0.1-0.5,0.3-0.7,0.5
		c-0.2,0.2-0.4,0.5-0.5,0.7s-0.2,0.6-0.2,0.9v5.4h-1.5v-8.8h1.4v1c0.3-0.4,0.7-0.7,1.1-0.9c0.4-0.2,0.9-0.3,1.5-0.3
		c0.5,0,1,0.1,1.4,0.3s0.8,0.4,1.1,0.8c0.3,0.3,0.5,0.7,0.7,1.2c0.1,0.5,0.2,1,0.2,1.5L189.3,49.5L189.3,49.5z M180.8,49.5
		c-0.5,0.1-1,0-1.4-0.1c-0.4-0.1-0.8-0.3-1.1-0.6c-0.3-0.3-0.6-0.6-0.7-1.1s-0.3-0.9-0.3-1.5v-4.2h-1.2v-1.4h1.2v-1.9h1.5v1.9h2v1.4
		h-2v4.2c0,0.4,0.1,0.7,0.2,1s0.3,0.5,0.4,0.6s0.4,0.2,0.6,0.3c0.2,0,0.5,0.1,0.8,0L180.8,49.5L180.8,49.5z M175.1,49.5h-1.4v-8.8
		h1.4V49.5z M175.1,39.4h-1.4v-1.7h1.4V39.4z M170.6,40.7h2v1.4h-2v7.4h-1.5v-7.4h-1.2v-1.4h1.2v-0.3c0-1.3,0.3-2.2,1-2.9
		c0.6-0.6,1.4-0.8,2.5-0.7v1.3c-0.7,0-1.2,0.1-1.5,0.4c-0.2,0.2-0.4,0.5-0.4,0.8c-0.1,0.3-0.1,0.7-0.1,1L170.6,40.7L170.6,40.7z"/>
	<path class="st0" d="M134.8,30.1c3.9-0.3,13.9-3.4,14.6-1.7S138.6,34,133.2,34c-2.4,0-4.5-1.3-4.5-3.1c0-5.6,13.9-18.4,13.9-19.7
		c0-0.5-1.4-0.5-1.9-0.5c-1.1,0-7.2,1.8-9,1.9s-4.6-0.1-4.8-1.5c-0.2-1.3,7.4-4.2,12.3-4.2c4.1,0,8.8,1.7,8.8,5
		C148,13.3,136.7,27,134.8,30.1"/>
	<path class="st0" d="M160.7,14.1c-0.5,3.5-1.5,6.9-2,10.4c-0.3,2-1.7,9-4.3,9c-0.5,0-1.1-0.1-1.6-0.1c-2.4,0-4.3-11.5-4.3-13.7
		c0-3.6,0.2-11.3,2.5-14.1c0.3,0,0.5-0.1,0.8-0.1c1.8,0,3.3,0.3,3.3,2.4v0.3c-0.3,1-0.9,2.1-1.3,3.1c-0.9,2.8-1.5,5.7-1.5,8.6
		c0,2,0.3,4.1,1.3,5.8c0.6,0.2,1.3-3.4,1.4-3.9c0.7-3.5,1.2-9.1,2.2-12.2c0.5-0.5,0.3-1,2.1-1.1c0.8,0,1.8,1,1.8,1.8
		C161.2,11.7,160.8,13,160.7,14.1"/>
	<path class="st0" d="M181.1,35.4c-0.9,0-1.2-0.8-1.4-1.6c-0.6-3.3-0.3-6.7-0.7-10c-1.3,2-2.4,4.1-3.6,6.1c-0.7,1.2-2,2.8-3.5,2.8
		c-3.5,0-3-16.7-3.1-19.6c-3.2,6.4-3.8,11.9-4.5,18.9c-0.6,0.8-1.1,1.3-2.1,1.3c-0.6,0-1.1-0.1-1.6-0.2l0-0.7
		c-0.1-5.1,2-24.7,8.7-24.7c1.4,0,2.2,0.2,3.1,1.4c1.1,1.5,0.9,12,1.1,14.6c1.2-2.3,4.2-10.5,7.1-10.5c4,0,3,4.9,3,7.5
		c0,4.1,0.3,8.2,0.3,12.3C183.9,34.1,182.1,35.4,181.1,35.4"/>
	<path class="st0" d="M189.4,33.8c-0.6,0.1-1.2,0.1-1.7,0.1c-0.7,0-2.7,0-2.7-1c0-0.5,0.5-0.8,0.8-1c0.6-0.4,1.6-0.5,2.3-0.7
		c1.2-0.3,6.5-3,6.5-4.3c0-3-6.7-5.3-6.7-7.5c0-3.7,6.9-7.7,6.9-10.1c0-0.9-1.4-0.9-2-0.9c-1.3,0-3.3,0.2-4.4,1
		c-0.2,0.6-0.2,1.4-0.2,2.1c0,6.1,0.4,12.1,0.9,18.2c-0.6,0.2-1.2,0.4-1.9,0.4c-0.4,0-0.9-0.1-0.9-0.6c0-4.1-1.1-8.1-1.2-12.2
		c-0.1-1.8-0.1-3.6-0.2-5.3c-0.1-0.7-0.4-1.5-0.4-2.2c0-2.5,7.1-3.9,9-3.9c1.7,0,4.9,0.2,4.9,2.5c0,2.7-5.3,8.9-7.7,10.3
		c0.2,0.7,8.2,3.9,8.2,8.3C198.8,30.3,192.1,33.5,189.4,33.8"/>
	<path class="st0" d="M215.1,33.9c1.1,0.2-1.2-4.6-2-11.4c-0.6-4.1-0.4-11.4-3.1-14.6c-0.8-1-1.7-1.1-2.9-1.1
		c-5.7,0-7.5,14.8-7.5,19.2c0,2.4,0.4,4.7,1.1,7c0.3,0,0.6,0.1,0.8,0.1c0.8,0,1.6-0.2,2.3-0.6c-0.3-1.5-0.4-3-0.4-4.6
		c0-0.5,0-1,0.1-1.4c2-0.2,4.1-0.4,6.1-0.7C210.6,29.6,211.3,32,215.1,33.9 M208.9,22c-1.8,0-3.5,0.2-5.3,0.4
		c0.1-1.8,0.9-11.3,3.3-11.3c0.5,0,0.8,2.3,0.9,2.7C208.2,16.5,208.4,19.2,208.9,22"/>
	<path class="st0" d="M214,8.4c0.3,0,0.6,0,0.6-0.4c0-0.3-0.2-0.3-0.5-0.3h-0.5v0.7L214,8.4L214,8.4z M213.3,7.4h0.9
		c0.5,0,0.8,0.2,0.8,0.7c0,0.4-0.3,0.6-0.6,0.6l0.7,1h-0.4L214,8.7h-0.4v0.9h-0.4L213.3,7.4L213.3,7.4z M215.7,8.5
		c0-0.9-0.7-1.6-1.6-1.6s-1.6,0.7-1.6,1.6s0.7,1.6,1.6,1.6C215,10.1,215.7,9.4,215.7,8.5 M214.1,6.6c1.1,0,2,0.9,2,1.9
		s-0.9,1.9-2,1.9s-2-0.9-2-1.9S213,6.6,214.1,6.6"/>
</g>
<g>
	<path class="st1" d="M103.6,39.5c10.8,0,19.6-8.8,19.6-19.6c0-10.8-8.8-19.6-19.6-19.6C92.8,0.3,84,9,84,19.9
		C84,30.7,92.8,39.5,103.6,39.5"/>
	<path class="st2" d="M120.9,19.9c0,9.6-7.8,17.3-17.3,17.3c-9.6,0-17.3-7.8-17.3-17.3c0-9.6,7.8-17.3,17.3-17.3
		C113.2,2.5,120.9,10.3,120.9,19.9"/>
	<path class="st1" d="M102.8,20.6c0,0,1.9,1.2,0.1,1.9c-1.8,0.7-4.1,0.1-6.1-0.5c-1.5-0.5-3-1.1-4.3-2c-0.9-0.6-1.8-1.2-2.4-2.1
		c-0.3-0.5-0.5-1.1-0.1-1.6c0.7-0.5,2.6-0.9,2.8-1c2.5-0.5,4.4-0.9,4.9-0.3c0.3,0.4,0.1,0.7-0.2,0.7c-1,0.3-3.6,0.9-5,1.6
		c0.9,1.2,2.6,1.8,4.1,2.3c0.1,0,1.2,0.2,1.5,0.2c2.2,0.1,4.3-0.5,5.6,1.2"/>
	<path class="st1" d="M108.6,17c0.3,0.1,2.4,1.8,3.4,3.2c0.8,1.2,1.9,2,2.5,1.5c1.1-0.9-3.5-10.7-3.5-10.7s-0.5-1.5-1.1-3.1
		c-0.3-1-1.1-2.6-2.3-2c-1.4,0.6-0.1,2.7,0.3,3.9c1.5,3.3,3.8,6,5.1,9.2c-0.7-0.5-1-1.2-1.8-1.9c-1-0.9-2.4-2.2-3.8-1.5
		c-1.2,0.5-1,2.3-0.9,3.4c0.1,0.9,0.6,5.5-0.6,8.2c-1,2.4-4.5,5.1-4.3,5.7c-0.3,0.7,2,1.5,3,1.6c1.2,0.3,2.2-0.4,2.8-1.4
		C110.4,28.1,109,22.4,108.6,17"/>
	<path class="st1" d="M99.8,9.9c0,0,0,0.1,0,0.1c0,0,0,0,0,0.1c-0.1,0.5-0.1,0.9,0,1.4c0.1,0.5,0.4,1.1,0.7,1.6
		c0.9,1.3,2.4,1.8,3.3,1.3c0.1,0,0.5-0.4,0.6-0.5c2.6-3.1-1.1-6.8-2.9-5.8C100.6,8.6,100.1,9.2,99.8,9.9C99.8,9.8,99.8,9.9,99.8,9.9
		"/>
	<path class="st3" d="M215.1,48.1c-0.2,0.4-0.4,0.7-0.7,0.9c-0.3,0.2-0.7,0.4-1.1,0.6c-0.4,0.1-0.9,0.2-1.5,0.2
		c-0.5,0-1-0.1-1.5-0.2c-0.5-0.1-0.9-0.3-1.2-0.6c-0.3-0.3-0.6-0.6-0.8-1c-0.2-0.4-0.4-0.8-0.4-1.3h1.5c0.1,0.5,0.4,0.9,0.8,1.2
		c0.5,0.3,1,0.4,1.6,0.4c0.7,0,1.2-0.1,1.6-0.4c0.4-0.3,0.6-0.6,0.6-1c0-0.1,0-0.3-0.1-0.4c0-0.1-0.2-0.3-0.3-0.4
		c-0.2-0.1-0.4-0.2-0.7-0.3c-0.3-0.1-0.7-0.2-1.3-0.2c-0.5-0.1-1-0.2-1.4-0.3c-0.4-0.1-0.8-0.3-1.1-0.4c-0.3-0.2-0.5-0.4-0.7-0.7
		c-0.2-0.3-0.2-0.6-0.2-1c0-0.3,0.1-0.6,0.2-0.9c0.1-0.3,0.3-0.6,0.6-0.8c0.3-0.3,0.6-0.5,1.1-0.6c0.4-0.2,0.9-0.2,1.5-0.2
		c1,0,1.9,0.2,2.5,0.7c0.6,0.5,1,1.2,1.1,2h-1.5c-0.1-0.5-0.3-0.8-0.7-1.1c-0.4-0.2-0.8-0.4-1.4-0.4c-0.6,0-1.1,0.1-1.4,0.4
		c-0.4,0.2-0.6,0.5-0.6,0.9c0,0.2,0,0.3,0.1,0.4c0.1,0.1,0.2,0.2,0.4,0.3c0.2,0.1,0.4,0.2,0.7,0.2c0.3,0.1,0.6,0.1,1.1,0.2
		c0.5,0.1,1,0.2,1.4,0.3c0.4,0.1,0.8,0.2,1.1,0.4c0.3,0.2,0.6,0.4,0.8,0.8c0.2,0.3,0.3,0.7,0.3,1.2
		C215.4,47.3,215.3,47.7,215.1,48.1 M207,48.1c-0.2,0.4-0.4,0.7-0.7,0.9c-0.3,0.2-0.7,0.4-1.1,0.6c-0.4,0.1-0.9,0.2-1.5,0.2
		c-0.5,0-1-0.1-1.5-0.2c-0.5-0.1-0.9-0.3-1.2-0.6c-0.3-0.3-0.6-0.6-0.8-1c-0.2-0.4-0.4-0.8-0.4-1.3h1.5c0.1,0.5,0.4,0.9,0.8,1.2
		c0.5,0.3,1,0.4,1.6,0.4c0.7,0,1.2-0.1,1.6-0.4c0.4-0.3,0.6-0.6,0.6-1c0-0.1,0-0.3-0.1-0.4c0-0.1-0.2-0.3-0.3-0.4
		c-0.2-0.1-0.4-0.2-0.7-0.3c-0.3-0.1-0.7-0.2-1.3-0.2c-0.5-0.1-1-0.2-1.4-0.3c-0.4-0.1-0.8-0.3-1.1-0.4c-0.3-0.2-0.5-0.4-0.7-0.7
		c-0.2-0.3-0.2-0.6-0.2-1c0-0.3,0.1-0.6,0.2-0.9c0.1-0.3,0.3-0.6,0.6-0.8c0.3-0.3,0.6-0.5,1.1-0.6c0.4-0.2,0.9-0.2,1.5-0.2
		c1,0,1.9,0.2,2.5,0.7c0.6,0.5,1,1.2,1.1,2h-1.5c-0.1-0.5-0.3-0.8-0.7-1.1c-0.4-0.2-0.8-0.4-1.4-0.4c-0.6,0-1.1,0.1-1.4,0.4
		c-0.4,0.2-0.6,0.5-0.6,0.9c0,0.2,0,0.3,0.1,0.4c0.1,0.1,0.2,0.2,0.4,0.3c0.2,0.1,0.4,0.2,0.7,0.2c0.3,0.1,0.6,0.1,1.1,0.2
		c0.5,0.1,1,0.2,1.4,0.3c0.4,0.1,0.8,0.2,1.1,0.4c0.3,0.2,0.6,0.4,0.8,0.8c0.2,0.3,0.3,0.7,0.3,1.2C207.3,47.3,207.2,47.7,207,48.1
		 M197.6,44.2c-0.1-0.4-0.2-0.7-0.4-1c-0.2-0.3-0.4-0.6-0.7-0.8c-0.3-0.2-0.5-0.4-0.8-0.5c-0.3-0.1-0.6-0.2-0.9-0.2
		c-0.3,0-0.6,0.1-0.9,0.2c-0.3,0.1-0.6,0.3-0.8,0.5c-0.3,0.2-0.5,0.5-0.7,0.8c-0.2,0.3-0.3,0.6-0.4,1H197.6z M199,46.8
		c-0.3,0.9-0.8,1.7-1.5,2.2c-0.7,0.5-1.6,0.8-2.6,0.8c-0.6,0-1.2-0.1-1.8-0.4c-0.5-0.2-1-0.6-1.4-1c-0.4-0.4-0.7-0.9-1-1.5
		c-0.2-0.6-0.4-1.2-0.4-1.8c0-0.6,0.1-1.2,0.4-1.8c0.2-0.6,0.6-1.1,1-1.5c0.4-0.4,0.9-0.7,1.4-1c0.5-0.2,1.1-0.4,1.7-0.4
		c0.6,0,1.1,0.1,1.7,0.3c0.5,0.2,1,0.6,1.4,1c0.4,0.4,0.7,1,1,1.6c0.2,0.6,0.4,1.3,0.4,2.1h-7.4c0,0.5,0.2,0.9,0.4,1.2
		c0.2,0.4,0.4,0.7,0.7,0.9c0.3,0.3,0.6,0.4,0.9,0.6c0.3,0.1,0.7,0.2,1.1,0.2c0.6,0,1.2-0.1,1.6-0.4c0.4-0.3,0.8-0.7,1-1.2H199z
		 M189.3,49.5h-1.5v-5.4c0-0.7-0.2-1.2-0.5-1.7c-0.4-0.4-0.9-0.7-1.6-0.7c-0.3,0-0.6,0.1-0.9,0.2c-0.3,0.1-0.5,0.3-0.7,0.5
		c-0.2,0.2-0.4,0.4-0.5,0.7c-0.1,0.3-0.2,0.6-0.2,0.9v5.4h-1.5v-8.8h1.4v1c0.3-0.4,0.7-0.7,1.1-0.9c0.4-0.2,0.9-0.3,1.5-0.3
		c0.5,0,1,0.1,1.4,0.3c0.4,0.2,0.8,0.4,1.1,0.8c0.3,0.3,0.5,0.7,0.7,1.2c0.1,0.5,0.2,1,0.2,1.5V49.5z M180.8,49.5
		c-0.5,0.1-1,0-1.4-0.1c-0.4-0.1-0.8-0.3-1.1-0.6c-0.3-0.3-0.5-0.6-0.7-1.1c-0.2-0.4-0.3-0.9-0.3-1.5v-4.2h-1.2v-1.4h1.2v-1.9h1.5
		v1.9h2v1.4h-2v4.2c0,0.4,0.1,0.7,0.2,1c0.1,0.3,0.3,0.4,0.4,0.6c0.2,0.1,0.4,0.2,0.7,0.3c0.2,0.1,0.5,0.1,0.8,0V49.5z M175.1,49.5
		h-1.5v-8.8h1.5V49.5z M175.1,39.4h-1.5v-1.7h1.5V39.4z M170.6,40.7h2v1.4h-2v7.4h-1.5v-7.4h-1.2v-1.4h1.2v-0.3c0-1.3,0.3-2.3,1-2.9
		c0.6-0.6,1.4-0.8,2.5-0.7v1.3c-0.7,0-1.2,0.1-1.5,0.4c-0.2,0.2-0.4,0.5-0.4,0.8c-0.1,0.4-0.1,0.7-0.1,1V40.7z"/>
	<path class="st1" d="M134.8,30.1c3.9-0.3,14-3.4,14.6-1.7C150,30,138.6,34,133.2,34c-2.4,0-4.5-1.3-4.5-3.1
		c0-5.6,13.9-18.4,13.9-19.7c0-0.5-1.4-0.5-1.9-0.5c-1.1,0-7.2,1.8-9,1.9c-1.9,0.1-4.6-0.1-4.8-1.5c-0.3-1.3,7.4-4.2,12.3-4.2
		c4.1,0,8.8,1.7,8.8,5C148,13.3,136.7,27,134.8,30.1"/>
	<path class="st1" d="M160.7,14.1c-0.5,3.5-1.5,6.9-2,10.4c-0.3,2-1.7,9-4.3,9c-0.5,0-1.1-0.1-1.6-0.1c-2.4,0-4.3-11.5-4.3-13.7
		c0-3.6,0.2-11.3,2.5-14.1c0.3,0,0.5-0.1,0.8-0.1c1.8,0,3.3,0.3,3.3,2.4v0.3c-0.3,1-0.9,2.1-1.3,3.1c-0.9,2.8-1.5,5.7-1.5,8.6
		c0,2,0.3,4.1,1.3,5.8c0.6,0.2,1.3-3.4,1.4-3.9c0.7-3.5,1.2-9.1,2.2-12.2c0.5-0.5,0.3-1,2.1-1.1c0.8,0,1.8,1,1.8,1.8
		C161.2,11.7,160.8,13,160.7,14.1"/>
	<path class="st1" d="M181.1,35.4c-1,0-1.2-0.8-1.4-1.6c-0.6-3.3-0.3-6.7-0.7-10c-1.3,2-2.4,4.1-3.6,6.1c-0.7,1.2-2,2.8-3.5,2.8
		c-3.5,0-3-16.7-3.1-19.6c-3.2,6.4-3.8,11.9-4.5,18.9c-0.6,0.8-1.1,1.3-2.1,1.3c-0.6,0-1.1-0.1-1.6-0.2l0-0.7
		c-0.1-5.1,2-24.7,8.7-24.7c1.4,0,2.2,0.2,3,1.4c1.1,1.5,1,12,1.1,14.6c1.2-2.3,4.2-10.5,7.1-10.5c4,0,3,4.9,3,7.5
		c0,4.1,0.3,8.2,0.3,12.3C183.9,34.1,182.1,35.4,181.1,35.4"/>
	<path class="st1" d="M189.4,33.8c-0.6,0.1-1.2,0.1-1.7,0.1c-0.7,0-2.7,0-2.7-1c0-0.5,0.5-0.8,0.8-0.9c0.7-0.4,1.6-0.5,2.3-0.7
		c1.2-0.3,6.5-3,6.5-4.3c0-3-6.7-5.3-6.7-7.5c0-3.7,6.9-7.7,6.9-10.1c0-0.9-1.4-0.9-2-0.9c-1.3,0-3.3,0.2-4.4,1
		c-0.2,0.7-0.2,1.4-0.2,2.1c0,6.1,0.4,12.1,1,18.2c-0.6,0.2-1.2,0.4-1.9,0.4c-0.4,0-0.9-0.1-0.9-0.6c0-4.1-1.1-8.1-1.2-12.2
		c-0.1-1.8-0.1-3.6-0.2-5.3c-0.1-0.7-0.4-1.5-0.4-2.2c0-2.5,7.1-3.9,9-3.9c1.7,0,4.9,0.2,4.9,2.5c0,2.7-5.3,8.9-7.7,10.3
		c0.2,0.7,8.2,3.9,8.2,8.3C198.8,30.3,192.1,33.5,189.4,33.8"/>
	<path class="st1" d="M215.1,33.9c1.1,0.2-1.2-4.6-2-11.4c-0.6-4.1-0.4-11.4-3.1-14.6c-0.8-1-1.7-1.1-2.9-1.1
		c-5.7,0-7.5,14.8-7.5,19.2c0,2.4,0.4,4.7,1.1,7c0.3,0,0.6,0.1,0.8,0.1c0.8,0,1.6-0.2,2.3-0.6c-0.3-1.5-0.4-3-0.4-4.6
		c0-0.5,0-1,0.1-1.4c2-0.2,4.1-0.4,6.1-0.7C210.5,29.6,211.3,32,215.1,33.9 M208.9,22c-1.8,0-3.5,0.2-5.3,0.4
		c0.1-1.8,0.9-11.3,3.3-11.3c0.5,0,0.8,2.3,0.9,2.7C208.2,16.5,208.4,19.2,208.9,22"/>
	<path class="st1" d="M214,8.4c0.3,0,0.6,0,0.6-0.4c0-0.3-0.3-0.3-0.5-0.3h-0.5v0.7H214z M213.3,7.4h0.9c0.5,0,0.8,0.2,0.8,0.7
		c0,0.4-0.3,0.6-0.6,0.6l0.7,1h-0.3l-0.6-1h-0.4v1h-0.3V7.4z M215.7,8.5c0-0.9-0.7-1.6-1.6-1.6c-0.9,0-1.6,0.7-1.6,1.6
		c0,0.9,0.7,1.6,1.6,1.6C215,10.1,215.7,9.4,215.7,8.5 M214.1,6.6c1.1,0,2,0.9,2,1.9c0,1.1-0.9,1.9-2,1.9c-1.1,0-2-0.9-2-1.9
		C212.1,7.4,213,6.6,214.1,6.6"/>
</g>
</svg>
