<?xml version="1.0" encoding="utf-8"?>
<!-- Generator: Adobe Illustrator 25.4.1, SVG Export Plug-In . SVG Version: 6.00 Build 0)  -->
<svg version="1.1" id="Capa_1" xmlns="http://www.w3.org/2000/svg" xmlns:xlink="http://www.w3.org/1999/xlink" x="0px" y="0px"
	 viewBox="0 0 300 50" style="enable-background:new 0 0 300 50;" xml:space="preserve">
<style type="text/css">
	.st0{fill:#00A9DC;}
</style>
<g>
	<g>
		<path class="st0" d="M103.6,0.26c-10.84,0-19.63,8.79-19.63,19.63c0,10.84,8.79,19.63,19.63,19.63c10.84,0,19.63-8.79,19.63-19.63
			C123.23,9.04,114.44,0.26,103.6,0.26z M103.6,37.23c-9.58,0-17.34-7.76-17.34-17.34c0-9.58,7.76-17.34,17.34-17.34
			c9.58,0,17.34,7.77,17.34,17.34C120.94,29.46,113.18,37.23,103.6,37.23z"/>
	</g>
	<path class="st0" d="M102.84,20.56c0,0,1.89,1.16,0.11,1.9c-1.78,0.74-4.06,0.12-6.09-0.49c-1.49-0.49-2.98-1.11-4.33-1.97
		c-0.95-0.61-1.76-1.23-2.44-2.09c-0.27-0.49-0.54-1.11-0.14-1.6c0.68-0.49,2.59-0.95,2.76-0.99c2.46-0.53,4.35-0.88,4.92-0.28
		c0.31,0.36,0.07,0.67-0.21,0.75c-0.98,0.29-3.63,0.94-5.04,1.63c0.95,1.23,2.57,1.85,4.06,2.34c0.14,0,1.22,0.24,1.49,0.24
		c2.17,0.12,4.27-0.49,5.62,1.23"/>
	<path class="st0" d="M108.64,17.01c0.27,0.14,2.42,1.79,3.41,3.22c0.82,1.2,1.95,1.96,2.53,1.5c1.11-0.87-3.5-10.68-3.5-10.68
		s-0.53-1.53-1.08-3.11c-0.34-0.99-1.12-2.56-2.3-2.03c-1.4,0.63-0.13,2.71,0.27,3.93c1.49,3.25,3.79,5.96,5.15,9.21
		c-0.68-0.54-1-1.18-1.76-1.9c-0.97-0.92-2.4-2.16-3.75-1.49c-1.22,0.54-0.97,2.27-0.85,3.38c0.05,0.88,0.59,5.48-0.58,8.23
		c-0.97,2.41-4.49,5.07-4.28,5.72c-0.27,0.68,2.02,1.49,2.96,1.62c1.22,0.27,2.17-0.41,2.84-1.35
		C110.4,28.12,109.04,22.43,108.64,17.01"/>
	<path class="st0" d="M99.8,9.9c-0.02,0.05-0.03,0.1-0.05,0.15c-0.01,0.02-0.01,0.05-0.02,0.07c-0.11,0.45-0.1,0.93,0.01,1.39
		c0.12,0.54,0.36,1.1,0.72,1.61c0.94,1.32,2.37,1.85,3.34,1.3c0.05-0.03,0.47-0.38,0.55-0.5c2.64-3.07-1.07-6.8-2.93-5.8
		c-0.85,0.46-1.36,1.05-1.6,1.69C99.82,9.84,99.81,9.87,99.8,9.9"/>
	<path class="st0" d="M215.1,48.07c-0.18,0.35-0.43,0.65-0.75,0.9c-0.32,0.25-0.7,0.44-1.15,0.57c-0.44,0.14-0.93,0.21-1.45,0.21
		c-0.54,0-1.03-0.07-1.49-0.21c-0.46-0.14-0.86-0.34-1.2-0.6c-0.34-0.26-0.62-0.58-0.84-0.95c-0.22-0.37-0.35-0.79-0.41-1.26h1.47
		c0.09,0.51,0.36,0.92,0.82,1.22c0.45,0.3,1,0.45,1.64,0.45c0.68,0,1.22-0.14,1.62-0.43c0.39-0.29,0.59-0.62,0.59-1.01
		c0-0.15-0.02-0.29-0.07-0.43c-0.05-0.14-0.15-0.26-0.32-0.38c-0.17-0.11-0.41-0.22-0.73-0.32c-0.32-0.1-0.75-0.18-1.28-0.25
		c-0.54-0.08-1.02-0.17-1.44-0.28c-0.42-0.11-0.78-0.26-1.08-0.45c-0.3-0.19-0.53-0.43-0.69-0.71c-0.16-0.28-0.24-0.63-0.24-1.04
		c0-0.32,0.07-0.63,0.21-0.94c0.14-0.31,0.35-0.59,0.63-0.84c0.29-0.25,0.65-0.45,1.08-0.61c0.43-0.15,0.95-0.23,1.54-0.23
		c1.03,0,1.86,0.24,2.5,0.73c0.64,0.49,1,1.16,1.1,2.03h-1.47c-0.1-0.48-0.34-0.84-0.73-1.07c-0.38-0.23-0.85-0.35-1.39-0.35
		c-0.58,0-1.06,0.12-1.44,0.36c-0.38,0.24-0.57,0.53-0.57,0.87c0,0.16,0.03,0.3,0.1,0.4c0.07,0.11,0.19,0.21,0.36,0.29
		c0.17,0.09,0.4,0.16,0.68,0.23c0.29,0.07,0.64,0.14,1.08,0.2c0.49,0.08,0.95,0.17,1.38,0.27c0.43,0.1,0.81,0.25,1.13,0.44
		c0.33,0.19,0.58,0.44,0.77,0.75c0.19,0.31,0.28,0.72,0.28,1.22C215.37,47.31,215.28,47.71,215.1,48.07 M207,48.07
		c-0.18,0.35-0.43,0.65-0.74,0.9c-0.32,0.25-0.7,0.44-1.15,0.57c-0.45,0.14-0.93,0.21-1.46,0.21c-0.54,0-1.03-0.07-1.49-0.21
		c-0.46-0.14-0.85-0.34-1.2-0.6c-0.34-0.26-0.62-0.58-0.84-0.95c-0.22-0.37-0.35-0.79-0.41-1.26h1.47c0.09,0.51,0.36,0.92,0.82,1.22
		c0.46,0.3,1,0.45,1.64,0.45c0.69,0,1.22-0.14,1.62-0.43c0.39-0.29,0.59-0.62,0.59-1.01c0-0.15-0.02-0.29-0.07-0.43
		c-0.05-0.14-0.15-0.26-0.32-0.38c-0.17-0.11-0.41-0.22-0.73-0.32c-0.32-0.1-0.75-0.18-1.28-0.25c-0.54-0.08-1.02-0.17-1.44-0.28
		c-0.42-0.11-0.78-0.26-1.08-0.45c-0.3-0.19-0.53-0.43-0.68-0.71c-0.16-0.28-0.24-0.63-0.24-1.04c0-0.32,0.07-0.63,0.21-0.94
		c0.14-0.31,0.35-0.59,0.63-0.84c0.29-0.25,0.64-0.45,1.08-0.61c0.43-0.15,0.95-0.23,1.54-0.23c1.03,0,1.86,0.24,2.5,0.73
		c0.64,0.49,1,1.16,1.1,2.03h-1.47c-0.1-0.48-0.35-0.84-0.73-1.07c-0.38-0.23-0.85-0.35-1.39-0.35c-0.58,0-1.06,0.12-1.44,0.36
		c-0.38,0.24-0.57,0.53-0.57,0.87c0,0.16,0.04,0.3,0.1,0.4c0.07,0.11,0.19,0.21,0.36,0.29c0.17,0.09,0.4,0.16,0.69,0.23
		c0.28,0.07,0.64,0.14,1.08,0.2c0.49,0.08,0.95,0.17,1.38,0.27c0.43,0.1,0.81,0.25,1.13,0.44c0.33,0.19,0.58,0.44,0.77,0.75
		c0.19,0.31,0.28,0.72,0.28,1.22C207.27,47.31,207.18,47.71,207,48.07 M197.56,44.2c-0.09-0.35-0.23-0.68-0.42-0.98
		c-0.19-0.3-0.41-0.55-0.66-0.76c-0.25-0.21-0.53-0.37-0.83-0.49c-0.3-0.11-0.61-0.17-0.93-0.17c-0.31,0-0.61,0.05-0.92,0.16
		c-0.3,0.11-0.58,0.26-0.84,0.47c-0.26,0.21-0.49,0.46-0.69,0.75c-0.2,0.3-0.35,0.63-0.44,1.01H197.56z M198.96,46.78
		c-0.31,0.95-0.82,1.67-1.54,2.18c-0.72,0.51-1.59,0.76-2.62,0.76c-0.64,0-1.23-0.12-1.78-0.36c-0.55-0.24-1.03-0.57-1.43-0.98
		c-0.41-0.41-0.72-0.9-0.96-1.46c-0.23-0.56-0.35-1.16-0.35-1.81c0-0.64,0.12-1.24,0.35-1.81c0.23-0.57,0.55-1.06,0.95-1.47
		c0.4-0.42,0.87-0.75,1.4-0.99c0.54-0.24,1.11-0.37,1.73-0.37c0.57,0,1.12,0.11,1.66,0.34c0.54,0.23,1.01,0.56,1.43,0.99
		c0.42,0.43,0.75,0.96,0.99,1.57c0.25,0.62,0.37,1.32,0.37,2.11h-7.41c0.05,0.46,0.16,0.87,0.35,1.22c0.19,0.36,0.42,0.67,0.7,0.92
		c0.28,0.25,0.59,0.44,0.93,0.57c0.34,0.13,0.7,0.2,1.06,0.2c0.63,0,1.16-0.14,1.6-0.43c0.44-0.28,0.78-0.68,1.02-1.2H198.96z
		 M189.33,49.52h-1.45v-5.36c0-0.68-0.18-1.25-0.55-1.69c-0.37-0.44-0.9-0.66-1.61-0.66c-0.33,0-0.64,0.06-0.93,0.18
		c-0.28,0.12-0.53,0.28-0.74,0.49c-0.21,0.21-0.37,0.45-0.48,0.73c-0.11,0.28-0.17,0.58-0.17,0.92v5.39h-1.46V40.7h1.4v0.96
		c0.3-0.37,0.67-0.65,1.11-0.87c0.44-0.21,0.93-0.32,1.47-0.32c0.54,0,1.02,0.09,1.44,0.27c0.42,0.18,0.78,0.44,1.07,0.77
		c0.29,0.33,0.51,0.72,0.66,1.18c0.15,0.46,0.22,0.96,0.22,1.51V49.52z M180.84,49.52c-0.51,0.06-0.99,0.03-1.41-0.09
		c-0.43-0.11-0.8-0.31-1.1-0.59c-0.31-0.28-0.55-0.63-0.72-1.06c-0.17-0.43-0.26-0.92-0.26-1.48v-4.21h-1.2v-1.4h1.2V38.8h1.46v1.88
		h2v1.4h-2v4.21c0,0.39,0.05,0.71,0.16,0.96c0.11,0.25,0.26,0.45,0.45,0.59c0.19,0.14,0.41,0.24,0.65,0.29
		c0.25,0.05,0.5,0.07,0.78,0.04V49.52z M175.1,49.52h-1.45V40.7h1.45V49.52z M175.1,39.37h-1.45v-1.73h1.45V39.37z M170.6,40.72h2
		v1.4h-2v7.4h-1.46v-7.4h-1.2v-1.4h1.2v-0.34c0-1.3,0.34-2.25,1.02-2.86c0.62-0.56,1.44-0.78,2.47-0.67v1.32
		c-0.66-0.05-1.16,0.09-1.49,0.39c-0.23,0.2-0.38,0.48-0.45,0.84c-0.07,0.35-0.1,0.68-0.1,0.98V40.72z"/>
	<path class="st0" d="M134.82,30.06c3.95-0.29,13.95-3.36,14.56-1.7c0.61,1.66-10.8,5.64-16.17,5.64c-2.43,0-4.54-1.35-4.54-3.15
		c0-5.64,13.9-18.39,13.9-19.7c0-0.52-1.42-0.52-1.88-0.52c-1.06,0-7.17,1.78-9.04,1.87c-1.87,0.09-4.56-0.14-4.82-1.47
		c-0.25-1.34,7.43-4.16,12.34-4.16c4.08,0,8.81,1.7,8.81,4.98C147.99,13.34,136.66,27.01,134.82,30.06"/>
	<path class="st0" d="M160.67,14.13c-0.49,3.51-1.54,6.92-2.03,10.43c-0.26,2-1.7,9.05-4.29,9.05c-0.53,0-1.05-0.13-1.57-0.13
		c-2.39,0-4.29-11.51-4.29-13.67c0-3.57,0.2-11.34,2.52-14.06c0.26-0.03,0.49-0.06,0.75-0.06c1.77,0,3.31,0.33,3.31,2.42v0.33
		c-0.26,0.98-0.95,2.1-1.28,3.12c-0.92,2.75-1.48,5.67-1.48,8.59c0,2,0.26,4.1,1.28,5.84c0.62,0.2,1.34-3.41,1.44-3.9
		c0.72-3.48,1.25-9.08,2.23-12.16c0.53-0.49,0.33-1.02,2.1-1.12c0.75,0,1.8,1.02,1.8,1.77C161.17,11.7,160.84,13.01,160.67,14.13"/>
	<path class="st0" d="M181.11,35.44c-0.95,0-1.25-0.79-1.38-1.57c-0.62-3.28-0.3-6.72-0.72-10c-1.28,2-2.43,4.06-3.57,6.13
		c-0.66,1.18-2.03,2.75-3.51,2.75c-3.51,0-2.98-16.72-3.15-19.6c-3.21,6.36-3.8,11.93-4.49,18.88c-0.62,0.76-1.11,1.31-2.1,1.31
		c-0.56,0-1.11-0.1-1.61-0.23l-0.03-0.65c-0.13-5.08,2-24.72,8.72-24.72c1.44,0,2.17,0.23,3.05,1.41
		c1.15,1.51,0.95,12.03,1.08,14.62c1.21-2.33,4.16-10.52,7.15-10.52c4.03,0,3.02,4.92,3.02,7.54c0,4.06,0.33,8.16,0.33,12.26
		C183.9,34.09,182.1,35.44,181.11,35.44"/>
	<path class="st0" d="M189.41,33.85c-0.59,0.07-1.18,0.13-1.74,0.13c-0.66,0-2.72,0-2.72-1.02c0-0.46,0.46-0.75,0.79-0.95
		c0.65-0.36,1.57-0.53,2.29-0.66c1.21-0.26,6.46-3.05,6.46-4.33c0-2.98-6.69-5.31-6.69-7.47c0-3.67,6.92-7.74,6.92-10.1
		c0-0.88-1.44-0.92-2.03-0.92c-1.31,0-3.28,0.23-4.36,0.98c-0.2,0.65-0.23,1.38-0.23,2.07c0,6.1,0.43,12.13,0.95,18.23
		c-0.62,0.2-1.25,0.43-1.9,0.43c-0.39,0-0.92-0.1-0.92-0.62c0-4.07-1.08-8.1-1.25-12.16c-0.07-1.77-0.07-3.57-0.2-5.34
		c-0.07-0.72-0.36-1.51-0.36-2.23c0-2.52,7.15-3.9,9.01-3.9c1.71,0,4.92,0.16,4.92,2.49c0,2.72-5.28,8.95-7.74,10.29
		c0.2,0.66,8.16,3.9,8.16,8.29C198.79,30.34,192.1,33.52,189.41,33.85"/>
	<path class="st0" d="M215.07,33.88c1.11,0.22-1.19-4.62-2-11.38c-0.59-4.13-0.36-11.38-3.08-14.62c-0.82-0.98-1.71-1.08-2.92-1.08
		c-5.7,0-7.47,14.79-7.47,19.18c0,2.36,0.39,4.72,1.15,6.98c0.26,0.03,0.56,0.07,0.82,0.07c0.79,0,1.61-0.16,2.26-0.59
		c-0.26-1.51-0.36-3.05-0.36-4.56c0-0.49,0.03-0.95,0.07-1.44c2.03-0.23,4.1-0.36,6.13-0.66C210.55,29.62,211.34,32.01,215.07,33.88
		 M208.91,21.98c-1.77,0.03-3.54,0.16-5.31,0.36c0.13-1.84,0.85-11.31,3.31-11.31c0.46,0,0.79,2.29,0.85,2.72
		C208.22,16.47,208.45,19.23,208.91,21.98"/>
	<path class="st0" d="M214.01,8.39c0.32,0,0.6-0.02,0.6-0.36c0-0.3-0.25-0.34-0.5-0.34h-0.48v0.69H214.01z M213.29,7.38h0.89
		c0.51,0,0.78,0.22,0.78,0.67c0,0.4-0.27,0.59-0.62,0.63L215,9.66h-0.35l-0.63-0.95h-0.38v0.95h-0.35V7.38z M215.68,8.51
		c0-0.9-0.72-1.63-1.61-1.63c-0.89,0-1.61,0.73-1.61,1.63c0,0.9,0.72,1.63,1.61,1.63C214.97,10.14,215.68,9.41,215.68,8.51
		 M214.07,6.57c1.08,0,1.96,0.87,1.96,1.94c0,1.07-0.88,1.94-1.96,1.94c-1.08,0-1.96-0.87-1.96-1.94
		C212.11,7.44,212.99,6.57,214.07,6.57"/>
</g>
</svg>
