<?xml version="1.0" encoding="utf-8"?>
<!-- Generator: Adobe Illustrator 25.4.1, SVG Export Plug-In . SVG Version: 6.00 Build 0)  -->
<svg version="1.1" id="OBJECTS" xmlns="http://www.w3.org/2000/svg" xmlns:xlink="http://www.w3.org/1999/xlink" x="0px" y="0px"
	 viewBox="0 0 233.14 233.14" style="enable-background:new 0 0 233.14 233.14;" xml:space="preserve">
<style type="text/css">
	.st0{fill:#32BA46;}
	.st1{fill:none;}
	.st2{fill:#FFFFFF;}
</style>
<g>
	<g>
		<g>
			<path class="st0" d="M116.57,228.63c-19.61,0-38.85-5.19-55.89-15.04l-43.66,15.04L26,182.39
				c-14.07-19.28-21.48-41.96-21.48-65.82C4.51,54.78,54.78,4.51,116.57,4.51c61.8,0,112.06,50.27,112.06,112.06
				C228.63,178.36,178.37,228.63,116.57,228.63z"/>
		</g>
	</g>
	<g>
		<g>
			<path class="st1" d="M116.57,48.81c-37.42,0-67.76,30.34-67.76,67.76c0,15.73,5.41,30.16,14.4,41.66l-4.53,23.33l22.01-7.59
				c10.41,6.53,22.69,10.36,35.89,10.36c37.42,0,67.77-30.34,67.77-67.76C184.34,79.15,154,48.81,116.57,48.81z"/>
			<path class="st2" d="M116.57,189.78c-12.81,0-25.38-3.39-36.51-9.83l-28.52,9.83l5.86-30.21c-9.19-12.59-14.03-27.41-14.03-43
				c0-40.37,32.84-73.21,73.21-73.21c40.37,0,73.21,32.84,73.21,73.21C189.78,156.94,156.94,189.78,116.57,189.78z M81.37,167.98
				l2.21,1.38c9.94,6.23,21.35,9.53,32.99,9.53c34.37,0,62.32-27.95,62.32-62.32c0-34.36-27.95-62.31-62.32-62.31
				c-34.36,0-62.31,27.95-62.31,62.31c0,13.98,4.58,27.23,13.24,38.3l1.53,1.96l-3.2,16.5L81.37,167.98z"/>
		</g>
		<path class="st2" d="M79.61,88.44c0,0,4.3-7.51,7.8-7.94c3.5-0.43,8.01-0.43,9.22,1.86c1.22,2.29,6.65,15.59,6.65,15.59
			s0.93,2.29-0.5,4.51c-1.43,2.22-4.65,5.43-4.65,5.43s-1.79,2.29,0,4.72c1.79,2.43,4.56,6.9,10.3,12.63
			c5.73,5.74,16.73,9.82,16.73,9.82s1.57,0.21,2.58-0.79c1-1,6.44-7.79,6.44-7.79s1.74-2.25,4.64-0.93
			c2.9,1.32,15.45,7.58,15.45,7.58s1.47,0.54,1.47,2.75c0,2.22-0.9,7.64-2.73,9.47c-1.83,1.84-7.2,7.49-15.26,7.49
			c-8.06,0-27.25-6.56-37.47-16.78c-10.23-10.23-19.31-20.6-21.45-30.04C76.69,96.6,76.97,92.33,79.61,88.44z"/>
	</g>
</g>
</svg>
